<svg version="1.1" id="prefix__Capa_1" xmlns="http://www.w3.org/2000/svg" x="0" y="0" viewBox="0 0 125.1 36.8" xml:space="preserve"><style>.prefix__st0{fill:#fff}</style><path class="prefix__st0" d="M45.7 10.5v1.1h-2v6h-1.4v-6h-2v-1.1h5.4zM51.8 12v5.6h-1.4v-1.1c-.1.4-.4.7-.7.9-.4.2-.8.3-1.2.3-.6 0-1.2-.2-1.5-.6-.4-.5-.6-1.1-.6-1.8V12h1.4v3.1c0 .4.1.7.3 1 .2.3.6.4.9.4.4 0 .7-.1 1-.4.2-.3.4-.7.4-1.1v-3h1.4zM56.3 10.5l1.9 5.7 1.9-5.7h1.5l-2.5 7.1h-1.8l-2.5-7.1h1.5zM67.7 15.1h-4.1c0 .4.1.8.4 1.1.3.2.6.4.9.4.3 0 .6-.1.8-.2.2-.2.4-.4.4-.7h1.5c-.1.4-.2.7-.5 1-.3.3-.6.6-.9.7-.4.2-.8.3-1.3.3s-1-.1-1.5-.3c-.4-.2-.8-.6-1-1-.2-.5-.4-1-.4-1.5s.1-1.1.4-1.5c.2-.4.6-.8 1-1 .4-.2 1-.4 1.5-.4s1 .1 1.4.4c.4.2.8.5 1 .9.2.4.4.9.3 1.4.2.1.1.2.1.4zM66 13.4c-.6-.5-1.4-.5-1.9 0-.3.3-.4.7-.4 1.1h2.7c0-.4-.1-.8-.4-1.1zM73.1 12.5c.5.4.8 1 .9 1.6h-1.5c0-.3-.2-.5-.4-.7-.2-.2-.5-.3-.8-.3-.4 0-.7.1-.9.4-.3.3-.4.8-.4 1.2 0 .4.1.9.4 1.2.2.3.6.4.9.4.3 0 .6-.1.8-.3.2-.2.4-.4.4-.7H74c-.1.6-.4 1.2-.9 1.6-.5.4-1.2.6-1.8.6-.5 0-1-.1-1.4-.3-.4-.2-.8-.6-1-1-.5-1-.5-2.1 0-3.1.2-.4.6-.8 1-1 .4-.2.9-.4 1.4-.4.6.2 1.3.4 1.8.8zM75.1 9.8c.2-.1.4-.2.6-.2.2 0 .5.1.6.2.2.1.2.4.2.6 0 .2-.1.4-.2.6-.2.1-.4.2-.6.2-.2 0-.5-.1-.6-.2-.2-.1-.2-.3-.2-.6-.1-.2 0-.4.2-.6zm1.3 2.2v5.6H75V12h1.4zM82.6 12.6c.4.5.6 1.1.6 1.8v3.3h-1.4v-3.1c0-.4-.1-.7-.3-1-.2-.3-.6-.4-.9-.4-.4 0-.7.1-1 .4-.3.3-.4.7-.4 1.1v3h-1.4V12h1.4v1.1c.1-.4.4-.7.7-.9.4-.2.8-.3 1.2-.3.5 0 1.1.2 1.5.7zM93.4 10c.7.3 1.4.9 1.8 1.6.4.8.6 1.6.6 2.5 0 .6-.1 1.3-.4 1.8-.2.5-.6 1-1.1 1.3-.4.3-.9.5-1.4.5-.4 0-.8-.1-1.1-.3-.3-.2-.5-.6-.5-1-.2.4-.5.7-.9 1-.4.2-.8.3-1.2.3-.4 0-.8-.1-1.1-.3-.3-.2-.6-.5-.8-.8-.2-.4-.3-.8-.3-1.3V15c0-.6.2-1.1.5-1.6s.7-.8 1.1-1.1c.5-.3 1-.4 1.6-.4.6 0 1.3.2 1.8.6.5.4.7 1 .7 1.6v.4l-.2 1.1v.2c0 .2 0 .3.1.4.1.1.2.1.4.1s.5-.1.7-.3c.2-.2.4-.5.5-.8.1-.4.2-.8.2-1.3 0-.6-.1-1.3-.5-1.9-.3-.6-.8-1-1.4-1.3-.7-.3-1.4-.5-2.2-.4-.9 0-1.8.2-2.6.6-.7.4-1.3 1-1.6 1.7-.4.7-.6 1.6-.6 2.4-.1 1.1.3 2.1 1.1 2.8.9.7 2 1.1 3.2 1l-.3 1.2c-1 0-2-.2-2.9-.6-.8-.4-1.4-.9-1.8-1.7-.4-.8-.7-1.8-.6-2.7 0-1.1.3-2.2.8-3.1.6-.9 1.4-1.6 2.3-2.1 1-.5 2.1-.7 3.2-.7 1.1.3 2 .5 2.9.9zM91 13.5c-.2-.2-.6-.4-.9-.3-.3 0-.5.1-.8.2-.2.2-.4.4-.6.7-.1.3-.2.7-.2 1 0 .4.1.7.3 1 .2.2.6.4.9.4.3 0 .5-.1.8-.2.3-.2.5-.4.6-.7.2-.3.2-.7.2-1.1.1-.4-.1-.7-.3-1zM51.7 20.3v1.6h-2.3v6.8h-2v-6.8h-2.3v-1.6h6.6zM58.8 25.7h-4.6c0 .4.1.8.4 1.1.5.4 1.1.4 1.6.1.2-.1.3-.3.4-.6h2.2c-.1.5-.3.9-.6 1.3s-.7.7-1.1.9c-.5.2-1 .3-1.5.3-.6 0-1.2-.1-1.7-.4-.5-.3-.9-.7-1.2-1.2-.3-.6-.4-1.2-.4-1.8 0-.6.1-1.3.4-1.8.3-.5.7-.9 1.2-1.2.5-.3 1.1-.4 1.7-.4.6 0 1.2.1 1.7.4.5.3.9.6 1.2 1.1.3.5.4 1.1.4 1.7-.1.2-.1.4-.1.5zm-2.4-1.8c-.2-.2-.6-.3-.9-.3-.3 0-.7.1-.9.3-.3.3-.4.6-.4 1h2.6c0-.4-.1-.7-.4-1zM67.5 27.1h-3.2l-.5 1.5h-2.1l3.1-8.4h2.3l3.1 8.4H68l-.5-1.5zm-.5-1.5l-1-3.1-1.1 3.1H67zM72.5 22l1.6 4.1 1.5-4.1h2.2l-4.1 9.8h-2.2l1.6-3.4-2.9-6.4h2.3zM85.1 22v6.6h-2v-1.2c-.2.4-.5.7-.8.9-.4.2-.9.4-1.3.4-.7 0-1.4-.2-1.8-.8-.5-.6-.7-1.3-.7-2.1V22h2v3.6c0 .4.1.8.3 1 .3.3.6.4 1 .4s.7-.1 1-.4c.3-.3.4-.7.4-1.1V22h1.9zM90.3 22.3c.4.2.6.6.8.9v-3.4h2v8.8h-2v-1.2c-.2.4-.4.7-.8.9-.4.2-.8.4-1.3.4s-1-.1-1.5-.4c-.4-.3-.8-.7-1-1.2-.5-1.2-.5-2.5 0-3.6.2-.5.6-.9 1-1.2.5-.2 1-.3 1.5-.3s.9.1 1.3.3zm-1.7 1.9c-.3.3-.4.8-.4 1.2 0 .4.1.9.4 1.2.3.3.7.4 1.1.4.4 0 .7-.2 1-.4.3-.3.4-.7.4-1.2 0-.4-.1-.9-.4-1.2-.3-.3-.6-.4-1-.4-.4-.1-.8.1-1.1.4zM98.4 22.3c.4.2.6.6.8.9V22h2v6.6h-2v-1.2c-.2.4-.5.7-.8.9-.4.2-.8.4-1.3.4s-1-.1-1.5-.4c-.4-.3-.8-.7-1-1.2-.5-1.2-.5-2.5 0-3.6.2-.5.6-.9 1-1.2.4-.3 1-.4 1.5-.4.5.1.9.2 1.3.4zm-1.7 1.9c-.3.3-.4.8-.4 1.2 0 .4.1.9.4 1.2.3.3.6.4 1 .4s.7-.2 1-.4c.3-.3.4-.7.4-1.2 0-.4-.1-.9-.4-1.2-.3-.3-.6-.4-1-.4-.4-.1-.7.1-1 .4zM103.9 27.1v1.6h-1.7v-1.6h1.7zM108.5 23.7c.4.2.8.5 1 .9.2.4.4.9.3 1.4 0 .5-.1 1-.3 1.4-.2.4-.6.7-1 .9-.4.2-.9.3-1.4.3-.5 0-1-.1-1.4-.3-.4-.2-.8-.5-1-.9-.2-.4-.4-.9-.3-1.4 0-.5.1-1 .3-1.4.2-.4.6-.7 1-.9.4-.2.9-.3 1.4-.3.5 0 1 .1 1.4.3zm-2.2 1.4c-.4.6-.4 1.3 0 1.9.2.2.5.3.8.3.3 0 .6-.1.8-.3.4-.6.4-1.3 0-1.9-.2-.2-.5-.3-.8-.3-.3 0-.6.1-.8.3zM113 23.7c.3-.2.6-.3 1-.3v1.7h-.5c-.4 0-.7.1-1 .3-.3.2-.4.6-.3.9v2.4h-1.6v-5.2h1.6v1c.2-.3.5-.6.8-.8zM117.7 23.7c.3.2.5.4.6.7v-.9h1.6v5.2c0 .5-.1.9-.3 1.3-.2.4-.5.7-.9.9-.4.2-.9.4-1.4.4-.7 0-1.3-.2-1.9-.6-.5-.4-.8-.9-.8-1.5h1.6c0 .2.2.4.3.5.2.1.4.2.7.2.3 0 .6-.1.8-.3.2-.2.3-.6.3-.9v-.9c-.1.3-.4.6-.6.7-.3.2-.6.3-1 .3s-.8-.1-1.2-.3c-.4-.2-.6-.5-.8-.9-.4-.9-.4-1.9 0-2.8.2-.4.5-.7.8-.9.3-.2.7-.3 1.2-.3.4-.2.7-.1 1 .1zm-1.3 1.4c-.4.6-.4 1.3 0 1.9.5.4 1.2.4 1.6 0 .4-.5.4-1.3 0-1.9-.5-.4-1.2-.4-1.6 0zM32.2 24.1c-.3-.1-.6 0-.8.2-.4-.1-.8-.2-1.2-.4-.2-.1-.5-.2-.8-.3.1-.3.1-.6.1-.9h-.2c-.2 0-.4-.1-.6-.1H27.8l-.1.1c0 .1-.1.1-.1.2-.1.1-.2.3-.2.4-.1.2-.3.3-.5.4l-.3.1h-.4c-.1.2-.2.2-.4.3H25.5c-.2.1-.4.2-.6.2h-.1c-.1.1-.2.1-.2.1-.2.1-.4.1-.6.1-.1 0-.2 0-.4-.1s-.4-.3-.5-.5c-.1-.2-.2-.4-.2-.6v-.1l-.6.1-.3.3H21.7c-2.6.6-5.1 1.1-7.3 1.4.5.6 1.1 1.1 1.8 1.5 1.7.8 3.6 1.3 5.5 1.2-1.9 0-3.8-.4-5.5-1.2-.7-.3-1.3-.9-1.8-1.5h-.1c.1.2.1.4.2.5h-.1c-.6.4-1.8 1.1-2.6 1.5-.4-.3-.9-.3-1.3 0-.5.3-.6 1-.3 1.5.3.6 1.1.8 1.6.4.4-.3.6-.8.4-1.3.5-.5 1-.9 1.6-1.3.2-.2.5-.3.8-.5.3.6.7 1.1 1.2 1.5-.2.3-.5.9-.7 1.2-.2 0-.5.1-.6.3-.1.3 0 .6.3.7.3.1.6 0 .8-.3.1-.2.1-.5-.1-.6.1-.3.2-.6.4-.9 0-.1.1-.2.2-.3.9.9 2 1.5 3.2 1.9l-.3.7c-.1 0-.2 0-.2.1-.1.1 0 .3.1.3.1.1.3 0 .3-.1s0-.2-.1-.3c0-.1.1-.3.2-.4.7.2 1.5.3 2.3.3h.8v.1c.1.5.1 1.5.1 2-.3.1-.5.5-.4.8.1.4.5.7.9.7s.8-.3.9-.7c0-.4-.3-.8-.7-.9-.1-.5-.2-.9-.3-1.4 0-.2 0-.5-.1-.8.7-.1 1.4-.3 2-.5l.1.3c-.1.1-.1.2 0 .2.1.1.2.1.3.1.1 0 .1-.2.1-.3 0-.1-.1-.1-.2-.1-.1-.1-.1-.2-.2-.2 1.4-.6 2.6-1.6 3.5-2.8.2.2.4.4.5.6-.1.1 0 .3.1.4.1.1.4.2.5 0 .1-.1.1-.4 0-.5-.1-.1-.3-.1-.5-.1-.2-.1-.4-.3-.5-.4l-.1-.1c.3-.5.6-1 .8-1.6.1-.2.1-.4.2-.6V24l.2.1c.4.1 1.1.5 1.6.7 0 .3.2.5.4.6.3.1.7 0 .9-.4.2-.3 0-.7-.3-.9 0 .1 0 .1 0 0zM13.9 21.9zM16.7 19.8l-.2-.3-2.8-3.8-3 2.3 3.2 3.9h.3c.6-.1 1.3-.2 2-.3l-.8-1.1.6-.4.8 1.2-.4.3c1.6-.3 3.3-.6 5-1l.8-.2h.1v-1.9h1.1v1c.2-.1.3-.2.5-.3.1 0 .2-.1.3-.1v-1.6l.1-.4.9.4-.6 1.5-.1.3h.1l.2.1H25.1c.1 0 .1-.1.2-.1l.1-.2.5-1.4 1 .4-.6 1.3h1.1c0-.1.1-.2.2-.3.1-.1.3-.2.4-.3h.1l.2-.2c.1-.2.3-.3.4-.5l.1-.1c.1-.2.3-.4.5-.5h.1c.1-.1.3-.1.4-.1h.4l.6.1H31.1l.6-.6.5.5.5-.2.3-.1-2.2-2-.1-.1-3.3 4 3.4-8.4L26.6 9l-2.2 6.5.3-12.5h-5.9l.4 12.8-2.8-8.6-4.1 1.4 4.1 11 .3.2zM12 18.3l.6-.5.9 1.2-.5.5-1-1.2zm2.1 2.6l-1-1.1.6-.5.9 1.2-.5.4zm1-.8l-.9-1.1.6-.5.8 1.2-.5.4zm12.8-5l-.8-.3.7-1.8.9.4-.8 1.7zm-1-5.1l.9.4-.7 1.9-.7-.3.5-2zm-1.7 4.6l.9.4-.7 1.9-.8-.3.6-2zm-3-10.5h1.1l-.1 2.3h-1V4.1zm0 2.9h1.1l-.1 2.3h-1V7zm0 2.8h1.1l-.1 2.3h-1V9.8zm0 5.7h1.1l-.1 2.3h-1v-2.3zm-4.5 5.6l-.7-1.8-.1-.1 1-.4.1.2.6 1.8-.9.3zm3.6-16.9v2.3h-1l-.1-2.3h1.1zm0 5.7v2.3h-1l-.1-2.3h1.1zm0 2.8V15h-1l-.1-2.3h1.1zm-2 5l-.9.4-.7-2 1-.4.6 2zm-.8-2.4l-.9.3-.7-2 1-.3.6 2zm-1.4-4.5l.6 2-.9.3-.7-2 1-.3zm-2.9.5l-.8-2 1-.3.7 2-.9.3zm.9 3l1-.4.7 2-.9.3-.8-1.9zM29.3 17.3z"/><path class="prefix__st0" d="M26.6 6.9c.6.3 1.2.4 1.9.4 1.5 0 2.8-.6 2.8-1.4S30 4.4 28.5 4.4s-2.8.6-2.8 1.4c0 .3.1.5.3.7.1.1-.6.5-.5.6s1-.3 1.1-.2zM10.3 11.4c.4 0 .7-.1 1.1-.2.1 0 .6.2.6.1s-.3-.3-.2-.3c.1-.1.2-.2.2-.4 0-.4-.7-.8-1.6-.8s-1.6.4-1.6.8.6.8 1.5.8zM14.1 24.6c2.3-.3 4.8-.8 7.6-1.5.1 0 .4-.1 1.7-.4h.1l.2-.3c.1-.2.2-.3.3-.5.1-.1.2-.3.2-.4.1-.1.1-.3.2-.4 0-.1-.1-.1-.1-.2l-.2-.2c-.1-.1-.2-.1-.3-.1-.1 0-.2-.1-.3-.1h-.2l-1 .2h-.1l-.8.2c-2.5.6-5 1.1-7.2 1.4l-.5.1-1.5.2c-1.1.1-2.1.2-3.2.2.7-.4 1.7-.8 2.8-1.2L10.4 20h-.1c-1 .4-2 .9-3 1.4-.5.3-1.8 1.1-1.5 2.2S7.6 25 8.1 25c1.2 0 2.4 0 3.6-.1l2.4-.3z"/><path class="prefix__st0" d="M38.2 15.9c-.3-1.2-1.8-1.3-2.3-1.3-1.3 0-2.6 0-3.8.1l2.2 2c.1 0 .9-.1 1-.1-.3.2-1.1.5-1.6.6l-.8.3-1 .4-.4.2h-.1v.1c0 .1-.1.1-.1.2l-.1.1-.1.1s-.1 0-.1.1h-.7l-.7.3-.3.2-.1.1H29c-.4.2-.9.4-1.3.5h-1.3c-.1 0-.2 0-.3.1-.1 0-.2-.1-.3-.1h-.2l-.2.1h-.2c-.1 0-.2 0-.3-.1l-.3-.1h-.4c-.1.1-.3.1-.4.2-.1 0-.1.1-.2.1h-.2.2c.1 0 .3.1.4.1h.1c.1 0 .1.1.2.1.1.1.2.1.2.2s.1.1.1.2c.1-.2.1-.4.1-.4v.3c0 .2-.1.5-.2.7 0 .1-.1.3-.2.4l-.3.6v.1l-.2.3-.1.1-.2.3c-.1.1-.1.2-.1.2 0 .1 0 .2.1.2.1.1.1.1.2.1.2 0 .3 0 .5-.1s.3-.2.4-.3c.1-.1.2-.3.3-.4s.2-.3.3-.5l.1-.1c0-.1.1-.1.1-.2l-.1.2v.1l-.3.6c-.1.1-.2.3-.3.4.2 0 .3-.1.4-.2.1-.1.3-.2.4-.3l.1-.1v.2c0 .1-.1.1-.1.2.1 0 .3-.1.4-.2l.3-.3c.1-.1.1-.1.2-.1s0 .1 0 .2-.1.1-.1.2l.2-.1c.1-.1.3-.2.4-.3v-.1c.1-.1.1-.2.2-.3 0-.1.1-.2.2-.4 0-.1.1-.1.1-.2l.1-.2c.1-.1.2-.2.3-.2.2-.1.4-.2.5-.3l.3-.1h-.1c-.2-.1-.3-.2-.4-.4v-.1-.1-.2l.1-.1H28.5l.1.3v-.1-.2c0-.1.1-.1.1-.2 0 0 .1-.1.2-.1.2-.1.4-.1.6 0l.2.1v-.1c0-.1 0-.1-.1-.2v-.1s0-.1.1-.1c.1-.1.1-.1.2-.1h.3l.2.1c.2.1.3.1.4.2l.4.2c0-.1-.1-.2-.1-.2V19c0-.1.1-.1.1-.2.1-.1.3-.2.4-.2h.4l.2.1c.1.1.2.3.3.4l.3.5c.1.1.1.2.2.3l.5-.2c.6-.2 1.1-.4 1.5-.6l1.8-.9c.4-.4 1.7-1.2 1.4-2.3z"/><path class="prefix__st0" d="M29.8 18.5H30.8l.1-.1.1-.1.1-.1v-.1H30.8c-.2 0-.4-.1-.6-.1H30 29.7l-.4.4c-.1.2-.3.4-.5.6l-.3.2-.1.1c-.2.1-.3.2-.5.4.4-.1.7-.2 1-.4l.4-.3.4-.2c-.1 0-.1-.1-.2-.1v-.1s.1 0 .2.1l.1-.2zM29.6 21.7l-.2-.2-.1-.1-.2-.1H29l-.3.2c-.1.1-.3.2-.5.4l-.2.1h.8c.3 0 .5.1.7.1h.1l-.1-.1-.1-.1h.2c.1 0 .1.1.2.1l.2.2c.1.1.2.1.2.2h.3c.1-.1.2-.2.2-.3.1-.1.2-.3.3-.4l.2-.2.2-.1c.1 0 .1 0 .2-.1 0-.1 0-.1.1-.2l.1-.1.1-.1.1.1.2-.2v-.1c0-.1-.1-.3-.2-.4l-.2-.2c-.1-.1-.1-.1-.2-.1l-.4-.2h-.1l-.4-.2c-.1-.1-.3-.1-.4-.2-.1-.1-.2-.1-.3-.1h-.1v.2l.1.1c.1.1.1.2.2.3l.2.1.2.1.2.1.2.1c.1.1.2.1.2.2.1.1.1.2.1.2s-.1 0-.2-.1H31l-.3-.1-.2-.1h-.1c-.1 0-.2-.1-.2-.1l-.2-.1c-.1-.1-.3-.2-.4-.2H29c-.1 0-.1.1-.1.1l.1-.1.1.1.2.1.2.1.4.3h.1l.1.1.3.3c.1.1.1.2.1.2s-.1 0-.2-.1l-.2-.1-.3-.2-.1-.1-.4-.2-.2-.1h-.6-.1v.1c.1.1.2.3.4.4l.2.1.2.1c.1.1.1.2.2.3v.1c.1-.1.2.2.2.2zM32.9 20.5l-.2-.5v-.1l-.1-.2-.2-.4c-.1-.1-.1-.3-.2-.4l-.1-.1H32c-.1 0-.2.1-.3.1-.1.1-.1.2-.1.2V19.4l.2.1c.1.1.2.2.3.2l.2.2c.1.1.1.3.2.5v.1c0 .2.6-.1.6-.1-.2.2-.2.1-.2.1z"/></svg>