<svg id="prefix__Capa_1" preserveAspectRatio="none" data-name="Capa 1" xmlns="http://www.w3.org/2000/svg" viewBox="0 0 291.98 268.76"><defs><style>.prefix__cls-1,.prefix__cls-4{fill:#4bd6dd}</style></defs><path class="prefix__cls-1" d="M106.84 160.31l-6.45-9.34-4.51 3.47 6.42 8.35.03.05 1.6-.29.06-.05 2.85-2.19zM217.88 131.2a3 3 0 012 1.1l6.65-2.48-4.15-3.66zM158.61 139.1h-8.93v13.66l8.55-6.32.31-5.89.07-1.45zM186.16 135.55l-7.2-2.71-4.08 10.82-.45 1.2 7.2 1.06.04-.08 4.49-10.29zM173.14 130.65l-7.21-2.72-.99 3.11-.35 10.35-.08 2.37.29.11 3.17.5.83-2.2 4.34-11.52zM158.34 78.2l.27-5.32h-8.93v17.77h8.01l.65-12.45zM158.61 50.81h-8.93v17.77h8.01l.92-17.77zM158.61 117.03h-8.93v17.76h8.01l.92-17.76zM158.61 28.74h-8.93V46.5h8.01l.92-17.76zM142.47 46.5V28.74h-8.93l.92 17.76h8.01zM115.57 142.02l-7.71 2.67.47 1.16 5.64 13.89 6.91-2.39-4.83-13.95-.48-1.38zM79.13 149.56l7.37 8.63 4.05-3.12-6.91-8.99-4.51 3.48zM134.46 90.65h8.01V72.88h-8.93l.27 5.32.65 12.45zM179.84 112.84l-7.2-2.71-4.66 14.61 6.46 2.43 5.4-14.33zM75.06 134.92l-4.52 3.48 7.38 8.62 4.05-3.11-6.91-8.99zM87.29 143.28l6.91 8.98 4.05-3.11-6.44-9.34-4.52 3.47zM192.88 78.2l.36-.97-7.2-2.71-1.17 3.68-3.48 10.93 6.46 2.43 5.03-13.36zM186.97 111.56l6.46 2.43 6.13-14.05-7.2-2.71-5.39 14.33zM107.68 119.25l-5.31-15.33-7.71 2.67 6.11 15.06 6.91-2.4zM87.57 83.55l6.91-2.4-1.02-2.95-4.29-12.38-7.71 2.67 3.94 9.71 2.17 5.35zM113.91 117.09l6.91-2.39-4.52-15.61-7.71 2.67 5.32 15.33zM114.22 95.65l-4.52-15.61-7.71 2.67 5.32 15.34 6.91-2.4zM120.5 136.14l6.79-2.35-.02-.54-4.37-15.11-7.71 2.67 5.31 15.33zM142.47 112.72V94.95h-8.93l.92 17.77h8.01z"/><path d="M226 183.27a5.38 5.38 0 00-6.06 1.53 64.82 64.82 0 01-9-2.72c-1.81-.7-3.86-1.61-5.87-2.55a55.21 55.21 0 00.85-7.32l-.2-.17a4 4 0 01-1.36-.23l-.26-.07a40.81 40.81 0 00-4.86-.69l-.61-.06-1.06-.09-1-.06a4.41 4.41 0 01-.54-.07 5.71 5.71 0 01-1.18-.25 3.41 3.41 0 01-.48-.18 3.27 3.27 0 01-.54 0 4.68 4.68 0 01-.83-.09c-.18.36-.35.72-.51 1.07-.25.55-.5 1.08-.76 1.56a15.37 15.37 0 01-2 2.84l-.09.09c-.13.14-.25.28-.38.41l-.1.1a17.58 17.58 0 01-3.91 3 21 21 0 01-2.38 1.15 4.14 4.14 0 01-1.57.31 4.28 4.28 0 01-1.58-.31 11.83 11.83 0 01-3.42 1.24l-.27.05a4.25 4.25 0 01-.71.06 4.17 4.17 0 01-1.44-.26 11.91 11.91 0 01-5 1.65h-.39a4.26 4.26 0 01-.8-.08 11.61 11.61 0 01-1.86 1.18 9.77 9.77 0 01-4.38 1.08 8 8 0 01-2.78-.48 7.55 7.55 0 01-3.43-2.61 6.63 6.63 0 01-1.31-4.51 3.85 3.85 0 01.07-.49c-2.19.52-3.7.86-4.79 1.11s-1.82.41-2 .48l-.55.22a4.13 4.13 0 01-1.43.28c-19.9 4.58-39.34 8.35-56.41 10.93 2.83 4.25 7.47 8.19 13.71 11.55 11.31 6.08 26.39 9.43 42.46 9.44h-.07c-16.06 0-31.13-3.35-42.43-9.44-6.23-3.36-10.85-7.29-13.68-11.55l-.54.08c.55 1.36 1.15 2.7 1.81 4l-.39.27c-4.58 3.1-14.08 8.61-20 12a9.3 9.3 0 00-10.15.12 8.37 8.37 0 00-2.15 12 9.21 9.21 0 0012.49 2.06 8.41 8.41 0 003.31-9.79 107 107 0 0112.47-10c1.82-1.23 3.86-2.52 6-3.8a58.81 58.81 0 009 11.9c-1.25 2.44-3.9 6.87-5.59 9.65a4.49 4.49 0 00-4.37 2.39 4.19 4.19 0 002.05 5.8 4.54 4.54 0 005.93-2 4.12 4.12 0 00-1-5 49.64 49.64 0 012.91-7.19c.38-.75.81-1.54 1.27-2.36a61.26 61.26 0 0024.67 14.44c-.6 1-1.39 2.31-2 3.2a1.92 1.92 0 00-1.9 1 1.8 1.8 0 00.86 2.46 1.93 1.93 0 002.56-.82 1.77 1.77 0 00-.4-2.16 21.5 21.5 0 011.3-3.08l.21-.39a63.38 63.38 0 0017.84 2.58q3.11 0 6.12-.29c.06.38.11.74.15 1.09.45 3.74.8 11.19 1 15.83a6 6 0 00-3.33 6 6.23 6.23 0 007 5.29 6.09 6.09 0 005.52-6.68 6.15 6.15 0 00-5.18-5.24A70.45 70.45 0 01154 233c-.22-1.8-.38-3.84-.5-5.91A62.33 62.33 0 00169 223c.4.72.82 1.49 1.13 2.07a1.47 1.47 0 00-.09 1.73 1.64 1.64 0 002.2.51 1.5 1.5 0 00.52-2.11 1.64 1.64 0 00-1.78-.68 20.53 20.53 0 01-1.39-1.76 60.54 60.54 0 0026.71-21.89c1.34 1.38 3.07 3.27 4.24 4.57a2.77 2.77 0 00.64 3.18 3.07 3.07 0 004.21 0 2.78 2.78 0 000-4.05 3.08 3.08 0 00-3.54-.46 36.27 36.27 0 01-4.13-3.34c-.26-.25-.53-.51-.8-.79a57.16 57.16 0 006.06-12.51 17.48 17.48 0 001.44-5c.08-.29.15-.59.22-.89l1.73.63c3 1.18 8.85 3.91 12.46 5.63a5 5 0 003.27 4.73 5.31 5.31 0 006.81-2.77 4.94 4.94 0 00-2.91-6.53zM105.4 147l1.07 2.86-1.83-2.53-21.32-29.5-23.25 17.88 24.52 30v.11h.1l2.41-.36c4.83-.75 9.87-1.61 15-2.54h.22v-.05l-6.42-8.35 4.51-3.47 6.45 9.34-2.86 2.11-.06.05h.08c12.23-2.24 25.2-4.94 38.31-8l6-1.41 1.09-.27.26-.06V139.1h8.93l-.07 1.45-.31 5.89a16.51 16.51 0 013.9-2.07 9.35 9.35 0 012.67-.5l-.29-.11.08-2.37.35-10.35 1-3.11 7.21 2.72-4.34 11.52-.83 2.2.59.22 1.31.59.82.38a3.24 3.24 0 001 .32H171.85c.12 0 .34-.14.6-.26l.1-.05a9.31 9.31 0 011.65-.63h.21l.45-1.2 4.14-10.9 7.2 2.71-4.49 10.29v.08h1.82c.88 0 1.72-.07 2.57-.12 1-.06 2.16-.16 3.38-.31a4.26 4.26 0 011.78-2.18 23.26 23.26 0 003.14-2.28l.46-.39c.51-.45 1.08-1 1.75-1.71a29.64 29.64 0 003.11-3.81c.23-.33.42-.63.61-.93a10 10 0 013.5-3.72 5.36 5.36 0 01.54-.26l.11-.05a8.53 8.53 0 013.23-.65h1.02c.67 0 1.35.12 2.09.22 1.61.24 3.23.54 4.95.93l.63.14 1 .25.56.15 4.45-5 4.15 3.66 4-1.52 2.25-.9L215.27 112l-1.12-1-25.61 30.58L214.6 78.2l.54-1.3-32.32-12.16-4.61 13.46-12.73 37.16 1.26-37.16 2-58.32h-45.31l2 58.32 1.37 40.34-13-40.34-8.56-26.64-31.3 10.85 5.87 15.79zm-34.86-8.63l4.52-3.47 6.91 9-4 3.11zm16 19.8l-7.37-8.63 4.51-3.48 6.91 9zm7.7-5.93l-6.91-9 4.52-3.47 6.44 9.34zM193.43 114l-6.43-2.44 5.39-14.33 7.2 2.71zm-8.56-35.8l1.13-3.68 7.2 2.71-.36 1-5 13.36-6.46-2.43zm-12.23 31.93l7.2 2.71-5.39 14.33-6.45-2.43zm-23-81.39h8.93l-.92 17.76h-8zm0 22.07h8.93l-.92 17.76h-8zm0 27.39v-5.32h8.93l-.27 5.32-.65 12.45h-8zm0 38.83h8.93l-.92 17.76h-8zM114 159.74l-5.63-13.89-.47-1.16 7.71-2.67.48 1.38 4.83 13.95zm28.51-131V46.5h-8l-.92-17.76zm0 44.14v17.77h-8l-.65-12.45-.27-5.32zm0 22.07v17.77h-8L133.54 95zm-15.2 38.3v.54l-6.79 2.35-5.31-15.33 7.71-2.67zm-6.45-18.55l-6.91 2.39-5.32-15.33 7.71-2.67zM109.7 80l4.52 15.61-6.91 2.39L102 82.71zm-7.33 23.88l5.31 15.33-6.91 2.4-6.11-15.06zm-13.2-38.1l4.29 12.42 1 3-6.91 2.4-2.15-5.4-3.94-9.71z" fill="#4bd6dd"/><path class="prefix__cls-1" d="M183.29 49.66a35.15 35.15 0 0014.3 2.79c11.81 0 21.39-4.88 21.39-10.89s-9.58-10.88-21.39-10.88-21.4 4.87-21.4 10.88a7.2 7.2 0 002.58 5.19c.64.6-4.66 4.22-3.83 4.74s7.52-2.21 8.35-1.83zM57.35 84.52a20.31 20.31 0 008.3-1.62c.48-.22 4.43 1.32 4.84 1.06s-2.59-2.4-2.22-2.75a4.18 4.18 0 001.5-3c0-3.48-5.56-6.31-12.42-6.31s-12.41 2.82-12.41 6.3 5.56 6.32 12.41 6.32z"/><path class="prefix__cls-4" d="M86.74 186.53c17.53-2.6 37.52-6.45 58.37-11.28v.09l.14-.06.45-.17c1-.4 3.09-.65 13.28-3.22l.67-.33c.61-.83 1.21-1.65 1.77-2.44q1.37-1.92 2.42-3.71a34.45 34.45 0 001.69-3.17 26.93 26.93 0 001.25-3.2 6.34 6.34 0 00-1-1.63 7.13 7.13 0 00-1.55-1.34 9.35 9.35 0 00-2.23-1 13.14 13.14 0 00-2.33-.48l-1.84.46q-3.67.92-7.39 1.82l-1.1.27c-2 .48-4 1-6 1.42-19.63 4.59-38.75 8.35-55.6 11l-3.64.55c-3.94.58-7.75 1.1-11.39 1.54a234.05 234.05 0 01-24.94 1.94 229.39 229.39 0 0121.83-9.17l-12-13.28-.74.28c-10.87 4.21-17.46 7.41-23.34 11-3.76 2.27-13.74 8.3-11.55 17.43S35.83 189.7 40.21 190c6.84.48 16.2.11 27.8-1.09 5.83-.59 12.11-1.4 18.73-2.38z"/><path class="prefix__cls-4" d="M273 119.3c-2.2-9.13-13.83-10-18.22-10.26-6.45-.45-19 0-29.7 1.09l17.2 15.56c.8 0 7.18-1 7.93-1.06-2.65 1.32-8.66 3.58-12.06 5-1.93.82-4 1.66-6.15 2.51q-3.7 1.46-7.84 3l-3.37 1.21-1.12.4a3.87 3.87 0 01-.42 1.17 5.42 5.42 0 01-.89 1.21 9.23 9.23 0 01-.88.8 7 7 0 01-1 .68 4 4 0 01-1.18.45 3.38 3.38 0 01-1.26 0c-.37 0-.69-.13-1-.19a5.69 5.69 0 00-.78-.12c-.8-.07-1.65 0-2.47 0l-3.6 2.38-2.07 1.35-1 .69-.53.35c-.18.11-.38.25-.57.35a28 28 0 01-10.28 3.49c-.56.08-1.12.14-1.68.2-1.25.15-2.49.27-3.71.34-.89.06-1.77.09-2.63.12s-1.75.07-2.65 0a11.17 11.17 0 01-2.72-.43 23.21 23.21 0 00-2.2-.75 1.86 1.86 0 00-.78 0 5.44 5.44 0 00-.94.38 10 10 0 01-1.21.51 3 3 0 01-.74.17 3.8 3.8 0 01-.75.06 7 7 0 01-2.6-.66c-.74-.33-1.4-.67-2-.93a4.91 4.91 0 00-1.78-.43 4.66 4.66 0 00-1.75.29 13.74 13.74 0 00-3.28 1.82 9.65 9.65 0 00-1.37 1.09 4.78 4.78 0 00-.52.59l-.21.31-.09.16-.06.13V152.54a.53.53 0 000 .13.32.32 0 000 .09.23.23 0 00.12.12.28.28 0 00.13 0h.34l.83.11a14.79 14.79 0 013 .75c.3.11.59.24.87.37a9 9 0 011.55.94 7.52 7.52 0 011.63 1.67 7 7 0 01.68 1.19c.5-1.8.63-2.9.84-2.88s.29.73.24 2.08a18.93 18.93 0 01-1.2 5.54 28.61 28.61 0 01-1.31 3 45.72 45.72 0 01-2.57 4.45l-.49.74c-.54.81-1.1 1.62-1.69 2.45l-.55.79c-.47.68-1 1.39-1.44 2.08a4.23 4.23 0 00-.84 1.9 2.59 2.59 0 00.54 1.72 3.36 3.36 0 001.51 1.14 5 5 0 003.86-.41 10 10 0 003-2.56c.83-1 1.55-2 2.2-3 .93-1.37 1.67-2.59 2.27-3.58l.63-1.07c.34-.57.61-1 .82-1.3s.32-.4.39-.37.06.12 0 .3a9.72 9.72 0 01-.48 1.73q-.08.22-.18.48a34 34 0 01-2.17 4.61 33.34 33.34 0 01-2 3.21 7.85 7.85 0 003.43-1.18 22.67 22.67 0 003.08-2.56c.2-.19.39-.36.56-.5l.25-.2.17-.11.24-.13c.07 0 .11-.12.18-.16a.2.2 0 01.25.09.71.71 0 01.1.56 1.4 1.4 0 01-.08.34c0 .1-.07.2-.11.31a5.51 5.51 0 01-.33.72 9.08 9.08 0 01-.9 1.41h.19a7.83 7.83 0 003-1.28 21.25 21.25 0 002.58-2.37c.69-.68 1.21-1.09 1.48-.94s.21.83-.19 1.8a7.46 7.46 0 01-.93 1.61 1.77 1.77 0 01-.12.17 18.52 18.52 0 001.9-.91 13.38 13.38 0 003-2.32c.15-.15.3-.29.44-.45a11 11 0 001.45-2.1c.42-.78.78-1.71 1.3-2.69a9.87 9.87 0 01.9-1.44 10.75 10.75 0 011.09-1.22 17.07 17.07 0 012.32-1.85 28 28 0 014.22-2.4 22.19 22.19 0 012.16-.84l-.48-.34a16.65 16.65 0 01-3.23-3c-.15-.17-.28-.34-.42-.53s-.15-.2-.22-.31a3 3 0 01-.22-.4 2.38 2.38 0 01-.24-1.07 2.32 2.32 0 01.27-1 2.73 2.73 0 01.38-.54l.2-.22a3.27 3.27 0 01.74-.49 4 4 0 011.41-.35 8.17 8.17 0 011.1 0h.15l-.08-.06a2.64 2.64 0 01-.43-.45 2.35 2.35 0 01-.42-.8 2.53 2.53 0 01.1-1.75 3.51 3.51 0 01.85-1.25 4.27 4.27 0 011.21-.83 7 7 0 015 .05 12.72 12.72 0 011.35.57c-.09-.16-.18-.33-.26-.5a5.52 5.52 0 01-.45-1.56 3.1 3.1 0 010-1 2.7 2.7 0 01.48-1 3.33 3.33 0 011.81-1.19 4.91 4.91 0 012 0 13.21 13.21 0 011.78.49 27.37 27.37 0 013.42 1.45c1 .52 2 1 2.88 1.58a7.47 7.47 0 01-.49-1.87 4.49 4.49 0 01.09-1.57 4.13 4.13 0 01.79-1.58 4.87 4.87 0 013.31-1.82 4.23 4.23 0 012.16.35 3.17 3.17 0 01.41.21 6.07 6.07 0 011.34 1.07 14.89 14.89 0 012.12 3.35c.3.59 1.19 2.09 2.09 3.63L232 150c1.41-.53 2.8-1.05 4.16-1.58 4.3-1.66 8.22-3.29 11.76-4.86a121.51 121.51 0 0013.48-6.83c3.76-2.28 13.75-8.3 11.6-17.43z"/><path class="prefix__cls-4" d="M207 139.08a6.06 6.06 0 001.14.3 5.19 5.19 0 001 .1 10.2 10.2 0 001.39-.1c.45 0 .94-.11 1.48-.13h.33a7.28 7.28 0 01.93.07c.32 0 .61.09.87.11a1.88 1.88 0 00.68-.07 2.66 2.66 0 00.67-.31 5.56 5.56 0 00.71-.54c.23-.21.47-.45.68-.68l.15-.18.09-.13a2.31 2.31 0 00.5-1.12 1.34 1.34 0 00-.09-.65.41.41 0 00-.08-.13l-.06-.09a.87.87 0 00-.2-.16 4.18 4.18 0 00-.89-.29l-1-.24-.19-.05-.37-.08c-1.49-.34-3-.63-4.63-.87q-.91-.14-1.74-.18h-.7a4.16 4.16 0 00-1.95.46c-1.05.55-1.76 2-2.69 3.36a34.21 34.21 0 01-3.53 4.33c-.68.71-1.36 1.38-2 1.95-.17.16-.35.31-.52.45a28.72 28.72 0 01-3.69 2.68 24.74 24.74 0 007.54-2.8l3.34-2.12 2.9-1.85-.43-.24a5 5 0 01-1.21-1c-.23-.28-.3-.47-.24-.52s.7.28 1.81.72zM206.06 164.48c-.06 0-.12 0-.2-.11s-.28-.32-.51-.58a6.21 6.21 0 00-.93-.85c-.21-.16-.44-.31-.7-.47l-.21-.13c-.45-.25-1-.5-1.55-.79l-.85-.44c-.62.41-1.47.92-2.48 1.57s-2.42 1.6-3.79 2.67c-.37.29-.73.58-1.09.89a4.14 4.14 0 01.56-.14 2.12 2.12 0 01.85.06 2.72 2.72 0 01.65.29 1.55 1.55 0 00.29.13 2.79 2.79 0 00.71.12l1 .07 1.11.08.64.06a47.37 47.37 0 015.38.78 5.44 5.44 0 01.72.2c-.26-.33-.49-.61-.7-.84-.55-.6-.94-.88-.88-1s.6-.11 1.41.37l.12.08a8.71 8.71 0 011.21.94c.47.43 1 1 1.49 1.44a5.91 5.91 0 001.84 1.2 2.13 2.13 0 002-.16 5.77 5.77 0 001.79-2 17 17 0 012-3 5.25 5.25 0 011.75-1.27 15.6 15.6 0 011.74-.59 5.08 5.08 0 001.25-.49 1.37 1.37 0 00.36-.3 1.31 1.31 0 00.25-.41 14.87 14.87 0 01.6-1.48 3 3 0 01.68-.84 2.88 2.88 0 01.87-.47c.55-.19 1-.25 1.29-.35a1.67 1.67 0 00.38-.17 1.62 1.62 0 00.34-.26 13.17 13.17 0 001.19-1.57l.09-.1c-.05-.18-.11-.38-.18-.61a9.59 9.59 0 00-1.67-3.11l-.17-.21-.39-.44a13.62 13.62 0 00-1.84-1.62 19.26 19.26 0 00-1.63-1.1c-.87-.53-1.83-1.05-2.84-1.59l-.48-.26c-.87-.47-1.74-1-2.64-1.4a27.21 27.21 0 00-3.13-1.38 5.33 5.33 0 00-2.65-.51 1.39 1.39 0 00-.78.41.79.79 0 00-.18.29 1.73 1.73 0 000 .42 3.64 3.64 0 00.22 1.08 7.4 7.4 0 00.43 1 7.6 7.6 0 001.86 2.24l.3.18c.49.28 1 .53 1.47.77s1.06.48 1.57.71l1.27.59c.53.25 1 .51 1.47.77a10.63 10.63 0 011.93 1.43c.13.12.24.24.35.36l.12.14c.72.9.87 1.53.76 1.59s-.54-.37-1.35-1a5.35 5.35 0 00-.58-.4c-.16-.1-.32-.2-.5-.29a18.14 18.14 0 00-2.55-1.12l-.25-.09-1.91-.68c-.34-.12-.68-.24-1-.39a18.24 18.24 0 01-1.67-.74c-.56-.28-1.11-.6-1.66-.91a17.59 17.59 0 00-3.35-1.64 6.84 6.84 0 00-1.77-.34h-.14a4.17 4.17 0 00-.71 0h-.08l-.34.07-.2.06-.15.06a1.89 1.89 0 00-1 .89.41.41 0 000 .31.54.54 0 00.2.27c.17.14.48.34.76.53l.83.56 1.6 1.1 1.66 1.15c1.14.8 2.21 1.56 3.17 2.27l.42.32.24.19c.25.18.47.37.69.55l.25.21a18.52 18.52 0 012.22 2.17c.07.09.15.17.22.25.68.87.93 1.44.82 1.53s-.59-.28-1.42-.92c-.32-.25-.72-.54-1.15-.86-.68-.48-1.47-1-2.42-1.61l-.09-.06-.18-.11-.27-.16-1.09-.67-2.78-1.7-1.39-.87c-.29-.07-.6-.13-.93-.19a11.5 11.5 0 00-3.53 0 2.58 2.58 0 00-.74.23.6.6 0 00-.19.15.56.56 0 00-.12.18.24.24 0 000 .11v.11c0 .11.12.19.22.33l.37.45a20 20 0 003 2.92l.22.17c.44.34.87.63 1.3.92l.15.1.18.11a16.66 16.66 0 011.53 1.1l.34.31a4.84 4.84 0 011.37 2 2 2 0 01.11.8c-.07.27-.13.37-.2.38z"/><path class="prefix__cls-4" d="M231.58 154.71c-.11-.21-.21-.43-.32-.64l-1.4-2.76c-.07-.15-.15-.29-.23-.44l-.27-.52-1-1.94-1.79-3.41a14.71 14.71 0 00-1.76-2.92 3.34 3.34 0 00-1.05-.83.74.74 0 00-.21-.07 2.16 2.16 0 00-.91-.16 3.09 3.09 0 00-2.09 1 2.66 2.66 0 00-.72 1.9 6.43 6.43 0 00.12 1.16c.05.3.11.59.18.86s.16.6.24.87c.55.32 1.08.66 1.59 1a18.44 18.44 0 012.46 2l.05.05a11.27 11.27 0 011.47 1.78c.08.12.16.24.23.36a.75.75 0 01.07.12 7.76 7.76 0 011.17 3.72v.09a4.32 4.32 0 01-.07.8c0 1.61 4.41-1 4.45-1a.46.46 0 00.08-.21.52.52 0 00-.05-.23c-.04-.18-.14-.37-.24-.58z"/></svg>