<svg id="Capa_1" data-name="Capa 1" xmlns="http://www.w3.org/2000/svg" viewBox="0 0 192 188.46"><defs><style>.cls-1{fill:#fff;}</style></defs><title>Logo_TuVecinoTeAyuda_Blanco</title><path class="cls-1" d="M154.65,130.67a4,4,0,0,0-4.5,1.14,49,49,0,0,1-6.7-2c-1.34-.52-2.86-1.2-4.36-1.9a42.16,42.16,0,0,0,.64-5.43l-.15-.12a3.2,3.2,0,0,1-1-.17l-.19-.06a32.13,32.13,0,0,0-3.61-.51l-.46,0-.78-.06-.74,0-.4-.06a4.41,4.41,0,0,1-.88-.18l-.35-.13-.4,0a3.08,3.08,0,0,1-.61-.07c-.14.27-.27.54-.38.8s-.37.8-.57,1.16a11.72,11.72,0,0,1-1.46,2.11.46.46,0,0,0-.07.07l-.28.3-.08.07a12.6,12.6,0,0,1-2.9,2.26,15.24,15.24,0,0,1-1.77.85,3.07,3.07,0,0,1-2.33,0,8.63,8.63,0,0,1-2.54.92l-.2,0a3.15,3.15,0,0,1-.52,0,3,3,0,0,1-1.08-.2,8.92,8.92,0,0,1-3.71,1.23H112a2.88,2.88,0,0,1-.59-.06,7.93,7.93,0,0,1-1.38.87,7.15,7.15,0,0,1-3.26.81,5.82,5.82,0,0,1-2-.36,5.5,5.5,0,0,1-2.55-1.94,4.85,4.85,0,0,1-1-3.34c0-.13,0-.25,0-.37-1.62.39-2.74.64-3.55.82s-1.35.31-1.5.37l-.41.16a3,3,0,0,1-1.06.2c-14.77,3.41-29.2,6.2-41.87,8.11,2.1,3.16,5.54,6.09,10.17,8.58,8.4,4.51,19.59,7,31.52,7h-.05c-11.93,0-23.11-2.49-31.5-7-4.62-2.49-8.05-5.41-10.15-8.58l-.4.07c.41,1,.86,2,1.34,3l-.29.19c-3.4,2.3-10.44,6.39-14.85,8.91a6.92,6.92,0,0,0-7.54.09,6.22,6.22,0,0,0-1.6,8.89,6.83,6.83,0,0,0,9.27,1.53,6.23,6.23,0,0,0,2.46-7.27A79.51,79.51,0,0,1,50.46,144c1.34-.91,2.86-1.87,4.45-2.82A43.25,43.25,0,0,0,61.62,150c-.93,1.81-2.89,5.1-4.15,7.16a3.34,3.34,0,0,0-3.24,1.78,3.11,3.11,0,0,0,1.54,4.22,3.36,3.36,0,0,0,4.4-1.47,3.07,3.07,0,0,0-.76-3.72,37.23,37.23,0,0,1,2.16-5.33c.28-.56.6-1.15.94-1.76a45.49,45.49,0,0,0,18.31,10.72c-.44.77-1,1.72-1.45,2.37a1.43,1.43,0,0,0-1.4.75,1.33,1.33,0,0,0,.63,1.83,1.46,1.46,0,0,0,1.91-.61,1.33,1.33,0,0,0-.31-1.61,16.5,16.5,0,0,1,1-2.28,2.69,2.69,0,0,1,.16-.29,47.14,47.14,0,0,0,13.22,1.88c1.54,0,3-.07,4.55-.22,0,.29.08.56.11.81.33,2.78.59,8.31.73,11.76a4.42,4.42,0,0,0-2.47,4.47,4.63,4.63,0,0,0,5.17,3.93,4.45,4.45,0,0,0,.25-8.85,51.68,51.68,0,0,1-1.63-7.93c-.17-1.34-.29-2.85-.37-4.39a46.56,46.56,0,0,0,11.46-3.06l.83,1.53a1.11,1.11,0,0,0-.06,1.29,1.22,1.22,0,0,0,1.63.37,1.12,1.12,0,0,0,.39-1.56,1.24,1.24,0,0,0-1.33-.51,15.12,15.12,0,0,1-1-1.31,44.9,44.9,0,0,0,19.83-16.24c1,1,2.27,2.43,3.14,3.39a2.07,2.07,0,0,0,.47,2.36,2.28,2.28,0,0,0,3.14,0,2.06,2.06,0,0,0,0-3,2.29,2.29,0,0,0-2.63-.35,25.86,25.86,0,0,1-3.07-2.47c-.19-.19-.39-.38-.59-.59a42.35,42.35,0,0,0,4.5-9.28,12.83,12.83,0,0,0,1.07-3.69c0-.22.11-.44.16-.66l1.29.47c2.25.87,6.56,2.9,9.25,4.17a3.72,3.72,0,0,0,2.42,3.52,3.93,3.93,0,0,0,5-2.06A3.66,3.66,0,0,0,154.65,130.67Z"/><path class="cls-1" d="M49.69,117.7h.07l0-.07S49.7,117.68,49.69,117.7Z"/><path class="cls-1" d="M66,105.89,64.59,104,48.76,82.1,31.51,95.37l18.2,22.25,0,.07,1.8-.27c3.63-.57,7.43-1.21,11.32-1.92l-4.79-6.23,3.35-2.57,4.78,6.93-2.16,1.66c9.11-1.67,18.77-3.68,28.54-6l4.42-1,.81-.2.19,0V97.88h6.63L104.59,99l-.22,4.36a12.3,12.3,0,0,1,2.89-1.53,7.2,7.2,0,0,1,2-.38l-.21-.08.06-1.75.26-7.68.73-2.31,5.35,2-3.22,8.56-.62,1.63.44.16c.32.13.64.28,1,.44.19.1.39.19.6.28a2.49,2.49,0,0,0,.77.24h.06l0,0c.09,0,.25-.11.44-.2l.08,0a7.22,7.22,0,0,1,1.22-.47l.16,0,.34-.89,3-8,5.35,2-3.34,7.64,0,.06h.19c.39,0,.78,0,1.16,0,.66,0,1.28,0,1.91-.08.78,0,1.6-.12,2.51-.23a3.08,3.08,0,0,1,1.32-1.62,17,17,0,0,0,2.33-1.69l.34-.29c.38-.33.8-.75,1.3-1.27a22.36,22.36,0,0,0,2.31-2.83c.17-.24.31-.47.45-.69a7.45,7.45,0,0,1,2.6-2.76l.4-.19.06-.07,0,0a6.4,6.4,0,0,1,2.39-.49h.09a5.44,5.44,0,0,1,.57,0h.1a15.26,15.26,0,0,1,1.55.17c1.19.17,2.39.4,3.67.68l.47.11.74.18.42.11,3.3-3.74L155,91,158,89.87l1.68-.67L146.7,77.78h0l-.83-.73-19,22.7,19.74-48-24-9L109.74,80.27,112.15,9.4H78.53L81,82.63,65,32.92,41.8,41l23.36,62.8ZM39.28,97.36l3.35-2.57,5.13,6.66-3,2.32Zm11.85,14.69-5.48-6.4L49,103.07l5.12,6.67Zm5.71-4.39L51.71,101l3.36-2.58,4.78,6.93Zm73.65-28.41-4.8-1.81,4-10.63,5.34,2ZM125,50l5.34,2-4,10.63-4.8-1.8Zm-10,26.42,5.34,2L116.4,89l-4.8-1.8ZM98,16h6.63L104,29.16H98Zm0,16.38h6.63L104,45.54H98Zm0,16.38h6.63L104,61.92H98ZM98,81.5h6.63L104,94.69H98ZM71.51,113.21,67.33,102.9,67,102l5.72-2,.36,1,3.58,10.35ZM92.67,16V29.16h-6L86,16Zm0,32.76V61.92h-6L86,48.74Zm0,16.38V78.31h-6L86,65.12ZM81.39,93.54V94l-5,1.74-4-11.38,5.72-2ZM76.6,79.77l-5.13,1.78-4-11.38,5.72-2ZM68.35,54.05,71.7,65.64l-5.13,1.77L62.63,56ZM51.92,56.66,47.39,45.48l5.72-2,3.94,11.38Zm5.26,17.1,5.72-2,3.95,11.38-5.14,1.78Z"/><path class="cls-1" d="M138.55,91.27l.09,0,0,0Z"/><path class="cls-1" d="M123,31.5a26,26,0,0,0,10.62,2.07c8.77,0,15.88-3.61,15.88-8.08s-7.11-8.08-15.88-8.08S117.7,21,117.7,25.49a5.31,5.31,0,0,0,1.91,3.85c.47.45-3.46,3.13-2.84,3.52S122.35,31.22,123,31.5Z"/><path class="cls-1" d="M29.49,57.37a15.05,15.05,0,0,0,6.16-1.2c.36-.16,3.29,1,3.59.79s-1.92-1.78-1.65-2a3.07,3.07,0,0,0,1.11-2.23c0-2.59-4.12-4.69-9.21-4.69s-9.21,2.1-9.21,4.69S24.41,57.37,29.49,57.37Z"/><path class="cls-1" d="M51.3,133.09c13-1.93,27.85-4.79,43.33-8.37v.07l.1-.05.33-.13c.78-.29,2.29-.48,9.86-2.38l.5-.25,1.31-1.81c.67-1,1.27-1.87,1.8-2.75a26.26,26.26,0,0,0,1.25-2.36,18.76,18.76,0,0,0,.93-2.37,4.9,4.9,0,0,0-.78-1.21,5.2,5.2,0,0,0-1.15-1,7.06,7.06,0,0,0-1.66-.75,9.51,9.51,0,0,0-1.72-.35l-1.37.33-5.49,1.36-.81.2c-1.48.36-3,.71-4.44,1-14.57,3.41-28.76,6.2-41.27,8.14l-2.7.41c-2.92.44-5.75.82-8.45,1.15a172.19,172.19,0,0,1-18.51,1.44,168.26,168.26,0,0,1,16.2-6.81l-8.88-9.86-.54.21a106.44,106.44,0,0,0-17.33,8.13c-2.79,1.68-10.2,6.16-8.57,12.93s10.27,7.39,13.52,7.61a124.88,124.88,0,0,0,20.63-.81C41.73,134.41,46.39,133.82,51.3,133.09Z"/><path class="cls-1" d="M189.51,83.19c-1.63-6.78-10.27-7.38-13.52-7.61a161.22,161.22,0,0,0-22,.8l12.76,11.55c.59,0,5.33-.78,5.89-.78-2,1-6.43,2.66-9,3.73q-2.14.9-4.56,1.85c-1.83.73-3.77,1.46-5.82,2.22l-2.5.89-.83.3a2.89,2.89,0,0,1-.31.87,4.19,4.19,0,0,1-.66.9c-.22.22-.43.41-.66.6a5,5,0,0,1-.74.5,2.81,2.81,0,0,1-.88.33,2.45,2.45,0,0,1-.93,0c-.28,0-.51-.1-.72-.14a4.09,4.09,0,0,0-.58-.09c-.6,0-1.23,0-1.83,0l-2.68,1.76-1.53,1-.78.51-.39.26-.42.26a20.92,20.92,0,0,1-7.63,2.59l-1.25.15c-.93.11-1.85.2-2.76.25l-2,.09c-.64,0-1.29,0-2,0a8.33,8.33,0,0,1-2-.32h0a16.46,16.46,0,0,0-1.63-.55,1.37,1.37,0,0,0-.57,0,4.48,4.48,0,0,0-.71.28,7.67,7.67,0,0,1-.89.38,3.39,3.39,0,0,1-.55.13,3.52,3.52,0,0,1-.56,0,5.31,5.31,0,0,1-1.93-.49c-.55-.24-1-.5-1.5-.69a3.53,3.53,0,0,0-1.32-.32,3.69,3.69,0,0,0-1.3.21,10.37,10.37,0,0,0-2.43,1.35,8.86,8.86,0,0,0-1,.81,3.86,3.86,0,0,0-.38.44l-.16.23-.07.12a1,1,0,0,0,0,.1.14.14,0,0,0,0,.06l0,0v.06a.34.34,0,0,0,0,.1.19.19,0,0,0,0,.07.2.2,0,0,0,.09.09l.09,0h.11l.15,0,.62.08a10.77,10.77,0,0,1,2.22.56h0a8.25,8.25,0,0,1,1.8,1,5.87,5.87,0,0,1,1.21,1.24,5.72,5.72,0,0,1,.5.88c.38-1.33.47-2.15.62-2.14s.22.55.18,1.55a13.74,13.74,0,0,1-.89,4.11,19.62,19.62,0,0,1-1,2.21A31.94,31.94,0,0,1,108,121l-.36.55,0,0-1.25,1.82c-.14.19-.28.38-.41.58-.36.5-.73,1-1.08,1.54a3.35,3.35,0,0,0-.62,1.41,1.89,1.89,0,0,0,.4,1.28,2.48,2.48,0,0,0,1.13.85,3.7,3.7,0,0,0,2.86-.31,7.32,7.32,0,0,0,2.24-1.9c.62-.74,1.16-1.52,1.64-2.22.69-1,1.24-1.92,1.68-2.65l.47-.8c.26-.42.46-.75.61-1s.24-.3.29-.28,0,.09,0,.23a7.4,7.4,0,0,1-.36,1.28l-.13.36a25.55,25.55,0,0,1-1.61,3.42,24.24,24.24,0,0,1-1.51,2.38,5.93,5.93,0,0,0,2.55-.88,15.69,15.69,0,0,0,2.29-1.9c.14-.14.28-.26.41-.37l.18-.14.13-.09a1,1,0,0,0,.18-.1c.05,0,.08-.08.13-.11s.12,0,.19.06a.61.61,0,0,1,.08.42,2.33,2.33,0,0,1-.07.25,2.09,2.09,0,0,1-.08.23,5.71,5.71,0,0,1-.24.54,7.84,7.84,0,0,1-.67,1l.14,0a5.62,5.62,0,0,0,2.19-1,15.48,15.48,0,0,0,1.92-1.75c.51-.51.9-.82,1.1-.7s.16.61-.14,1.33a5.66,5.66,0,0,1-.69,1.2l-.09.12a13.49,13.49,0,0,0,1.41-.68,9.7,9.7,0,0,0,2.21-1.72c.11-.11.22-.21.32-.33a8.46,8.46,0,0,0,1.08-1.56c.31-.58.58-1.26,1-2a7.87,7.87,0,0,1,.67-1.06,7.19,7.19,0,0,1,.81-.91,12.38,12.38,0,0,1,1.72-1.38,20.79,20.79,0,0,1,3.14-1.77h0c.61-.27,1.14-.48,1.6-.63-.12-.07-.23-.16-.35-.24a11.89,11.89,0,0,1-2.4-2.23c-.11-.13-.21-.25-.31-.39l-.17-.23-.16-.29a1.81,1.81,0,0,1-.18-.8,1.86,1.86,0,0,1,.2-.77,1.71,1.71,0,0,1,.29-.4.77.77,0,0,1,.15-.16,2,2,0,0,1,.55-.37,3.17,3.17,0,0,1,1-.26,5.72,5.72,0,0,1,.82,0H135l-.06,0a1.68,1.68,0,0,1-.32-.33,1.71,1.71,0,0,1-.31-.6,1.86,1.86,0,0,1,.07-1.3,2.66,2.66,0,0,1,.64-.92,3,3,0,0,1,.89-.62,5.21,5.21,0,0,1,3.68,0,7,7,0,0,1,1,.43c-.06-.13-.13-.25-.19-.38a4.07,4.07,0,0,1-.33-1.16,2.07,2.07,0,0,1,.38-1.51,2.48,2.48,0,0,1,1.34-.87,3.45,3.45,0,0,1,1.53,0,8.79,8.79,0,0,1,1.32.36,18,18,0,0,1,2.53,1.08c.76.38,1.47.78,2.15,1.17a5.22,5.22,0,0,1-.36-1.39,3.15,3.15,0,0,1,.06-1.17,3.06,3.06,0,0,1,.58-1.17,3.61,3.61,0,0,1,2.46-1.35,3.26,3.26,0,0,1,1.61.26l.3.16a4,4,0,0,1,1,.79,11,11,0,0,1,1.57,2.49c.23.44.89,1.54,1.56,2.69l1,1.76c1-.39,2.08-.78,3.08-1.17q4.8-1.86,8.74-3.61a91.55,91.55,0,0,0,10-5.07C183.73,94.44,191.15,90,189.51,83.19Z"/><path class="cls-1" d="M141.44,98.1a4.21,4.21,0,0,0,.73.07,8,8,0,0,0,1-.07,10.93,10.93,0,0,1,1.1-.1h.24a5.34,5.34,0,0,1,.69,0c.23,0,.45.07.64.08a1.41,1.41,0,0,0,.51,0,1.71,1.71,0,0,0,.5-.23,4.53,4.53,0,0,0,.52-.4c.17-.16.35-.33.51-.51l.11-.13.07-.09a1.81,1.81,0,0,0,.37-.84,1.06,1.06,0,0,0-.07-.48l-.06-.1,0-.06a.65.65,0,0,0-.15-.12,2.78,2.78,0,0,0-.66-.22l-.74-.18-.14,0-.28-.06c-1.11-.25-2.25-.47-3.44-.65-.45-.06-.88-.11-1.29-.13l-.52,0a3.07,3.07,0,0,0-1.45.34c-.78.41-1.3,1.52-2,2.5A26.1,26.1,0,0,1,135,99.87c-.51.53-1,1-1.49,1.45l-.39.33a20.77,20.77,0,0,1-2.74,2,18.31,18.31,0,0,0,5.6-2.08l2.47-1.58,2.16-1.37a2.4,2.4,0,0,1-.32-.17,3.75,3.75,0,0,1-.9-.77c-.17-.21-.22-.35-.18-.39s.51.27,1.36.59A5.18,5.18,0,0,0,141.44,98.1Z"/><path class="cls-1" d="M139.87,116.73c-.05,0-.1,0-.16-.09s-.2-.24-.37-.43a4.93,4.93,0,0,0-.69-.63c-.16-.12-.33-.23-.52-.35l-.16-.09c-.33-.19-.71-.38-1.15-.59l-.63-.32-1.84,1.16c-.83.53-1.79,1.19-2.81,2q-.42.31-.81.66a1.89,1.89,0,0,1,.41-.1,1.39,1.39,0,0,1,.63,0,2.3,2.3,0,0,1,.48.21.76.76,0,0,0,.22.1,2.14,2.14,0,0,0,.53.09l.76,0,.82.06.48,0a35.86,35.86,0,0,1,4,.57l.53.16c-.19-.25-.36-.46-.51-.62-.41-.45-.71-.66-.66-.77s.44-.08,1.05.27l.09.06a6.9,6.9,0,0,1,.89.7c.35.32.72.71,1.11,1.07a4.51,4.51,0,0,0,1.36.89,1.6,1.6,0,0,0,1.46-.12,4.33,4.33,0,0,0,1.33-1.48,12.49,12.49,0,0,1,1.51-2.26,4.05,4.05,0,0,1,1.3-.94,9.35,9.35,0,0,1,1.3-.43,3.89,3.89,0,0,0,.92-.37A.86.86,0,0,0,151,115a1.1,1.1,0,0,0,.18-.31c.13-.27.21-.66.45-1.1a2.08,2.08,0,0,1,.51-.61,2,2,0,0,1,.64-.36c.41-.14.72-.18.95-.26a1.1,1.1,0,0,0,.29-.12,1.5,1.5,0,0,0,.25-.19,11.2,11.2,0,0,0,.89-1.17l.06-.07-.13-.46a7.12,7.12,0,0,0-1.24-2.3c0-.06-.09-.11-.13-.16l-.29-.33a10.19,10.19,0,0,0-1.36-1.2c-.37-.28-.78-.55-1.22-.82-.64-.39-1.35-.77-2.1-1.18l-.36-.19c-.64-.35-1.29-.7-1.95-1a22.17,22.17,0,0,0-2.33-1,4.07,4.07,0,0,0-2-.37,1.07,1.07,0,0,0-.58.3.61.61,0,0,0-.13.22,1.3,1.3,0,0,0,0,.31,3.07,3.07,0,0,0,.16.8,5.27,5.27,0,0,0,.33.76,5.58,5.58,0,0,0,1.38,1.67l.22.13c.36.21.72.39,1.09.57l1.17.53.94.44c.39.18.75.37,1.09.57a8,8,0,0,1,1.43,1.06,3.25,3.25,0,0,1,.26.27l.09.11c.54.66.65,1.13.56,1.17s-.39-.27-1-.72a4,4,0,0,0-.43-.3l-.37-.21a12.88,12.88,0,0,0-1.89-.83l-.19-.07-1.41-.5-.78-.29c-.4-.16-.82-.34-1.24-.55s-.83-.44-1.23-.68a14.33,14.33,0,0,0-2.49-1.22,5,5,0,0,0-1.31-.24h-.11a3.08,3.08,0,0,0-.53,0h-.06l-.25,0-.14,0-.12,0a1.43,1.43,0,0,0-.7.67.34.34,0,0,0,0,.23.36.36,0,0,0,.15.2l0,0c.12.1.35.25.56.39l.61.42,1.19.81,1.23.86c.85.59,1.65,1.15,2.36,1.68l.31.24.18.14c.18.14.35.27.51.41l.19.15a15.05,15.05,0,0,1,1.65,1.62c0,.06.11.12.15.18.51.65.7,1.07.62,1.14s-.44-.21-1.06-.69c-.24-.18-.53-.4-.86-.63-.5-.36-1.09-.76-1.79-1.2l-.06,0-.14-.09-.2-.12-.81-.49-2.06-1.27c-.34-.21-.68-.41-1-.64l-.7-.14a8.39,8.39,0,0,0-2.61,0,1.55,1.55,0,0,0-.55.17.45.45,0,0,0-.15.11h0a.51.51,0,0,0-.09.13.17.17,0,0,0,0,.08s0,0,0,.08a2.24,2.24,0,0,0,.17.25c.08.1.17.22.27.33a14.14,14.14,0,0,0,2.22,2.17l.16.13c.33.25.64.46,1,.68l.11.07.13.09a10.87,10.87,0,0,1,1.13.81,2.85,2.85,0,0,1,.26.23,3.75,3.75,0,0,1,1,1.48,1.4,1.4,0,0,1,.07.6C140,116.64,139.92,116.72,139.87,116.73Z"/><path class="cls-1" d="M158.8,109.47l-.23-.47-1-2-.17-.33-.2-.38-.75-1.44-1.32-2.54a10.71,10.71,0,0,0-1.31-2.16,2.63,2.63,0,0,0-.78-.62l-.15,0a1.74,1.74,0,0,0-.68-.12,2.31,2.31,0,0,0-1.55.72,2,2,0,0,0-.53,1.41,4.91,4.91,0,0,0,.08.86c0,.23.09.44.14.64s.12.45.18.64c.4.25.8.49,1.17.75a12.43,12.43,0,0,1,1.83,1.48l0,0a8.2,8.2,0,0,1,1.09,1.32c.06.09.12.18.17.27l.06.09a5.76,5.76,0,0,1,.86,2.76v.06a3.28,3.28,0,0,1-.05.6c0,1.19,3.27-.72,3.3-.76A.35.35,0,0,0,159,110a.43.43,0,0,0,0-.17Z"/></svg>