<?xml version="1.0" encoding="utf-8"?>
<!-- Generator: Adobe Illustrator 24.0.0, SVG Export Plug-In . SVG Version: 6.00 Build 0)  -->
<svg version="1.1" id="Capa_1" xmlns="http://www.w3.org/2000/svg" xmlns:xlink="http://www.w3.org/1999/xlink" x="0px" y="0px"
	 viewBox="0 0 125.1 36.8" style="enable-background:new 0 0 125.1 36.8;" xml:space="preserve">
<style type="text/css">
	.st0{fill:#FFFFFF;}
</style>
<title>Logo_Web_TuVecinoTeAyuda-12</title>
<path class="st0" d="M45.7,10.5v1.1h-2v6h-1.4v-6h-2v-1.1H45.7z"/>
<path class="st0" d="M51.8,12v5.6h-1.4v-1.1c-0.1,0.4-0.4,0.7-0.7,0.9c-0.4,0.2-0.8,0.3-1.2,0.3c-0.6,0-1.2-0.2-1.5-0.6
	c-0.4-0.5-0.6-1.1-0.6-1.8V12h1.4v3.1c0,0.4,0.1,0.7,0.3,1c0.2,0.3,0.6,0.4,0.9,0.4c0.4,0,0.7-0.1,1-0.4c0.2-0.3,0.4-0.7,0.4-1.1v-3
	H51.8z"/>
<path class="st0" d="M56.3,10.5l1.9,5.7l1.9-5.7h1.5l-2.5,7.1h-1.8l-2.5-7.1H56.3z"/>
<path class="st0" d="M67.7,15.1h-4.1c0,0.4,0.1,0.8,0.4,1.1c0.3,0.2,0.6,0.4,0.9,0.4c0.3,0,0.6-0.1,0.8-0.2c0.2-0.2,0.4-0.4,0.4-0.7
	h1.5c-0.1,0.4-0.2,0.7-0.5,1c-0.3,0.3-0.6,0.6-0.9,0.7c-0.4,0.2-0.8,0.3-1.3,0.3c-0.5,0-1-0.1-1.5-0.3c-0.4-0.2-0.8-0.6-1-1
	c-0.2-0.5-0.4-1-0.4-1.5c0-0.5,0.1-1.1,0.4-1.5c0.2-0.4,0.6-0.8,1-1c0.4-0.2,1-0.4,1.5-0.4c0.5,0,1,0.1,1.4,0.4
	c0.4,0.2,0.8,0.5,1,0.9c0.2,0.4,0.4,0.9,0.3,1.4C67.8,14.8,67.7,14.9,67.7,15.1z M66,13.4c-0.6-0.5-1.4-0.5-1.9,0
	c-0.3,0.3-0.4,0.7-0.4,1.1h2.7C66.4,14.1,66.3,13.7,66,13.4z"/>
<path class="st0" d="M73.1,12.5c0.5,0.4,0.8,1,0.9,1.6h-1.5c0-0.3-0.2-0.5-0.4-0.7c-0.2-0.2-0.5-0.3-0.8-0.3c-0.4,0-0.7,0.1-0.9,0.4
	c-0.3,0.3-0.4,0.8-0.4,1.2c0,0.4,0.1,0.9,0.4,1.2c0.2,0.3,0.6,0.4,0.9,0.4c0.3,0,0.6-0.1,0.8-0.3c0.2-0.2,0.4-0.4,0.4-0.7H74
	c-0.1,0.6-0.4,1.2-0.9,1.6c-0.5,0.4-1.2,0.6-1.8,0.6c-0.5,0-1-0.1-1.4-0.3c-0.4-0.2-0.8-0.6-1-1c-0.5-1-0.5-2.1,0-3.1
	c0.2-0.4,0.6-0.8,1-1c0.4-0.2,0.9-0.4,1.4-0.4C71.9,11.9,72.6,12.1,73.1,12.5z"/>
<path class="st0" d="M75.1,9.8c0.2-0.1,0.4-0.2,0.6-0.2c0.2,0,0.5,0.1,0.6,0.2c0.2,0.1,0.2,0.4,0.2,0.6c0,0.2-0.1,0.4-0.2,0.6
	c-0.2,0.1-0.4,0.2-0.6,0.2c-0.2,0-0.5-0.1-0.6-0.2c-0.2-0.1-0.2-0.3-0.2-0.6C74.8,10.2,74.9,10,75.1,9.8z M76.4,12v5.6H75V12H76.4z"
	/>
<path class="st0" d="M82.6,12.6c0.4,0.5,0.6,1.1,0.6,1.8v3.3h-1.4v-3.1c0-0.4-0.1-0.7-0.3-1c-0.2-0.3-0.6-0.4-0.9-0.4
	c-0.4,0-0.7,0.1-1,0.4c-0.3,0.3-0.4,0.7-0.4,1.1v3h-1.4V12h1.4v1.1c0.1-0.4,0.4-0.7,0.7-0.9c0.4-0.2,0.8-0.3,1.2-0.3
	C81.6,11.9,82.2,12.1,82.6,12.6z"/>
<path class="st0" d="M93.4,10c0.7,0.3,1.4,0.9,1.8,1.6c0.4,0.8,0.6,1.6,0.6,2.5c0,0.6-0.1,1.3-0.4,1.8c-0.2,0.5-0.6,1-1.1,1.3
	c-0.4,0.3-0.9,0.5-1.4,0.5c-0.4,0-0.8-0.1-1.1-0.3c-0.3-0.2-0.5-0.6-0.5-1c-0.2,0.4-0.5,0.7-0.9,1c-0.4,0.2-0.8,0.3-1.2,0.3
	c-0.4,0-0.8-0.1-1.1-0.3c-0.3-0.2-0.6-0.5-0.8-0.8c-0.2-0.4-0.3-0.8-0.3-1.3c0-0.1,0-0.2,0-0.3c0-0.6,0.2-1.1,0.5-1.6
	c0.3-0.5,0.7-0.8,1.1-1.1c0.5-0.3,1-0.4,1.6-0.4c0.6,0,1.3,0.2,1.8,0.6c0.5,0.4,0.7,1,0.7,1.6c0,0.1,0,0.3,0,0.4l-0.2,1.1
	c0,0.1,0,0.2,0,0.2c0,0.2,0,0.3,0.1,0.4c0.1,0.1,0.2,0.1,0.4,0.1c0.2,0,0.5-0.1,0.7-0.3c0.2-0.2,0.4-0.5,0.5-0.8
	c0.1-0.4,0.2-0.8,0.2-1.3c0-0.6-0.1-1.3-0.5-1.9c-0.3-0.6-0.8-1-1.4-1.3c-0.7-0.3-1.4-0.5-2.2-0.4c-0.9,0-1.8,0.2-2.6,0.6
	c-0.7,0.4-1.3,1-1.6,1.7c-0.4,0.7-0.6,1.6-0.6,2.4c-0.1,1.1,0.3,2.1,1.1,2.8c0.9,0.7,2,1.1,3.2,1l-0.3,1.2c-1,0-2-0.2-2.9-0.6
	c-0.8-0.4-1.4-0.9-1.8-1.7c-0.4-0.8-0.7-1.8-0.6-2.7c0-1.1,0.3-2.2,0.8-3.1c0.6-0.9,1.4-1.6,2.3-2.1c1-0.5,2.1-0.7,3.2-0.7
	C91.6,9.4,92.5,9.6,93.4,10z M91,13.5c-0.2-0.2-0.6-0.4-0.9-0.3c-0.3,0-0.5,0.1-0.8,0.2c-0.2,0.2-0.4,0.4-0.6,0.7
	c-0.1,0.3-0.2,0.7-0.2,1c0,0.4,0.1,0.7,0.3,1c0.2,0.2,0.6,0.4,0.9,0.4c0.3,0,0.5-0.1,0.8-0.2c0.3-0.2,0.5-0.4,0.6-0.7
	c0.2-0.3,0.2-0.7,0.2-1.1C91.4,14.1,91.2,13.8,91,13.5z"/>
<path class="st0" d="M51.7,20.3v1.6h-2.3v6.8h-2v-6.8h-2.3v-1.6H51.7z"/>
<path class="st0" d="M58.8,25.7h-4.6c0,0.4,0.1,0.8,0.4,1.1c0.5,0.4,1.1,0.4,1.6,0.1c0.2-0.1,0.3-0.3,0.4-0.6h2.2
	c-0.1,0.5-0.3,0.9-0.6,1.3c-0.3,0.4-0.7,0.7-1.1,0.9c-0.5,0.2-1,0.3-1.5,0.3c-0.6,0-1.2-0.1-1.7-0.4c-0.5-0.3-0.9-0.7-1.2-1.2
	c-0.3-0.6-0.4-1.2-0.4-1.8c0-0.6,0.1-1.3,0.4-1.8c0.3-0.5,0.7-0.9,1.2-1.2c0.5-0.3,1.1-0.4,1.7-0.4c0.6,0,1.2,0.1,1.7,0.4
	c0.5,0.3,0.9,0.6,1.2,1.1c0.3,0.5,0.4,1.1,0.4,1.7C58.8,25.4,58.8,25.6,58.8,25.7z M56.4,23.9c-0.2-0.2-0.6-0.3-0.9-0.3
	c-0.3,0-0.7,0.1-0.9,0.3c-0.3,0.3-0.4,0.6-0.4,1h2.6C56.8,24.5,56.7,24.2,56.4,23.9z"/>
<path class="st0" d="M67.5,27.1h-3.2l-0.5,1.5h-2.1l3.1-8.4h2.3l3.1,8.4H68L67.5,27.1z M67,25.6l-1-3.1l-1.1,3.1H67z"/>
<path class="st0" d="M72.5,22l1.6,4.1l1.5-4.1h2.2l-4.1,9.8h-2.2l1.6-3.4L70.2,22H72.5z"/>
<path class="st0" d="M85.1,22v6.6h-2v-1.2c-0.2,0.4-0.5,0.7-0.8,0.9c-0.4,0.2-0.9,0.4-1.3,0.4c-0.7,0-1.4-0.2-1.8-0.8
	c-0.5-0.6-0.7-1.3-0.7-2.1V22h2v3.6c0,0.4,0.1,0.8,0.3,1c0.3,0.3,0.6,0.4,1,0.4c0.4,0,0.7-0.1,1-0.4c0.3-0.3,0.4-0.7,0.4-1.1V22
	H85.1z"/>
<path class="st0" d="M90.3,22.3c0.4,0.2,0.6,0.6,0.8,0.9v-3.4h2v8.8h-2v-1.2c-0.2,0.4-0.4,0.7-0.8,0.9c-0.4,0.2-0.8,0.4-1.3,0.4
	c-0.5,0-1-0.1-1.5-0.4c-0.4-0.3-0.8-0.7-1-1.2c-0.5-1.2-0.5-2.5,0-3.6c0.2-0.5,0.6-0.9,1-1.2C88,22.1,88.5,22,89,22
	C89.5,22,89.9,22.1,90.3,22.3z M88.6,24.2c-0.3,0.3-0.4,0.8-0.4,1.2c0,0.4,0.1,0.9,0.4,1.2c0.3,0.3,0.7,0.4,1.1,0.4
	c0.4,0,0.7-0.2,1-0.4c0.3-0.3,0.4-0.7,0.4-1.2c0-0.4-0.1-0.9-0.4-1.2c-0.3-0.3-0.6-0.4-1-0.4C89.3,23.7,88.9,23.9,88.6,24.2z"/>
<path class="st0" d="M98.4,22.3c0.4,0.2,0.6,0.6,0.8,0.9V22h2v6.6h-2v-1.2c-0.2,0.4-0.5,0.7-0.8,0.9c-0.4,0.2-0.8,0.4-1.3,0.4
	c-0.5,0-1-0.1-1.5-0.4c-0.4-0.3-0.8-0.7-1-1.2c-0.5-1.2-0.5-2.5,0-3.6c0.2-0.5,0.6-0.9,1-1.2c0.4-0.3,1-0.4,1.5-0.4
	C97.6,22,98,22.1,98.4,22.3z M96.7,24.2c-0.3,0.3-0.4,0.8-0.4,1.2c0,0.4,0.1,0.9,0.4,1.2c0.3,0.3,0.6,0.4,1,0.4c0.4,0,0.7-0.2,1-0.4
	c0.3-0.3,0.4-0.7,0.4-1.2c0-0.4-0.1-0.9-0.4-1.2c-0.3-0.3-0.6-0.4-1-0.4C97.3,23.7,97,23.9,96.7,24.2z"/>
<path class="st0" d="M103.9,27.1v1.6h-1.7v-1.6H103.9z"/>
<path class="st0" d="M108.5,23.7c0.4,0.2,0.8,0.5,1,0.9c0.2,0.4,0.4,0.9,0.3,1.4c0,0.5-0.1,1-0.3,1.4c-0.2,0.4-0.6,0.7-1,0.9
	c-0.4,0.2-0.9,0.3-1.4,0.3c-0.5,0-1-0.1-1.4-0.3c-0.4-0.2-0.8-0.5-1-0.9c-0.2-0.4-0.4-0.9-0.3-1.4c0-0.5,0.1-1,0.3-1.4
	c0.2-0.4,0.6-0.7,1-0.9c0.4-0.2,0.9-0.3,1.4-0.3C107.6,23.4,108.1,23.5,108.5,23.7z M106.3,25.1c-0.4,0.6-0.4,1.3,0,1.9
	c0.2,0.2,0.5,0.3,0.8,0.3c0.3,0,0.6-0.1,0.8-0.3c0.4-0.6,0.4-1.3,0-1.9c-0.2-0.2-0.5-0.3-0.8-0.3C106.8,24.8,106.5,24.9,106.3,25.1z
	"/>
<path class="st0" d="M113,23.7c0.3-0.2,0.6-0.3,1-0.3v1.7h-0.5c-0.4,0-0.7,0.1-1,0.3c-0.3,0.2-0.4,0.6-0.3,0.9v2.4h-1.6v-5.2h1.6v1
	C112.4,24.2,112.7,23.9,113,23.7z"/>
<path class="st0" d="M117.7,23.7c0.3,0.2,0.5,0.4,0.6,0.7v-0.9h1.6v5.2c0,0.5-0.1,0.9-0.3,1.3c-0.2,0.4-0.5,0.7-0.9,0.9
	c-0.4,0.2-0.9,0.4-1.4,0.4c-0.7,0-1.3-0.2-1.9-0.6c-0.5-0.4-0.8-0.9-0.8-1.5h1.6c0,0.2,0.2,0.4,0.3,0.5c0.2,0.1,0.4,0.2,0.7,0.2
	c0.3,0,0.6-0.1,0.8-0.3c0.2-0.2,0.3-0.6,0.3-0.9v-0.9c-0.1,0.3-0.4,0.6-0.6,0.7c-0.3,0.2-0.6,0.3-1,0.3c-0.4,0-0.8-0.1-1.2-0.3
	c-0.4-0.2-0.6-0.5-0.8-0.9c-0.4-0.9-0.4-1.9,0-2.8c0.2-0.4,0.5-0.7,0.8-0.9c0.3-0.2,0.7-0.3,1.2-0.3
	C117.1,23.4,117.4,23.5,117.7,23.7z M116.4,25.1c-0.4,0.6-0.4,1.3,0,1.9c0.5,0.4,1.2,0.4,1.6,0c0.4-0.5,0.4-1.3,0-1.9
	C117.5,24.7,116.8,24.7,116.4,25.1L116.4,25.1z"/>
<path class="st0" d="M32.2,24.1c-0.3-0.1-0.6,0-0.8,0.2c-0.4-0.1-0.8-0.2-1.2-0.4c-0.2-0.1-0.5-0.2-0.8-0.3c0.1-0.3,0.1-0.6,0.1-0.9
	l0,0c-0.1,0-0.1,0-0.2,0l0,0c-0.2,0-0.4-0.1-0.6-0.1h-0.4h-0.2h-0.1h-0.2c0,0-0.1,0.1-0.1,0.1c0,0.1-0.1,0.1-0.1,0.2
	c-0.1,0.1-0.2,0.3-0.2,0.4l0,0h0l0,0c-0.1,0.2-0.3,0.3-0.5,0.4l-0.3,0.1h-0.2c-0.1,0-0.1,0-0.2,0C26.1,24,26,24,25.8,24.1h-0.1
	c-0.1,0-0.1,0-0.2,0c-0.2,0.1-0.4,0.2-0.6,0.2h-0.1c-0.1,0.1-0.2,0.1-0.2,0.1c-0.2,0.1-0.4,0.1-0.6,0.1c-0.1,0-0.2,0-0.4-0.1
	c-0.2-0.1-0.4-0.3-0.5-0.5c-0.1-0.2-0.2-0.4-0.2-0.6v-0.1l-0.6,0.1L22,23.6h-0.1c-0.1,0-0.1,0-0.2,0c-2.6,0.6-5.1,1.1-7.3,1.4
	c0.5,0.6,1.1,1.1,1.8,1.5c1.7,0.8,3.6,1.3,5.5,1.2l0,0c-1.9,0-3.8-0.4-5.5-1.2c-0.7-0.3-1.3-0.9-1.8-1.5h-0.1
	c0.1,0.2,0.1,0.4,0.2,0.5h-0.1c-0.6,0.4-1.8,1.1-2.6,1.5c-0.4-0.3-0.9-0.3-1.3,0c-0.5,0.3-0.6,1-0.3,1.5c0,0,0,0,0,0
	c0.3,0.6,1.1,0.8,1.6,0.4c0,0,0,0,0,0c0.4-0.3,0.6-0.8,0.4-1.3c0.5-0.5,1-0.9,1.6-1.3c0.2-0.2,0.5-0.3,0.8-0.5
	c0.3,0.6,0.7,1.1,1.2,1.5c-0.2,0.3-0.5,0.9-0.7,1.2c-0.2,0-0.5,0.1-0.6,0.3c-0.1,0.3,0,0.6,0.3,0.7c0,0,0,0,0,0
	c0.3,0.1,0.6,0,0.8-0.3c0.1-0.2,0.1-0.5-0.1-0.6c0.1-0.3,0.2-0.6,0.4-0.9c0-0.1,0.1-0.2,0.2-0.3c0.9,0.9,2,1.5,3.2,1.9L19,30
	c-0.1,0-0.2,0-0.2,0.1c-0.1,0.1,0,0.3,0.1,0.3c0.1,0.1,0.3,0,0.3-0.1c0-0.1,0-0.2-0.1-0.3c0-0.1,0.1-0.3,0.2-0.4v0
	c0.7,0.2,1.5,0.3,2.3,0.3c0.3,0,0.5,0,0.8,0c0,0,0,0.1,0,0.1c0.1,0.5,0.1,1.5,0.1,2c-0.3,0.1-0.5,0.5-0.4,0.8
	c0.1,0.4,0.5,0.7,0.9,0.7c0.4,0,0.8-0.3,0.9-0.7c0-0.4-0.3-0.8-0.7-0.9c-0.1-0.5-0.2-0.9-0.3-1.4c0-0.2,0-0.5-0.1-0.8
	c0.7-0.1,1.4-0.3,2-0.5l0.1,0.3c-0.1,0.1-0.1,0.2,0,0.2c0.1,0.1,0.2,0.1,0.3,0.1c0.1,0,0.1-0.2,0.1-0.3c0,0,0,0,0,0
	c0-0.1-0.1-0.1-0.2-0.1c-0.1-0.1-0.1-0.2-0.2-0.2c1.4-0.6,2.6-1.6,3.5-2.8c0.2,0.2,0.4,0.4,0.5,0.6c-0.1,0.1,0,0.3,0.1,0.4
	c0.1,0.1,0.4,0.2,0.5,0c0,0,0,0,0,0c0.1-0.1,0.1-0.4,0-0.5c0,0,0,0,0,0c-0.1-0.1-0.3-0.1-0.5-0.1c-0.2-0.1-0.4-0.3-0.5-0.4l-0.1-0.1
	c0.3-0.5,0.6-1,0.8-1.6c0.1-0.2,0.1-0.4,0.2-0.6V24l0.2,0.1c0.4,0.1,1.1,0.5,1.6,0.7c0,0.3,0.2,0.5,0.4,0.6c0.3,0.1,0.7,0,0.9-0.4
	C32.7,24.7,32.5,24.3,32.2,24.1C32.2,24.2,32.2,24.2,32.2,24.1z"/>
<path class="st0" d="M13.9,21.9L13.9,21.9L13.9,21.9z"/>
<path class="st0" d="M16.7,19.8l-0.2-0.3l-2.8-3.8l-3,2.3l3.2,3.9l0,0l0.3,0c0.6-0.1,1.3-0.2,2-0.3l-0.8-1.1l0.6-0.4l0.8,1.2
	l-0.4,0.3c1.6-0.3,3.3-0.6,5-1l0.8-0.2h0.1l0,0v-1.9h1.1v0.2v0.8c0.2-0.1,0.3-0.2,0.5-0.3c0.1,0,0.2-0.1,0.3-0.1l0,0v-0.3v-1.3
	l0.1-0.4l0.9,0.4l-0.6,1.5l-0.1,0.3h0.1l0.2,0.1l0.1,0c0,0,0.1,0,0.1,0l0,0h0.1l0,0c0.1,0,0.1-0.1,0.2-0.1l0,0l0.1-0.2l0.5-1.4
	l1,0.4l-0.6,1.3H27h0.4c0-0.1,0.1-0.2,0.2-0.3c0.1-0.1,0.3-0.2,0.4-0.3l0.1,0l0.2-0.2c0.1-0.2,0.3-0.3,0.4-0.5c0,0,0.1-0.1,0.1-0.1
	c0.1-0.2,0.3-0.4,0.5-0.5h0.1l0,0c0.1-0.1,0.3-0.1,0.4-0.1h0.1h0.3l0.6,0.1h0.1H31h0.1l0.6-0.6l0.5,0.5l0.5-0.2l0.3-0.1l-2.2-2l0,0
	l-0.1-0.1l-3.3,4l3.4-8.4l-4.2-1.6l-2.2,6.5L24.7,3h-5.9l0.4,12.8l-2.8-8.6l-4.1,1.4l4.1,11L16.7,19.8z M12,18.3l0.6-0.5l0.9,1.2
	L13,19.5L12,18.3z M14.1,20.9l-1-1.1l0.6-0.5l0.9,1.2L14.1,20.9z M15.1,20.1L14.2,19l0.6-0.5l0.8,1.2L15.1,20.1z M27.9,15.1
	l-0.8-0.3l0.7-1.8l0.9,0.4L27.9,15.1z M26.9,10l0.9,0.4l-0.7,1.9L26.4,12L26.9,10z M25.2,14.6l0.9,0.4l-0.7,1.9l-0.8-0.3L25.2,14.6z
	 M22.2,4.1h1.1l-0.1,2.3h-1L22.2,4.1z M22.2,7h1.1l-0.1,2.3h-1L22.2,7z M22.2,9.8h1.1l-0.1,2.3h-1L22.2,9.8z M22.2,15.5h1.1
	l-0.1,2.3h-1L22.2,15.5z M17.7,21.1l-0.7-1.8l-0.1-0.1l1-0.4l0.1,0.2l0.6,1.8L17.7,21.1z M21.3,4.2v2.3h-1l-0.1-2.3H21.3z M21.3,9.9
	v2.3h-1l-0.1-2.3H21.3z M21.3,12.7V15h-1l-0.1-2.3L21.3,12.7z M19.3,17.7L19.3,17.7l-0.9,0.4l-0.7-2l1-0.4L19.3,17.7z M18.5,15.3
	l-0.9,0.3l-0.7-2l1-0.3L18.5,15.3z M17.1,10.8l0.6,2l-0.9,0.3l-0.7-2L17.1,10.8z M14.2,11.3l-0.8-2l1-0.3l0.7,2L14.2,11.3z
	 M15.1,14.3l1-0.4l0.7,2l-0.9,0.3L15.1,14.3z"/>
<path class="st0" d="M29.3,17.3L29.3,17.3z"/>
<path class="st0" d="M26.6,6.9c0.6,0.3,1.2,0.4,1.9,0.4c1.5,0,2.8-0.6,2.8-1.4S30,4.4,28.5,4.4S25.7,5,25.7,5.8
	c0,0.3,0.1,0.5,0.3,0.7c0.1,0.1-0.6,0.5-0.5,0.6S26.5,6.8,26.6,6.9z"/>
<path class="st0" d="M10.3,11.4c0.4,0,0.7-0.1,1.1-0.2c0.1,0,0.6,0.2,0.6,0.1S11.7,11,11.8,11c0.1-0.1,0.2-0.2,0.2-0.4
	c0-0.4-0.7-0.8-1.6-0.8s-1.6,0.4-1.6,0.8S9.4,11.4,10.3,11.4z"/>
<path class="st0" d="M14.1,24.6c2.3-0.3,4.8-0.8,7.6-1.5l0,0h0c0.1,0,0.4-0.1,1.7-0.4l0.1,0l0.2-0.3c0.1-0.2,0.2-0.3,0.3-0.5
	c0.1-0.1,0.2-0.3,0.2-0.4c0.1-0.1,0.1-0.3,0.2-0.4c0-0.1-0.1-0.1-0.1-0.2c-0.1-0.1-0.1-0.1-0.2-0.2c-0.1-0.1-0.2-0.1-0.3-0.1
	c-0.1,0-0.2-0.1-0.3-0.1h-0.2l-1,0.2h-0.1l-0.8,0.2c-2.5,0.6-5,1.1-7.2,1.4l-0.5,0.1l-1.5,0.2c-1.1,0.1-2.1,0.2-3.2,0.2
	c0.7-0.4,1.7-0.8,2.8-1.2L10.4,20h-0.1c-1,0.4-2,0.9-3,1.4c-0.5,0.3-1.8,1.1-1.5,2.2S7.6,25,8.1,25c1.2,0,2.4,0,3.6-0.1
	C12.5,24.8,13.3,24.7,14.1,24.6z"/>
<path class="st0" d="M38.2,15.9c-0.3-1.2-1.8-1.3-2.3-1.3c-1.3,0-2.6,0-3.8,0.1l2.2,2c0.1,0,0.9-0.1,1-0.1c-0.3,0.2-1.1,0.5-1.6,0.6
	l-0.8,0.3l-1,0.4l-0.4,0.2l-0.1,0c0,0.1,0,0.1,0,0.1c0,0.1-0.1,0.1-0.1,0.2c0,0-0.1,0.1-0.1,0.1l-0.1,0.1c0,0-0.1,0-0.1,0.1h-0.2
	h-0.1h-0.1h-0.3L29.6,19l-0.3,0.2l-0.1,0.1l-0.1,0H29c-0.4,0.2-0.9,0.4-1.3,0.5h-0.2H27h-0.3h-0.3c-0.1,0-0.2,0-0.3,0.1l0,0
	c-0.1,0-0.2-0.1-0.3-0.1h-0.1l-0.1,0l-0.2,0.1h-0.1h-0.1c-0.1,0-0.2,0-0.3-0.1l-0.3-0.1c-0.1,0-0.2,0-0.2,0c-0.1,0-0.2,0-0.2,0
	c-0.1,0.1-0.3,0.1-0.4,0.2c-0.1,0-0.1,0.1-0.2,0.1L23.4,20l0,0l0,0l0,0l0,0l0,0l0,0h0.2c0.1,0,0.3,0.1,0.4,0.1l0,0h0.1
	c0.1,0,0.1,0.1,0.2,0.1c0.1,0.1,0.2,0.1,0.2,0.2c0,0.1,0.1,0.1,0.1,0.2c0.1-0.2,0.1-0.4,0.1-0.4s0,0.1,0,0.3c0,0.2-0.1,0.5-0.2,0.7
	c0,0.1-0.1,0.3-0.2,0.4c-0.1,0.2-0.2,0.4-0.3,0.6L24,22.3l0,0l-0.2,0.3l-0.1,0.1L23.5,23c-0.1,0.1-0.1,0.2-0.1,0.2
	c0,0.1,0,0.2,0.1,0.2c0.1,0.1,0.1,0.1,0.2,0.1c0.2,0,0.3,0,0.5-0.1c0.2-0.1,0.3-0.2,0.4-0.3c0.1-0.1,0.2-0.3,0.3-0.4
	s0.2-0.3,0.3-0.5l0.1-0.1c0-0.1,0.1-0.1,0.1-0.2l0,0l0,0l-0.1,0.2v0.1c-0.1,0.2-0.2,0.4-0.3,0.6c-0.1,0.1-0.2,0.3-0.3,0.4
	c0.2,0,0.3-0.1,0.4-0.2c0.1-0.1,0.3-0.2,0.4-0.3l0.1-0.1l0,0l0,0l0,0l0,0l0,0c0,0,0,0,0,0.1c0,0,0,0,0,0l0,0c0,0,0,0.1,0,0.1
	c0,0.1-0.1,0.1-0.1,0.2l0,0c0.1,0,0.3-0.1,0.4-0.2c0.1-0.1,0.2-0.2,0.3-0.3c0.1-0.1,0.1-0.1,0.2-0.1s0,0.1,0,0.2
	c0,0.1-0.1,0.1-0.1,0.2l0,0l0.2-0.1c0.1-0.1,0.3-0.2,0.4-0.3l0-0.1c0.1-0.1,0.1-0.2,0.2-0.3c0-0.1,0.1-0.2,0.2-0.4
	c0-0.1,0.1-0.1,0.1-0.2l0.1-0.2c0.1-0.1,0.2-0.2,0.3-0.2c0.2-0.1,0.4-0.2,0.5-0.3l0,0l0.3-0.1h-0.1c-0.2-0.1-0.3-0.2-0.4-0.4v-0.1
	l0,0v0c0,0,0-0.1,0-0.1c0,0,0-0.1,0-0.1l0-0.1l0,0l0.1-0.1c0.1,0,0.1,0,0.2,0h0.1L28.6,20c0,0,0-0.1,0-0.1c0-0.1,0-0.1,0-0.2
	c0-0.1,0.1-0.1,0.1-0.2c0,0,0.1-0.1,0.2-0.1c0.2-0.1,0.4-0.1,0.6,0l0.2,0.1v-0.1c0-0.1,0-0.1-0.1-0.2c0,0,0-0.1,0-0.1
	c0,0,0-0.1,0.1-0.1c0.1-0.1,0.1-0.1,0.2-0.1c0.1,0,0.2,0,0.3,0l0.2,0.1c0.2,0.1,0.3,0.1,0.4,0.2l0.4,0.2c0-0.1-0.1-0.2-0.1-0.2
	c0-0.1,0-0.1,0-0.2c0-0.1,0.1-0.1,0.1-0.2c0.1-0.1,0.3-0.2,0.4-0.2c0.1,0,0.2,0,0.3,0h0.1l0.2,0.1c0.1,0.1,0.2,0.3,0.3,0.4l0.3,0.5
	c0.1,0.1,0.1,0.2,0.2,0.3l0.5-0.2c0.6-0.2,1.1-0.4,1.5-0.6c0.6-0.3,1.2-0.6,1.8-0.9C37.2,17.8,38.5,17,38.2,15.9z"/>
<path class="st0" d="M29.8,18.5h0.3h0.2h0.2h0.1h0.1h0.1l0.1-0.1c0,0,0.1-0.1,0.1-0.1l0,0l0,0c0,0,0.1-0.1,0.1-0.1c0,0,0-0.1,0-0.1
	l0,0l0,0l0,0h-0.1h-0.1h-0.1c-0.2,0-0.4-0.1-0.6-0.1h-0.2c0,0-0.1,0-0.1,0c-0.1,0-0.2,0-0.2,0c-0.1,0.1-0.3,0.3-0.4,0.4
	c-0.1,0.2-0.3,0.4-0.5,0.6l-0.3,0.2l-0.1,0.1c-0.2,0.1-0.3,0.2-0.5,0.4c0.4-0.1,0.7-0.2,1-0.4l0.4-0.3l0.4-0.2h0
	c-0.1,0-0.1-0.1-0.2-0.1c0,0,0-0.1,0-0.1s0.1,0,0.2,0.1L29.8,18.5z"/>
<path class="st0" d="M29.6,21.7L29.6,21.7L29.6,21.7c-0.1-0.1-0.1-0.1-0.2-0.2l-0.1-0.1l0,0l-0.2-0.1L29,21.3l-0.3,0.2
	c-0.1,0.1-0.3,0.2-0.5,0.4L28,22h0.2h0.1l0,0h0.5c0.3,0,0.5,0.1,0.7,0.1h0.1L29.5,22c-0.1-0.1-0.1-0.1-0.1-0.1s0.1,0,0.2,0l0,0
	c0.1,0,0.1,0.1,0.2,0.1l0.2,0.2c0.1,0.1,0.2,0.1,0.2,0.2c0.1,0,0.2,0,0.3,0c0.1-0.1,0.2-0.2,0.2-0.3c0.1-0.1,0.2-0.3,0.3-0.4
	c0.1-0.1,0.1-0.1,0.2-0.2l0.2-0.1c0.1,0,0.1,0,0.2-0.1c0,0,0,0,0,0v0c0-0.1,0-0.1,0.1-0.2c0,0,0.1-0.1,0.1-0.1l0.1-0.1L32,21h0l0,0
	c0.1-0.1,0.1-0.1,0.2-0.2l0,0v-0.1c0-0.1-0.1-0.3-0.2-0.4l0,0l0,0c-0.1-0.1-0.1-0.1-0.2-0.2c-0.1-0.1-0.1-0.1-0.2-0.1l-0.4-0.2h-0.1
	l-0.4-0.2c-0.1-0.1-0.3-0.1-0.4-0.2c-0.1-0.1-0.2-0.1-0.3-0.1c0,0-0.1,0-0.1,0l0,0v0.1c0,0,0,0.1,0,0.1l0.1,0.1
	c0.1,0.1,0.1,0.2,0.2,0.3l0,0l0.2,0.1l0.2,0.1l0.2,0.1l0.2,0.1c0.1,0.1,0.2,0.1,0.2,0.2v0l0,0c0.1,0.1,0.1,0.2,0.1,0.2
	s-0.1,0-0.2-0.1l-0.1,0H31l-0.3-0.1l0,0l-0.2-0.1l-0.1,0c-0.1,0-0.2-0.1-0.2-0.1l-0.2-0.1c-0.1-0.1-0.3-0.2-0.4-0.2
	c-0.1,0-0.2,0-0.2,0H29c-0.1,0-0.1,0.1-0.1,0.1l0,0l0,0l0,0L29,20l0.1,0.1l0.2,0.1l0.2,0.1l0.4,0.3H30l0,0l0.1,0.1l0,0
	c0.1,0.1,0.2,0.2,0.3,0.3l0,0c0.1,0.1,0.1,0.2,0.1,0.2s-0.1,0-0.2-0.1L30.1,21l-0.3-0.2l0,0l0,0l0,0l-0.1-0.1l-0.4-0.2l-0.2-0.1H29
	c-0.2,0-0.3,0-0.5,0c0,0-0.1,0-0.1,0l0,0l0,0l0,0l0,0l0,0l0,0.1c0.1,0.1,0.2,0.3,0.4,0.4l0,0l0.2,0.1h0l0.2,0.1l0,0
	c0.1,0.1,0.1,0.2,0.2,0.3c0,0,0,0.1,0,0.1C29.5,21.4,29.6,21.7,29.6,21.7z"/>
<path class="st0" d="M32.9,20.5L32.9,20.5L32.7,20v0v-0.1l-0.1-0.2l-0.2-0.4c-0.1-0.1-0.1-0.3-0.2-0.4c0,0-0.1-0.1-0.1-0.1l0,0h-0.1
	c-0.1,0-0.2,0.1-0.3,0.1c-0.1,0.1-0.1,0.2-0.1,0.2c0,0,0,0.1,0,0.1c0,0,0,0.1,0,0.1c0,0,0,0.1,0,0.1l0.2,0.1
	c0.1,0.1,0.2,0.2,0.3,0.2l0,0c0.1,0.1,0.1,0.1,0.2,0.2v0l0,0c0.1,0.1,0.1,0.3,0.2,0.5l0,0c0,0,0,0.1,0,0.1c0,0.2,0.6-0.1,0.6-0.1
	l0,0l0,0C32.9,20.6,32.9,20.5,32.9,20.5z"/>
</svg>
