<svg id="prefix__Capa_1" data-name="Capa 1" xmlns="http://www.w3.org/2000/svg" viewBox="0 0 192 188.46"><defs><style>.prefix__cls-1{fill:#fff}</style></defs><path class="prefix__cls-1" d="M154.65 130.67a4 4 0 00-4.5 1.14 49 49 0 01-6.7-2c-1.34-.52-2.86-1.2-4.36-1.9a42.16 42.16 0 00.64-5.43l-.15-.12a3.2 3.2 0 01-1-.17l-.19-.06a32.13 32.13 0 00-3.61-.51h-.46l-.78-.06h-.74l-.4-.06a4.41 4.41 0 01-.88-.18l-.35-.13h-.4a3.08 3.08 0 01-.61-.07c-.14.27-.27.54-.38.8s-.37.8-.57 1.16a11.72 11.72 0 01-1.46 2.11.46.46 0 00-.07.07l-.28.3-.08.07a12.6 12.6 0 01-2.9 2.26 15.24 15.24 0 01-1.77.85 3.07 3.07 0 01-2.33 0 8.63 8.63 0 01-2.54.92h-.2a3.15 3.15 0 01-.52 0 3 3 0 01-1.08-.2 8.92 8.92 0 01-3.71 1.23H112a2.88 2.88 0 01-.59-.06 7.93 7.93 0 01-1.38.87 7.15 7.15 0 01-3.26.81 5.82 5.82 0 01-2-.36 5.5 5.5 0 01-2.55-1.94 4.85 4.85 0 01-1-3.34v-.37c-1.62.39-2.74.64-3.55.82s-1.35.31-1.5.37l-.41.16a3 3 0 01-1.06.2c-14.77 3.41-29.2 6.2-41.87 8.11 2.1 3.16 5.54 6.09 10.17 8.58 8.4 4.51 19.59 7 31.52 7h-.05c-11.93 0-23.11-2.49-31.5-7-4.62-2.49-8.05-5.41-10.15-8.58l-.4.07c.41 1 .86 2 1.34 3l-.29.19c-3.4 2.3-10.44 6.39-14.85 8.91a6.92 6.92 0 00-7.54.09 6.22 6.22 0 00-1.6 8.89 6.83 6.83 0 009.27 1.53 6.23 6.23 0 002.46-7.27 79.51 79.51 0 019.25-7.37c1.34-.91 2.86-1.87 4.45-2.82a43.25 43.25 0 006.71 8.82c-.93 1.81-2.89 5.1-4.15 7.16a3.34 3.34 0 00-3.24 1.78 3.11 3.11 0 001.54 4.22 3.36 3.36 0 004.4-1.47 3.07 3.07 0 00-.76-3.72 37.23 37.23 0 012.16-5.33c.28-.56.6-1.15.94-1.76a45.49 45.49 0 0018.31 10.72c-.44.77-1 1.72-1.45 2.37a1.43 1.43 0 00-1.4.75 1.33 1.33 0 00.63 1.83 1.46 1.46 0 001.91-.61 1.33 1.33 0 00-.31-1.61 16.5 16.5 0 011-2.28 2.69 2.69 0 01.16-.29 47.14 47.14 0 0013.22 1.88c1.54 0 3-.07 4.55-.22 0 .29.08.56.11.81.33 2.78.59 8.31.73 11.76a4.42 4.42 0 00-2.47 4.47 4.63 4.63 0 005.17 3.93 4.45 4.45 0 00.25-8.85 51.68 51.68 0 01-1.63-7.93c-.17-1.34-.29-2.85-.37-4.39a46.56 46.56 0 0011.46-3.06l.83 1.53a1.11 1.11 0 00-.06 1.29 1.22 1.22 0 001.63.37 1.12 1.12 0 00.39-1.56 1.24 1.24 0 00-1.33-.51 15.12 15.12 0 01-1-1.31 44.9 44.9 0 0019.83-16.24c1 1 2.27 2.43 3.14 3.39a2.07 2.07 0 00.47 2.36 2.28 2.28 0 003.14 0 2.06 2.06 0 000-3 2.29 2.29 0 00-2.63-.35 25.86 25.86 0 01-3.07-2.47c-.19-.19-.39-.38-.59-.59a42.35 42.35 0 004.5-9.28 12.83 12.83 0 001.07-3.69c0-.22.11-.44.16-.66l1.29.47c2.25.87 6.56 2.9 9.25 4.17a3.72 3.72 0 002.42 3.52 3.93 3.93 0 005-2.06 3.66 3.66 0 00-2.17-4.87zM49.69 117.7h.07v-.07s-.06.05-.07.07z"/><path class="prefix__cls-1" d="M66 105.89L64.59 104 48.76 82.1 31.51 95.37l18.2 22.25v.07l1.8-.27c3.63-.57 7.43-1.21 11.32-1.92l-4.79-6.23 3.35-2.57 4.78 6.93-2.16 1.66c9.11-1.67 18.77-3.68 28.54-6l4.42-1 .81-.2h.19V97.88h6.63l-.01 1.12-.22 4.36a12.3 12.3 0 012.89-1.53 7.2 7.2 0 012-.38l-.21-.08.06-1.75.26-7.68.73-2.31 5.35 2-3.22 8.56-.62 1.63.44.16c.32.13.64.28 1 .44.19.1.39.19.6.28a2.49 2.49 0 00.77.24h.06c.09 0 .25-.11.44-.2h.08a7.22 7.22 0 011.22-.47h.16l.34-.89 3-8 5.35 2-3.34 7.64v.06H123.08c.66 0 1.28 0 1.91-.08.78 0 1.6-.12 2.51-.23a3.08 3.08 0 011.32-1.62 17 17 0 002.33-1.69l.34-.29c.38-.33.8-.75 1.3-1.27a22.36 22.36 0 002.31-2.83c.17-.24.31-.47.45-.69a7.45 7.45 0 012.6-2.76l.4-.19.06-.07a6.4 6.4 0 012.39-.49h.09a5.44 5.44 0 01.57 0h.1a15.26 15.26 0 011.55.17c1.19.17 2.39.4 3.67.68l.47.11.74.18.42.11 3.3-3.74L155 91l3-1.13 1.68-.67-12.98-11.42-.83-.73-19 22.7 19.74-48-24-9-12.87 37.52 2.41-70.87H78.53L81 82.63 65 32.92 41.8 41l23.36 62.8zm-26.72-8.53l3.35-2.57 5.13 6.66-3 2.32zm11.85 14.69l-5.48-6.4 3.35-2.58 5.12 6.67zm5.71-4.39L51.71 101l3.36-2.58 4.78 6.93zm73.65-28.41l-4.8-1.81 4-10.63 5.34 2zM125 50l5.34 2-4 10.63-4.8-1.8zm-10 26.42l5.34 2L116.4 89l-4.8-1.8zM98 16h6.63L104 29.16h-6zm0 16.38h6.63L104 45.54h-6zm0 16.38h6.63L104 61.92h-6zm0 32.74h6.63L104 94.69h-6zm-26.49 31.71l-4.18-10.31-.33-.9 5.72-2 .36 1 3.58 10.35zM92.67 16v13.16h-6L86 16zm0 32.76v13.16h-6L86 48.74zm0 16.38v13.17h-6L86 65.12zm-11.28 28.4V94l-5 1.74-4-11.38 5.72-2zM76.6 79.77l-5.13 1.78-4-11.38 5.72-2zm-8.25-25.72l3.35 11.59-5.13 1.77L62.63 56zm-16.43 2.61l-4.53-11.18 5.72-2 3.94 11.38zm5.26 17.1l5.72-2 3.95 11.38-5.14 1.78zM138.55 91.27h.09z"/><path class="prefix__cls-1" d="M123 31.5a26 26 0 0010.62 2.07c8.77 0 15.88-3.61 15.88-8.08s-7.11-8.08-15.88-8.08S117.7 21 117.7 25.49a5.31 5.31 0 001.91 3.85c.47.45-3.46 3.13-2.84 3.52s5.58-1.64 6.23-1.36zM29.49 57.37a15.05 15.05 0 006.16-1.2c.36-.16 3.29 1 3.59.79s-1.92-1.78-1.65-2a3.07 3.07 0 001.11-2.23c0-2.59-4.12-4.69-9.21-4.69s-9.21 2.1-9.21 4.69 4.13 4.64 9.21 4.64zM51.3 133.09c13-1.93 27.85-4.79 43.33-8.37v.07l.1-.05.33-.13c.78-.29 2.29-.48 9.86-2.38l.5-.25 1.31-1.81c.67-1 1.27-1.87 1.8-2.75a26.26 26.26 0 001.25-2.36 18.76 18.76 0 00.93-2.37 4.9 4.9 0 00-.78-1.21 5.2 5.2 0 00-1.15-1 7.06 7.06 0 00-1.66-.75 9.51 9.51 0 00-1.72-.35l-1.37.33-5.49 1.36-.81.2c-1.48.36-3 .71-4.44 1-14.57 3.41-28.76 6.2-41.27 8.14l-2.7.41c-2.92.44-5.75.82-8.45 1.15a172.19 172.19 0 01-18.51 1.44 168.26 168.26 0 0116.2-6.81l-8.88-9.86-.54.21a106.44 106.44 0 00-17.33 8.13c-2.79 1.68-10.2 6.16-8.57 12.93s10.27 7.39 13.52 7.61a124.88 124.88 0 0020.63-.81c4.34-.4 9-.99 13.91-1.72z"/><path class="prefix__cls-1" d="M189.51 83.19c-1.63-6.78-10.27-7.38-13.52-7.61a161.22 161.22 0 00-22 .8l12.76 11.55c.59 0 5.33-.78 5.89-.78-2 1-6.43 2.66-9 3.73q-2.14.9-4.56 1.85c-1.83.73-3.77 1.46-5.82 2.22l-2.5.89-.83.3a2.89 2.89 0 01-.31.87 4.19 4.19 0 01-.66.9c-.22.22-.43.41-.66.6a5 5 0 01-.74.5 2.81 2.81 0 01-.88.33 2.45 2.45 0 01-.93 0c-.28 0-.51-.1-.72-.14a4.09 4.09 0 00-.58-.09h-1.83l-2.68 1.76-1.53 1-.78.51-.39.26-.42.26a20.92 20.92 0 01-7.63 2.59l-1.25.15c-.93.11-1.85.2-2.76.25l-2 .09h-2a8.33 8.33 0 01-2-.32 16.46 16.46 0 00-1.63-.55 1.37 1.37 0 00-.57 0 4.48 4.48 0 00-.71.28 7.67 7.67 0 01-.89.38 3.39 3.39 0 01-.55.13 3.52 3.52 0 01-.56 0 5.31 5.31 0 01-1.93-.49c-.55-.24-1-.5-1.5-.69a3.53 3.53 0 00-1.32-.32 3.69 3.69 0 00-1.3.21 10.37 10.37 0 00-2.43 1.35 8.86 8.86 0 00-1 .81 3.86 3.86 0 00-.38.44l-.16.23-.07.12a1 1 0 000 .1.14.14 0 000 .06v.06a.34.34 0 000 .1.19.19 0 000 .07.2.2 0 00.09.09h.35l.62.08a10.77 10.77 0 012.22.56 8.25 8.25 0 011.8 1 5.87 5.87 0 011.21 1.24 5.72 5.72 0 01.5.88c.38-1.33.47-2.15.62-2.14s.22.55.18 1.55a13.74 13.74 0 01-.89 4.11 19.62 19.62 0 01-1 2.21A31.94 31.94 0 01108 121l-.36.55-1.25 1.82c-.14.19-.28.38-.41.58-.36.5-.73 1-1.08 1.54a3.35 3.35 0 00-.62 1.41 1.89 1.89 0 00.4 1.28 2.48 2.48 0 001.13.85 3.7 3.7 0 002.86-.31 7.32 7.32 0 002.24-1.9c.62-.74 1.16-1.52 1.64-2.22.69-1 1.24-1.92 1.68-2.65l.47-.8c.26-.42.46-.75.61-1s.24-.3.29-.28 0 .09 0 .23a7.4 7.4 0 01-.36 1.28l-.13.36a25.55 25.55 0 01-1.61 3.42 24.24 24.24 0 01-1.51 2.38 5.93 5.93 0 002.55-.88 15.69 15.69 0 002.29-1.9c.14-.14.28-.26.41-.37l.18-.14.13-.09a1 1 0 00.18-.1c.05 0 .08-.08.13-.11s.12 0 .19.06a.61.61 0 01.08.42 2.33 2.33 0 01-.07.25 2.09 2.09 0 01-.08.23 5.71 5.71 0 01-.24.54 7.84 7.84 0 01-.67 1h.14a5.62 5.62 0 002.19-1 15.48 15.48 0 001.92-1.75c.51-.51.9-.82 1.1-.7s.16.61-.14 1.33a5.66 5.66 0 01-.69 1.2l-.09.12a13.49 13.49 0 001.41-.68 9.7 9.7 0 002.21-1.72c.11-.11.22-.21.32-.33a8.46 8.46 0 001.08-1.56c.31-.58.58-1.26 1-2a7.87 7.87 0 01.67-1.06 7.19 7.19 0 01.81-.91 12.38 12.38 0 011.72-1.38 20.79 20.79 0 013.14-1.77c.61-.27 1.14-.48 1.6-.63-.12-.07-.23-.16-.35-.24a11.89 11.89 0 01-2.4-2.23 5.89 5.89 0 01-.31-.39l-.17-.23-.16-.29a1.81 1.81 0 01-.18-.8 1.86 1.86 0 01.2-.77 1.71 1.71 0 01.29-.4.77.77 0 01.15-.16 2 2 0 01.55-.37 3.17 3.17 0 011-.26 5.72 5.72 0 01.82 0h.1-.06a1.68 1.68 0 01-.32-.33 1.71 1.71 0 01-.31-.6 1.86 1.86 0 01.07-1.3 2.66 2.66 0 01.64-.92 3 3 0 01.89-.62 5.21 5.21 0 013.68 0 7 7 0 011 .43c-.06-.13-.13-.25-.19-.38a4.07 4.07 0 01-.33-1.16 2.07 2.07 0 01.38-1.51 2.48 2.48 0 011.34-.87 3.45 3.45 0 011.53 0 8.79 8.79 0 011.32.36 18 18 0 012.53 1.08c.76.38 1.47.78 2.15 1.17a5.22 5.22 0 01-.36-1.39 3.15 3.15 0 01.06-1.17 3.06 3.06 0 01.58-1.17 3.61 3.61 0 012.46-1.35 3.26 3.26 0 011.61.26l.3.16a4 4 0 011 .79 11 11 0 011.57 2.49c.23.44.89 1.54 1.56 2.69l1 1.76c1-.39 2.08-.78 3.08-1.17q4.8-1.86 8.74-3.61a91.55 91.55 0 0010-5.07c2.81-1.6 10.23-6.04 8.59-12.85z"/><path class="prefix__cls-1" d="M141.44 98.1a4.21 4.21 0 00.73.07 8 8 0 001-.07 10.93 10.93 0 011.1-.1h.24a5.34 5.34 0 01.69 0c.23 0 .45.07.64.08a1.41 1.41 0 00.51 0 1.71 1.71 0 00.5-.23 4.53 4.53 0 00.52-.4c.17-.16.35-.33.51-.51l.11-.13.07-.09a1.81 1.81 0 00.37-.84 1.06 1.06 0 00-.07-.48l-.06-.1v-.06a.65.65 0 00-.15-.12 2.78 2.78 0 00-.66-.22l-.74-.18h-.14l-.28-.06c-1.11-.25-2.25-.47-3.44-.65-.45-.06-.88-.11-1.29-.13h-.52a3.07 3.07 0 00-1.45.34c-.78.41-1.3 1.52-2 2.5a26.1 26.1 0 01-2.63 3.15c-.51.53-1 1-1.49 1.45l-.39.33a20.77 20.77 0 01-2.74 2 18.31 18.31 0 005.6-2.08l2.47-1.58 2.16-1.37a2.4 2.4 0 01-.32-.17 3.75 3.75 0 01-.9-.77c-.17-.21-.22-.35-.18-.39s.51.27 1.36.59a5.18 5.18 0 00.87.22zM139.87 116.73c-.05 0-.1 0-.16-.09s-.2-.24-.37-.43a4.93 4.93 0 00-.69-.63c-.16-.12-.33-.23-.52-.35l-.16-.09c-.33-.19-.71-.38-1.15-.59l-.63-.32-1.84 1.16c-.83.53-1.79 1.19-2.81 2q-.42.31-.81.66a1.89 1.89 0 01.41-.1 1.39 1.39 0 01.63 0 2.3 2.3 0 01.48.21.76.76 0 00.22.1 2.14 2.14 0 00.53.09h.76l.82.06h.48a35.86 35.86 0 014 .57l.53.16c-.19-.25-.36-.46-.51-.62-.41-.45-.71-.66-.66-.77s.44-.08 1.05.27l.09.06a6.9 6.9 0 01.89.7c.35.32.72.71 1.11 1.07a4.51 4.51 0 001.36.89 1.6 1.6 0 001.46-.12 4.33 4.33 0 001.33-1.48 12.49 12.49 0 011.51-2.26 4.05 4.05 0 011.3-.94 9.35 9.35 0 011.3-.43 3.89 3.89 0 00.92-.37.86.86 0 00.26-.14 1.1 1.1 0 00.18-.31c.13-.27.21-.66.45-1.1a2.08 2.08 0 01.51-.61 2 2 0 01.64-.36c.41-.14.72-.18.95-.26a1.1 1.1 0 00.29-.12 1.5 1.5 0 00.25-.19 11.2 11.2 0 00.89-1.17l.06-.07-.13-.46a7.12 7.12 0 00-1.24-2.3c0-.06-.09-.11-.13-.16l-.29-.33a10.19 10.19 0 00-1.36-1.2c-.37-.28-.78-.55-1.22-.82-.64-.39-1.35-.77-2.1-1.18l-.36-.19c-.64-.35-1.29-.7-1.95-1a22.17 22.17 0 00-2.33-1 4.07 4.07 0 00-2-.37 1.07 1.07 0 00-.58.3.61.61 0 00-.13.22 1.3 1.3 0 000 .31 3.07 3.07 0 00.16.8 5.27 5.27 0 00.33.76 5.58 5.58 0 001.38 1.67l.22.13c.36.21.72.39 1.09.57l1.17.53.94.44c.39.18.75.37 1.09.57a8 8 0 011.43 1.06 3.25 3.25 0 01.26.27l.09.11c.54.66.65 1.13.56 1.17s-.39-.27-1-.72a4 4 0 00-.43-.3l-.37-.21a12.88 12.88 0 00-1.89-.83l-.19-.07-1.41-.5-.78-.29c-.4-.16-.82-.34-1.24-.55s-.83-.44-1.23-.68a14.33 14.33 0 00-2.49-1.22 5 5 0 00-1.31-.24h-.11a3.08 3.08 0 00-.53 0H136.57a1.43 1.43 0 00-.7.67.34.34 0 000 .23.36.36 0 00.15.2c.12.1.35.25.56.39l.61.42 1.19.81 1.23.86c.85.59 1.65 1.15 2.36 1.68l.31.24.18.14c.18.14.35.27.51.41l.19.15a15.05 15.05 0 011.65 1.62c0 .06.11.12.15.18.51.65.7 1.07.62 1.14s-.44-.21-1.06-.69c-.24-.18-.53-.4-.86-.63-.5-.36-1.09-.76-1.79-1.2h-.06l-.14-.09-.2-.12-.81-.49-2.06-1.27c-.34-.21-.68-.41-1-.64l-.7-.14a8.39 8.39 0 00-2.61 0 1.55 1.55 0 00-.55.17.45.45 0 00-.15.11.51.51 0 00-.09.13.17.17 0 000 .08v.08a2.24 2.24 0 00.17.25c.08.1.17.22.27.33a14.14 14.14 0 002.22 2.17l.16.13c.33.25.64.46 1 .68l.11.07.13.09a10.87 10.87 0 011.13.81 2.85 2.85 0 01.26.23 3.75 3.75 0 011 1.48 1.4 1.4 0 01.07.6c-.02.26-.1.34-.15.35z"/><path class="prefix__cls-1" d="M158.8 109.47l-.23-.47-1-2-.17-.33-.2-.38-.75-1.44-1.32-2.54a10.71 10.71 0 00-1.31-2.16 2.63 2.63 0 00-.78-.62h-.15a1.74 1.74 0 00-.68-.12 2.31 2.31 0 00-1.55.72 2 2 0 00-.53 1.41 4.91 4.91 0 00.08.86c0 .23.09.44.14.64s.12.45.18.64c.4.25.8.49 1.17.75a12.43 12.43 0 011.83 1.48 8.2 8.2 0 011.09 1.32c.06.09.12.18.17.27l.06.09a5.76 5.76 0 01.86 2.76v.06a3.28 3.28 0 01-.05.6c0 1.19 3.27-.72 3.3-.76a.35.35 0 00.04-.25.43.43 0 000-.17z"/></svg>