<svg id="Capa_1" data-name="Capa 1" xmlns="http://www.w3.org/2000/svg" viewBox="0 0 141.45 141.45"><defs><style>.cls-1{fill:#ed2b59;}.cls-2{fill:#7efc7e;}.cls-3,.cls-4{fill:none;}.cls-4{stroke:#000;stroke-linecap:round;stroke-linejoin:round;stroke-width:0;}</style></defs><title>Icono_Insuficiencia_Respiratoria_SiÌntomas</title><path class="cls-1" d="M70.72,141.45a70.73,70.73,0,1,1,70.73-70.73A70.81,70.81,0,0,1,70.72,141.45ZM70.72,10a60.73,60.73,0,1,0,60.73,60.72A60.79,60.79,0,0,0,70.72,10Z"/><path class="cls-2" d="M108.39,87a.38.38,0,0,0-.47-.22.34.34,0,0,0-.24.35,4,4,0,0,1-.6.26l-.25.08a2.34,2.34,0,0,0-.23-.59l.3-.3a.17.17,0,0,0,.19,0,.17.17,0,0,0,0-.25.18.18,0,0,0-.25,0,.17.17,0,0,0,0,.21,2.34,2.34,0,0,1-.19.26s0,0,0,0a2.63,2.63,0,0,0-.81-.85.46.46,0,0,1,.07-.07.1.1,0,0,0,.09,0,.07.07,0,0,0,0-.11.08.08,0,0,0-.11,0,.09.09,0,0,0,0,.09l-.06.08a2.67,2.67,0,0,0-.69-.3l-.26-.06c0-.15.09-.45.13-.64a.26.26,0,0,0,.2-.2.26.26,0,0,0-.22-.29.25.25,0,0,0-.29.21.23.23,0,0,0,.15.26,4.05,4.05,0,0,1,0,.45c0,.06,0,.13,0,.2a2.58,2.58,0,0,0-.68,0v-.06a.06.06,0,0,0,0-.07.06.06,0,0,0-.12,0,.05.05,0,0,0,.06,0,.14.14,0,0,1,0,.06,2.55,2.55,0,0,0-1.29.59l-.1-.17a.12.12,0,0,0,0-.14.14.14,0,0,0-.17,0,.12.12,0,0,0,0,.16.13.13,0,0,0,.14.06.61.61,0,0,1,.11.14v0a2.75,2.75,0,0,0-.52.65l0,0-.66-.53a.23.23,0,0,0-.08-.23.22.22,0,0,0-.3,0,.21.21,0,0,0,0,.29.21.21,0,0,0,.26,0c.09,0,.44.29.56.38l.18.15a2.67,2.67,0,0,0-.2.52,2.15,2.15,0,0,0-.09.61h-.13a.1.1,0,0,0-.1-.08.12.12,0,0,0-.14.11.14.14,0,0,0,.11.13.13.13,0,0,0,.13-.08l.13,0a3.31,3.31,0,0,0,0,.55h0c-.21.07-.65.19-.92.26a.39.39,0,0,0-.41-.11.34.34,0,0,0-.21.45.37.37,0,0,0,.47.22.34.34,0,0,0,.24-.35,4,4,0,0,1,.6-.26l.27-.08a2.42,2.42,0,0,0,.23.58l-.32.31a.17.17,0,0,0-.18.29.19.19,0,0,0,.26,0,.17.17,0,0,0,0-.21,1.65,1.65,0,0,1,.19-.25l.06-.07a2.56,2.56,0,0,0,.82.85l-.09.08a.1.1,0,0,0-.09,0,.07.07,0,0,0,0,.11.08.08,0,0,0,.11,0,.07.07,0,0,0,0-.09l.08-.1a2.61,2.61,0,0,0,.7.31l.24.05h0c0,.15-.09.45-.13.64a.25.25,0,0,0,0,.49.25.25,0,0,0,.29-.2.24.24,0,0,0-.15-.27,4.05,4.05,0,0,1,0-.45c0-.06,0-.13,0-.2a2.5,2.5,0,0,0,.67,0l0,.06a.06.06,0,0,0,0,.07.06.06,0,0,0,.12,0,.07.07,0,0,0-.06,0l0-.06a2.53,2.53,0,0,0,1.3-.58c0,.06.08.15.11.2a.12.12,0,0,0,0,.14.14.14,0,0,0,.17,0,.11.11,0,0,0,0-.16.12.12,0,0,0-.13-.06.84.84,0,0,1-.13-.17v0a3.07,3.07,0,0,0,.53-.65l0,0,.43.36a.21.21,0,0,0,.08.23.22.22,0,0,0,.3,0,.2.2,0,0,0,0-.29.2.2,0,0,0-.25,0,2.87,2.87,0,0,1-.33-.21l-.18-.14a2.27,2.27,0,0,0,.22-.53,2.94,2.94,0,0,0,.09-.83l.12,0a.12.12,0,0,0,.1.09.12.12,0,0,0,.14-.1.11.11,0,0,0-.1-.13.14.14,0,0,0-.13.06.65.65,0,0,1-.14,0,1.88,1.88,0,0,0,0-.33c.23-.08.65-.19.91-.25a.39.39,0,0,0,.41.1A.34.34,0,0,0,108.39,87Z"/><path class="cls-2" d="M95.66,81.51a.21.21,0,0,0-.26-.12.18.18,0,0,0-.12.19,1.48,1.48,0,0,1-.33.14l-.13,0a1.2,1.2,0,0,0-.13-.31l.16-.16a.11.11,0,0,0,.11,0,.09.09,0,0,0,0-.13.1.1,0,0,0-.14,0,.09.09,0,0,0,0,.11.94.94,0,0,1-.1.14l0,0a1.19,1.19,0,0,0-.44-.45l0,0h0a0,0,0,0,0,0-.06,0,0,0,0,0-.06,0s0,0,0,.05l0,0a1.56,1.56,0,0,0-.37-.17l-.14,0a2.58,2.58,0,0,1,.07-.34.12.12,0,0,0,.1-.11.14.14,0,0,0-.11-.16.14.14,0,0,0-.16.12.13.13,0,0,0,.08.14,1.1,1.1,0,0,1,0,.24.52.52,0,0,1,0,.11,1.09,1.09,0,0,0-.36,0v0s0,0,0,0,0,0,0,0,0,0,0,0l0,0v0a1.34,1.34,0,0,0-.69.32.7.7,0,0,0-.06-.09.07.07,0,0,0-.08-.1.07.07,0,0,0,0,.09.08.08,0,0,0,.07,0,.22.22,0,0,1,.06.07v0a1.3,1.3,0,0,0-.28.34h0a4.57,4.57,0,0,1-.36-.29.12.12,0,0,0-.05-.12.11.11,0,0,0-.16,0,.11.11,0,0,0,0,.16.11.11,0,0,0,.13,0l.31.2a.39.39,0,0,0,.1.08,1,1,0,0,0-.11.28,1.26,1.26,0,0,0-.05.33H92A.06.06,0,0,0,92,82s-.07,0-.07.06,0,.07.06.07a.08.08,0,0,0,.07,0h.07a1.36,1.36,0,0,0,0,.29h0l-.5.13a.22.22,0,0,0-.22-.05.18.18,0,0,0-.12.24.21.21,0,0,0,.26.12.21.21,0,0,0,.13-.19,2,2,0,0,1,.32-.14l.14,0a1.37,1.37,0,0,0,.13.31L92.1,83A.11.11,0,0,0,92,83a.09.09,0,0,0,0,.13.1.1,0,0,0,.15-.12l.1-.13,0,0a1.35,1.35,0,0,0,.43.46l0,0h-.05a0,0,0,0,0,0,.06s.05,0,.06,0,0,0,0,0l0,0a1.22,1.22,0,0,0,.37.16.35.35,0,0,0,.14,0h0c0,.08,0,.24-.08.34a.14.14,0,0,0-.1.11.14.14,0,0,0,.12.16.13.13,0,0,0,.15-.11.14.14,0,0,0-.08-.15,1.15,1.15,0,0,1,0-.24.52.52,0,0,1,0-.11,1.09,1.09,0,0,0,.36,0v0s0,0,0,0,0,0,0,0,0,0,0,0a0,0,0,0,0,0,0v0a1.41,1.41,0,0,0,.7-.32l.06.12a.06.06,0,0,0,0,.07.07.07,0,0,0,.09,0,.05.05,0,0,0,0-.08.07.07,0,0,0-.07,0l-.07-.09h0a1.6,1.6,0,0,0,.28-.35h0l.23.2a.11.11,0,0,0,0,.12.11.11,0,0,0,.16,0,.11.11,0,0,0,0-.16A.12.12,0,0,0,95,83a1.2,1.2,0,0,1-.17-.11l-.1-.08a1.39,1.39,0,0,0,.12-.28,1.38,1.38,0,0,0,0-.45l.07,0a.12.12,0,0,0,0,0,.08.08,0,0,0,.08-.06A.06.06,0,0,0,95,82a.06.06,0,0,0-.07,0h-.08a1.11,1.11,0,0,0,0-.19l.49-.13a.2.2,0,0,0,.21.06A.19.19,0,0,0,95.66,81.51Z"/><path class="cls-2" d="M54.86,85.47a.21.21,0,0,0-.25-.12.18.18,0,0,0-.13.19,2.18,2.18,0,0,1-.33.14l-.13,0a1.27,1.27,0,0,0-.13-.32,1.21,1.21,0,0,0,.16-.16.09.09,0,0,0,.11,0,.09.09,0,0,0,0-.13.1.1,0,0,0-.14,0,.1.1,0,0,0,0,.12l-.1.13,0,0a1.29,1.29,0,0,0-.44-.46l0,0a0,0,0,0,0,0,0,0,0,0,0,0,0,0s-.05,0-.06,0a0,0,0,0,0,0,0l0,0a1.53,1.53,0,0,0-.37-.16l-.14,0c0-.08.05-.25.07-.35a.14.14,0,0,0,.11-.1A.15.15,0,0,0,53,84.1a.14.14,0,0,0-.16.11.13.13,0,0,0,.08.14,1.19,1.19,0,0,1,0,.25.44.44,0,0,1,0,.1,2.16,2.16,0,0,0-.36,0v0s0,0,0,0a.05.05,0,0,0,0,0s0,0,0,0a0,0,0,0,0,0,0v0a1.37,1.37,0,0,0-.69.32l-.06-.1a.06.06,0,0,0,0-.07.07.07,0,0,0-.09,0,.05.05,0,0,0,0,.08.05.05,0,0,0,.07,0,.55.55,0,0,1,.06.08h0a1.35,1.35,0,0,0-.28.35h0c-.06,0-.3-.23-.36-.29a.14.14,0,0,0,0-.12.12.12,0,0,0-.17,0,.1.1,0,0,0,0,.15.11.11,0,0,0,.14,0l.3.2.1.08a1,1,0,0,0-.11.28,1.26,1.26,0,0,0-.05.33h-.07a.07.07,0,0,0-.06,0,.07.07,0,0,0,0,.13.1.1,0,0,0,.07,0h.07a1.36,1.36,0,0,0,0,.29h0l-.5.14a.23.23,0,0,0-.22-.06.2.2,0,0,0-.12.25.2.2,0,0,0,.26.11.19.19,0,0,0,.13-.19l.32-.14.14,0a1.44,1.44,0,0,0,.13.31c0,.05-.12.12-.17.17a.11.11,0,0,0-.11,0,.09.09,0,0,0,0,.13.11.11,0,0,0,.14,0,.09.09,0,0,0,0-.11.94.94,0,0,1,.1-.14l0,0a1.38,1.38,0,0,0,.44.46l0,0a0,0,0,0,0-.05,0,.06.06,0,0,0,0,.06.06.06,0,0,0,.06,0s0,0,0,0l0-.06a1.24,1.24,0,0,0,.37.17l.14,0h0c0,.08-.05.24-.08.34a.13.13,0,0,0-.1.11.13.13,0,0,0,.12.15.12.12,0,0,0,.15-.11.13.13,0,0,0-.08-.14c0-.06,0-.15,0-.24a.43.43,0,0,1,0-.11h.36v0s0,0,0,0,0,0,0,0,0,0,0,0l0,0v0a1.41,1.41,0,0,0,.7-.32l.06.11a.06.06,0,0,0,0,.07.07.07,0,0,0,.09,0,.07.07,0,0,0,0-.09.06.06,0,0,0-.07,0l-.07-.09v0a1.16,1.16,0,0,0,.28-.34h0l.23.19a.11.11,0,0,0,0,.12.11.11,0,0,0,.16,0,.1.1,0,0,0,0-.15.12.12,0,0,0-.14,0L54,86.8l-.1-.07a1.48,1.48,0,0,0,.12-.29,1.34,1.34,0,0,0,0-.44h.07s0,0,0,0a.07.07,0,0,0,.08,0,.05.05,0,0,0,0-.07.06.06,0,0,0-.07,0h-.08a1.1,1.1,0,0,0,0-.18l.49-.14a.19.19,0,0,0,.21.06A.18.18,0,0,0,54.86,85.47Z"/><path class="cls-2" d="M103.81,63.06a.66.66,0,0,0-.82-.38.59.59,0,0,0-.41.61,7.93,7.93,0,0,1-1,.44l-.42.13a5.31,5.31,0,0,0-.41-1l.51-.5a.35.35,0,0,0,.35-.08.29.29,0,0,0,0-.43.31.31,0,0,0-.44,0,.29.29,0,0,0,0,.36,4.44,4.44,0,0,1-.34.44l-.08.09a4.6,4.6,0,0,0-1.41-1.47l.13-.12a.14.14,0,0,0,.15,0,.13.13,0,0,0,0-.19.14.14,0,0,0-.19,0,.14.14,0,0,0,0,.16.6.6,0,0,1-.11.14A4.72,4.72,0,0,0,98,60.72l-.45-.1c0-.27.15-.78.23-1.1a.44.44,0,0,0,.34-.35.45.45,0,0,0-.38-.5.43.43,0,0,0-.5.35.44.44,0,0,0,.25.46,4.64,4.64,0,0,1,0,.78c0,.1,0,.22-.06.34a4.58,4.58,0,0,0-1.17,0,.36.36,0,0,1,0-.1.13.13,0,0,0,0-.12.12.12,0,0,0-.14-.07.1.1,0,0,0-.08.13.11.11,0,0,0,.11.08l0,.09a4.53,4.53,0,0,0-2.24,1c-.06-.12-.11-.2-.17-.3a.18.18,0,0,0,0-.23.22.22,0,0,0-.29-.08.2.2,0,0,0-.07.28.21.21,0,0,0,.23.1,1.39,1.39,0,0,1,.2.24l0,0a4.48,4.48,0,0,0-.9,1.12l-.07-.05c-.18-.14-.93-.73-1.15-.92a.37.37,0,0,0-.13-.39.38.38,0,0,0-.52.06.37.37,0,0,0,.07.51.39.39,0,0,0,.45,0c.15.08.76.49,1,.65a3.4,3.4,0,0,1,.31.25,5.31,5.31,0,0,0-.35.89,4.47,4.47,0,0,0-.16,1.07l-.22,0a.2.2,0,0,0-.18-.15.23.23,0,0,0-.23.2.2.2,0,0,0,.19.22.22.22,0,0,0,.21-.14l.23,0a4.23,4.23,0,0,0,.1.94h0c-.38.13-1.13.33-1.6.45a.68.68,0,0,0-.7-.19.6.6,0,0,0-.38.78.66.66,0,0,0,.82.38.59.59,0,0,0,.41-.61,9.65,9.65,0,0,1,1-.45l.45-.13a4.58,4.58,0,0,0,.41,1l-.55.53a.33.33,0,0,0-.34.08.29.29,0,0,0,0,.43.34.34,0,0,0,.45,0,.29.29,0,0,0,0-.36,3.3,3.3,0,0,1,.34-.44l.11-.12a4.37,4.37,0,0,0,1.4,1.47l-.16.15a.14.14,0,0,0-.15,0,.13.13,0,0,0,0,.19.14.14,0,0,0,.19,0,.13.13,0,0,0,0-.16l.13-.17a4.54,4.54,0,0,0,1.21.53,3.2,3.2,0,0,0,.42.1v0c0,.26-.16.78-.23,1.1a.43.43,0,0,0-.34.35.44.44,0,0,0,.38.5.43.43,0,0,0,.5-.36.42.42,0,0,0-.26-.45,6,6,0,0,1,0-.78c0-.11,0-.23.07-.36a4.1,4.1,0,0,0,1.16,0l0,.11a.1.1,0,0,0,0,.12.12.12,0,0,0,.14.07.11.11,0,0,0,.08-.13.12.12,0,0,0-.11-.08l0-.1a4.41,4.41,0,0,0,2.25-1c.06.11.14.25.19.36a.18.18,0,0,0,0,.23.22.22,0,0,0,.29.07.19.19,0,0,0,.07-.27.21.21,0,0,0-.23-.1l-.22-.31,0,0a4.3,4.3,0,0,0,.91-1.12l0,0c.19.14.54.44.75.62a.36.36,0,0,0,.14.39.39.39,0,0,0,.52-.06.35.35,0,0,0-.08-.5.38.38,0,0,0-.44,0,5.53,5.53,0,0,1-.57-.36,3.15,3.15,0,0,1-.3-.24,4.66,4.66,0,0,0,.37-.92,4.36,4.36,0,0,0,.15-1.42l.21,0a.2.2,0,0,0,.17.16.23.23,0,0,0,.25-.17.2.2,0,0,0-.17-.24.22.22,0,0,0-.22.12,2.08,2.08,0,0,1-.25,0,3.68,3.68,0,0,0-.08-.58c.38-.13,1.11-.32,1.57-.44a.67.67,0,0,0,.7.19A.59.59,0,0,0,103.81,63.06Z"/><path class="cls-2" d="M51.07,54.09a.4.4,0,0,0-.48-.22.37.37,0,0,0-.24.36,5.5,5.5,0,0,1-.6.25l-.24.08a2.81,2.81,0,0,0-.24-.59,4.11,4.11,0,0,1,.3-.29.21.21,0,0,0,.2,0,.19.19,0,0,0,0-.25.2.2,0,0,0-.26,0,.17.17,0,0,0,0,.21,1.83,1.83,0,0,1-.2.26l-.05,0a2.53,2.53,0,0,0-.81-.85L48.5,53a.08.08,0,0,0,.08-.13.09.09,0,0,0-.12,0,.07.07,0,0,0,0,.09l-.07.08a2.67,2.67,0,0,0-.69-.3l-.26-.06c0-.15.09-.45.13-.64a.24.24,0,0,0,.2-.2.26.26,0,0,0-.22-.29.25.25,0,0,0-.29.21.24.24,0,0,0,.15.26,4.05,4.05,0,0,1,0,.45,1.77,1.77,0,0,1,0,.2,2.5,2.5,0,0,0-.67,0l0-.06a.06.06,0,0,0-.06-.11.07.07,0,0,0,0,.08.07.07,0,0,0,.06.05l0,0a2.62,2.62,0,0,0-1.3.59,1.4,1.4,0,0,1-.09-.17.11.11,0,0,0,0-.13.12.12,0,0,0-.21.11.13.13,0,0,0,.14.06.57.57,0,0,1,.11.14l0,0a2.52,2.52,0,0,0-.52.65l0,0-.67-.53a.21.21,0,0,0-.08-.23.22.22,0,0,0-.3,0,.2.2,0,0,0,0,.29.21.21,0,0,0,.25,0,6,6,0,0,1,.56.37l.19.15a2.18,2.18,0,0,0-.21.52,3.2,3.2,0,0,0-.09.62l-.13,0a.11.11,0,0,0-.1-.08.11.11,0,0,0-.13.11.11.11,0,0,0,.1.13.13.13,0,0,0,.13-.08l.13,0a2.51,2.51,0,0,0,.06.55h0l-.93.26a.38.38,0,0,0-.4-.11.35.35,0,0,0-.22.45.37.37,0,0,0,.47.22.34.34,0,0,0,.24-.35,3.71,3.71,0,0,1,.61-.26l.26-.08a2.42,2.42,0,0,0,.23.58l-.31.31a.17.17,0,0,0-.2,0,.16.16,0,0,0,0,.24.18.18,0,0,0,.25,0,.17.17,0,0,0,0-.21,1.65,1.65,0,0,1,.19-.25.46.46,0,0,1,.07-.07,2.44,2.44,0,0,0,.81.85.76.76,0,0,0-.09.09.07.07,0,0,0-.09,0,.07.07,0,0,0,0,.1.08.08,0,0,0,.11,0,.08.08,0,0,0,0-.09l.07-.1a2.76,2.76,0,0,0,.7.31l.25,0h0c0,.16-.09.46-.14.64a.25.25,0,0,0,0,.49.25.25,0,0,0,.29-.2.25.25,0,0,0-.14-.27,2.65,2.65,0,0,1,0-.45l0-.2a2.58,2.58,0,0,0,.68,0v.06a.06.06,0,0,0,0,.07.07.07,0,0,0,.08,0,.05.05,0,0,0,0-.07.06.06,0,0,0-.06,0,.14.14,0,0,1,0-.06,2.61,2.61,0,0,0,1.3-.58l.1.2a.14.14,0,0,0,0,.14.13.13,0,0,0,.17,0,.12.12,0,0,0,0-.16.13.13,0,0,0-.14,0l-.13-.18v0a2.4,2.4,0,0,0,.53-.65l0,0c.11.08.31.25.43.36a.21.21,0,0,0,.08.22.22.22,0,0,0,.3,0,.21.21,0,0,0,0-.29.24.24,0,0,0-.26,0,2.87,2.87,0,0,1-.33-.21l-.17-.14a2.25,2.25,0,0,0,.21-.53,2.58,2.58,0,0,0,.09-.82l.12,0a.11.11,0,0,0,.1.09A.12.12,0,0,0,50,55.1a.12.12,0,0,0-.09-.14.12.12,0,0,0-.13.06h-.14c0-.12,0-.23-.05-.34l.9-.25a.39.39,0,0,0,.41.1A.34.34,0,0,0,51.07,54.09Z"/><path class="cls-2" d="M49.72,72.43a.76.76,0,0,0-.95-.44.68.68,0,0,0-.48.71,7.81,7.81,0,0,1-1.22.52c-.15,0-.32.11-.49.15a5.81,5.81,0,0,0-.48-1.19c.16-.17.43-.42.6-.59a.37.37,0,0,0,.4-.09.34.34,0,0,0,0-.5.37.37,0,0,0-.51,0,.35.35,0,0,0,0,.43,4.32,4.32,0,0,1-.4.51l-.09.1a5.18,5.18,0,0,0-1.65-1.71l.16-.14a.15.15,0,0,0,.17,0,.15.15,0,0,0,0-.22.16.16,0,0,0-.22,0,.14.14,0,0,0,0,.18l-.13.18a5.13,5.13,0,0,0-1.39-.62c-.18,0-.36-.08-.53-.11,0-.31.18-.92.27-1.29a.51.51,0,0,0,.4-.41.52.52,0,0,0-.45-.58.5.5,0,0,0-.58.41.51.51,0,0,0,.29.54,4.31,4.31,0,0,1-.06.9,3.06,3.06,0,0,1-.07.4,4.76,4.76,0,0,0-1.36,0,1,1,0,0,0,0-.12.15.15,0,0,0,0-.14.14.14,0,0,0-.17-.09.13.13,0,0,0-.09.16.14.14,0,0,0,.13.09,1.17,1.17,0,0,1,0,.11,5.13,5.13,0,0,0-2.62,1.2c-.07-.14-.13-.23-.19-.35a.24.24,0,0,0,0-.27.25.25,0,0,0-.34-.09.22.22,0,0,0-.09.32.26.26,0,0,0,.28.12,1.91,1.91,0,0,1,.23.28l0,0a5.08,5.08,0,0,0-1,1.3L37,72.08c-.21-.16-1.09-.85-1.34-1.07a.41.41,0,0,0-.16-.45.44.44,0,0,0-.6.07.41.41,0,0,0,.08.59.47.47,0,0,0,.52,0c.18.09.89.58,1.13.76l.38.3a5.65,5.65,0,0,0-.42,1,5.31,5.31,0,0,0-.18,1.25l-.26,0a.24.24,0,0,0-.21-.17.26.26,0,0,0-.27.23.24.24,0,0,0,.22.25.25.25,0,0,0,.25-.16c.09,0,.16,0,.27,0a5.1,5.1,0,0,0,.11,1.11h0c-.44.14-1.32.38-1.87.52a.78.78,0,0,0-.82-.22.69.69,0,0,0-.43.91.76.76,0,0,0,1,.45.7.7,0,0,0,.48-.72A10.35,10.35,0,0,1,36,76.2l.53-.16A5.4,5.4,0,0,0,37,77.21c-.16.17-.44.45-.63.62a.36.36,0,0,0-.4.1.34.34,0,0,0,0,.5.36.36,0,0,0,.51,0,.33.33,0,0,0,0-.42,3.64,3.64,0,0,1,.4-.51,1.49,1.49,0,0,1,.12-.14,5.18,5.18,0,0,0,1.64,1.72l-.18.17a.15.15,0,0,0-.17,0,.14.14,0,0,0,0,.21.15.15,0,0,0,.22,0,.14.14,0,0,0,0-.18l.15-.2a5.26,5.26,0,0,0,1.41.62,4.05,4.05,0,0,0,.5.12v0c0,.31-.18.91-.27,1.29a.53.53,0,1,0,.34,0,4.4,4.4,0,0,1,.06-.91,3.67,3.67,0,0,1,.07-.42,4.77,4.77,0,0,0,1.36,0l0,.13a.13.13,0,0,0-.05.13.14.14,0,0,0,.17.09.12.12,0,0,0,.09-.15.14.14,0,0,0-.13-.1,1.17,1.17,0,0,1-.05-.11,5.19,5.19,0,0,0,2.62-1.18c.08.13.16.3.22.41a.24.24,0,0,0,0,.27.26.26,0,0,0,.34.1.24.24,0,0,0,.09-.33.28.28,0,0,0-.28-.12,2.29,2.29,0,0,1-.25-.35l0,0a5.38,5.38,0,0,0,1.07-1.3l.06,0c.21.16.62.51.87.73a.41.41,0,0,0,.16.45.45.45,0,0,0,.61-.07.42.42,0,0,0-.09-.59.45.45,0,0,0-.52,0,4.63,4.63,0,0,1-.66-.42l-.35-.28a6,6,0,0,0,.43-1.07,5.27,5.27,0,0,0,.17-1.66l.25,0a.23.23,0,0,0,.2.18.25.25,0,0,0,.29-.19.23.23,0,0,0-.2-.28.26.26,0,0,0-.26.13,2.44,2.44,0,0,1-.28,0,5.06,5.06,0,0,0-.1-.68c.45-.15,1.29-.37,1.83-.51a.78.78,0,0,0,.82.21A.69.69,0,0,0,49.72,72.43Z"/><path class="cls-3" d="M61.39,57.65c.24.35.48.73.7,1.11C62,58,62,57.19,61.87,56.4l-.9.67Z"/><path class="cls-3" d="M57.12,94.64A22,22,0,0,1,55.38,96c-.3.21-.61.4-.92.59a12.27,12.27,0,0,1-1.22.65l-6,0c-1.82,0-3.54,0-5.17.05s-3.15.07-4.55.14l-.52,0-.26,0h-.13l-.39,0a5.71,5.71,0,0,0-.89.09.9.9,0,0,0-.23.08c-.08,0-.13.11-.09.15a1,1,0,0,0,.23.22,4.79,4.79,0,0,0,.58.37,7.47,7.47,0,0,0,.69.31c.32.11.68.22,1,.3,1.21.34,1.9.45,1.9.59s-.72.27-2,.16a9.39,9.39,0,0,1-1.12-.16,10.73,10.73,0,0,1-1.71-.51,5.87,5.87,0,0,1-1.65-.88,2.34,2.34,0,0,1-.48-.56.46.46,0,0,1,0-.43,1.12,1.12,0,0,1,.25-.28,2.64,2.64,0,0,1,.72-.47,6.2,6.2,0,0,1,1.22-.36c.49-.1,1-.18,1.57-.25l1.17-.15c1.44-.16,3-.29,4.62-.4s3.38-.2,5.2-.27l2.8-.09,2.64-.06s.34-.19.54-.32.53-.34.78-.53A17.15,17.15,0,0,0,55.5,92.8a19.49,19.49,0,0,0,2.67-3,19.81,19.81,0,0,0,2.06-3.59l.38-1,.19-.5.15-.51.3-1c.09-.33.14-.65.21-1,.26-2,.46-4,.62-6l0-.6c.05-.73.1-1.44.11-2.15A43.49,43.49,0,0,0,62,65.4a9.28,9.28,0,0,0-.15-.92l-.19-.9c-.14-.59-.31-1.15-.5-1.71a16.25,16.25,0,0,0-1.51-3C58.41,57,57,55.25,55.81,53.56a21.42,21.42,0,0,1-2.67-4.92,10.23,10.23,0,0,1-.66-4.25,5.62,5.62,0,0,1,.79-2.6c.34-.53.64-.72.7-.66s-.07.33-.23.88a7,7,0,0,0-.27,2.4,10.24,10.24,0,0,0,1,3.69,16.9,16.9,0,0,0,1.2,2.16l4.69-3.48c-.61-2.42-2-5.24-4.18-6.51-5.67-3.24-12.51,5.9-15.47,9.61A63.57,63.57,0,0,0,27,92.18c.13,2.84-.31,7.42,2.08,9.43,1.71,1.44,4.14,2.06,6.29,2.49a26.89,26.89,0,0,0,6.28.33c4.48-.13,9.7-.21,13.83-2.17,3.2-1.51,3.54-6.54,4.19-9.62.07-.31.13-.63.19-.94A21.53,21.53,0,0,1,57.12,94.64Z"/><path class="cls-3" d="M80.85,55.22,84,51l-3.24-2.4L79.79,48l-1.51-1.12-.1-.08-1.76-1.3-1.46,2V28.58a4.24,4.24,0,0,0-8.47,0V47.42l-1.46-2-1.77,1.3-.09.08L61.65,48l-.92.68L57.49,51l3.1,4.18,1-.78,2.6-1.92,2.25-1.66v1.36c1-1.49,2.44-3.35,4.23-3.35s3.22,1.86,4.24,3.35V50.86l2.24,1.66,2.6,1.92Z"/><path class="cls-3" d="M85.27,40.27c-2.23,1.27-3.57,4.09-4.19,6.51l4.69,3.48A17,17,0,0,0,87,48.1a10.41,10.41,0,0,0,1-3.69,6.75,6.75,0,0,0-.26-2.4c-.16-.55-.3-.82-.23-.88s.36.13.7.66a5.74,5.74,0,0,1,.79,2.6,10.26,10.26,0,0,1-.67,4.25,21.36,21.36,0,0,1-2.66,4.92C84.49,55.25,83,57,81.83,58.83a15.7,15.7,0,0,0-1.52,3c-.18.56-.35,1.12-.5,1.71l-.18.9a7.08,7.08,0,0,0-.16.92,44.37,44.37,0,0,0-.26,8.07c0,.71.07,1.42.11,2.15l0,.6q.24,3,.62,6c.07.32.12.64.21,1l.3,1,.15.51.2.5.38,1a20.37,20.37,0,0,0,2,3.59,19.55,19.55,0,0,0,2.68,3A17,17,0,0,0,87.45,94c.26.19.52.36.78.53s.5.3.54.32l2.64.06,2.8.09c1.83.07,3.57.16,5.21.27s3.18.24,4.61.4l1.17.15c.55.07,1.09.15,1.57.25a6.2,6.2,0,0,1,1.22.36,2.71,2.71,0,0,1,.73.47,1.72,1.72,0,0,1,.25.28.46.46,0,0,1,0,.43,2.63,2.63,0,0,1-.49.56,5.87,5.87,0,0,1-1.65.88,10.15,10.15,0,0,1-1.71.51,9.25,9.25,0,0,1-1.11.16c-1.33.11-2,0-2-.16s.68-.25,1.9-.59l1-.3c.24-.1.47-.2.68-.31a3.61,3.61,0,0,0,.58-.37,1,1,0,0,0,.24-.22s0-.13-.09-.15a1.27,1.27,0,0,0-.23-.08,6,6,0,0,0-.89-.09l-.39,0h-.14l-.25,0-.52,0c-1.41-.07-2.93-.11-4.56-.14s-3.35,0-5.16-.05l-6,0A11.2,11.2,0,0,1,87,96.58c-.31-.19-.62-.38-.92-.59a20.27,20.27,0,0,1-1.74-1.35,21.59,21.59,0,0,1-2.78-2.94c.07.31.12.63.19.94.65,3.08,1,8.11,4.19,9.62,4.13,2,9.36,2,13.84,2.17a26.92,26.92,0,0,0,6.28-.33,14.07,14.07,0,0,0,6.28-2.49c2.39-2,2-6.59,2.08-9.43a63.56,63.56,0,0,0-13.67-42.3C97.78,46.17,90.93,37,85.27,40.27Z"/><path class="cls-3" d="M80.06,57.65l.42-.58-.9-.67c-.09.79-.16,1.57-.23,2.36C79.58,58.38,79.81,58,80.06,57.65Z"/><path d="M117,82.73C115.42,67,107.87,50.17,95.28,40.11c-3.81-3-9-4.86-13-1.15a14.32,14.32,0,0,0-3.66,6l-2-1.47V28.58a5.95,5.95,0,0,0-11.89,0V43.51L62.8,45a14.2,14.2,0,0,0-3.65-6c-4-3.71-9.17-1.89-13,1.15C33.58,50.17,26,67,24.44,82.73a66.2,66.2,0,0,0,.15,14.35c.33,2.82.56,5.06,2.93,6.89,2.77,2.14,6.79,3.14,10.25,3.34a59.81,59.81,0,0,0,13.36-.9c4.34-.74,8.13-2,9.61-6.38,2.32-7,3.29-14.54,3.94-21.82a115,115,0,0,0-.19-23.75l.31-.23a1.11,1.11,0,0,0,.74,1c.81.25,1.27-.44,2-1.58s2.06-3.1,3.15-3.1,2.39,1.94,3.16,3.1,1.21,1.83,2,1.58a1.11,1.11,0,0,0,.74-1l.31.23a116.36,116.36,0,0,0-.19,23.75c.65,7.28,1.62,14.85,3.95,21.82,1.48,4.43,5.26,5.64,9.61,6.38a59.72,59.72,0,0,0,13.35.9c3.47-.2,7.48-1.2,10.26-3.34,2.37-1.83,2.6-4.07,2.93-6.89A66.2,66.2,0,0,0,117,82.73ZM59.7,92.64c-.65,3.08-1,8.11-4.19,9.62-4.13,2-9.35,2-13.83,2.17a26.89,26.89,0,0,1-6.28-.33c-2.15-.43-4.58-1-6.29-2.49-2.39-2-1.95-6.59-2.08-9.43a63.57,63.57,0,0,1,13.68-42.3c3-3.71,9.8-12.85,15.47-9.61,2.22,1.27,3.57,4.09,4.18,6.51l-4.69,3.48a16.9,16.9,0,0,1-1.2-2.16,10.24,10.24,0,0,1-1-3.69,7,7,0,0,1,.27-2.4c.16-.55.3-.82.23-.88s-.36.13-.7.66a5.62,5.62,0,0,0-.79,2.6,10.23,10.23,0,0,0,.66,4.25,21.42,21.42,0,0,0,2.67,4.92c1.14,1.69,2.6,3.39,3.81,5.27a16.25,16.25,0,0,1,1.51,3c.19.56.36,1.12.5,1.71l.19.9a9.28,9.28,0,0,1,.15.92,43.49,43.49,0,0,1,.26,8.07c0,.71-.06,1.42-.11,2.15l0,.6c-.16,2-.36,4-.62,6-.07.32-.12.64-.21,1l-.3,1-.15.51-.19.5-.38,1a19.81,19.81,0,0,1-2.06,3.59,19.49,19.49,0,0,1-2.67,3A17.15,17.15,0,0,1,54,94c-.25.19-.52.36-.78.53s-.49.3-.54.32h0L50,94.93l-2.8.09c-1.82.07-3.56.16-5.2.27s-3.18.24-4.62.4l-1.17.15c-.55.07-1.08.15-1.57.25a6.2,6.2,0,0,0-1.22.36,2.64,2.64,0,0,0-.72.47,1.12,1.12,0,0,0-.25.28.46.46,0,0,0,0,.43,2.34,2.34,0,0,0,.48.56,5.87,5.87,0,0,0,1.65.88,10.73,10.73,0,0,0,1.71.51,9.39,9.39,0,0,0,1.12.16c1.32.11,2,0,2-.16s-.69-.25-1.9-.59c-.3-.08-.66-.19-1-.3a7.47,7.47,0,0,1-.69-.31,4.79,4.79,0,0,1-.58-.37,1,1,0,0,1-.23-.22s0-.13.09-.15a.9.9,0,0,1,.23-.08,5.71,5.71,0,0,1,.89-.09l.39,0h.13l.26,0,.52,0c1.4-.07,2.93-.11,4.55-.14s3.35,0,5.17-.05l6,0a12.27,12.27,0,0,0,1.22-.65c.31-.19.62-.38.92-.59a22,22,0,0,0,1.74-1.35,21.53,21.53,0,0,0,2.77-2.94C59.83,92,59.77,92.33,59.7,92.64Zm2.39-33.88c-.22-.38-.46-.76-.7-1.11L61,57.07l.9-.67C62,57.19,62,58,62.09,58.76ZM75,50.86v1.36c-1-1.49-2.45-3.35-4.24-3.35s-3.22,1.86-4.23,3.35V50.86l-2.25,1.66-2.6,1.92-1,.78L57.49,51l3.24-2.4.92-.68,1.52-1.12.09-.08L65,45.46l1.46,2V28.58a4.24,4.24,0,0,1,8.47,0V47.42l1.46-2,1.76,1.3.1.08L79.79,48l.92.68L84,51l-3.1,4.18-1-.78-2.6-1.92Zm5.52,6.21-.42.58c-.25.35-.48.73-.71,1.11.07-.79.14-1.57.23-2.36Zm33.93,35.11c-.13,2.84.31,7.42-2.08,9.43a14.07,14.07,0,0,1-6.28,2.49,26.92,26.92,0,0,1-6.28.33c-4.48-.13-9.71-.21-13.84-2.17-3.2-1.51-3.54-6.54-4.19-9.62-.07-.31-.12-.63-.19-.94a21.59,21.59,0,0,0,2.78,2.94A20.27,20.27,0,0,0,86.07,96c.3.21.61.4.92.59a11.2,11.2,0,0,0,1.22.65l6,0c1.81,0,3.54,0,5.16.05s3.15.07,4.56.14l.52,0,.25,0h.14l.39,0a6,6,0,0,1,.89.09,1.27,1.27,0,0,1,.23.08c.07,0,.13.11.09.15a1,1,0,0,1-.24.22,3.61,3.61,0,0,1-.58.37c-.21.11-.44.21-.68.31l-1,.3c-1.22.34-1.9.45-1.9.59s.71.27,2,.16a9.25,9.25,0,0,0,1.11-.16,10.15,10.15,0,0,0,1.71-.51,5.87,5.87,0,0,0,1.65-.88,2.63,2.63,0,0,0,.49-.56.46.46,0,0,0,0-.43,1.72,1.72,0,0,0-.25-.28,2.71,2.71,0,0,0-.73-.47,6.2,6.2,0,0,0-1.22-.36c-.48-.1-1-.18-1.57-.25L104,95.69c-1.43-.16-3-.29-4.61-.4S96,95.09,94.21,95l-2.8-.09-2.64-.06h0s-.34-.19-.54-.32-.52-.34-.78-.53A17,17,0,0,1,86,92.8a19.55,19.55,0,0,1-2.68-3,20.37,20.37,0,0,1-2-3.59l-.38-1-.2-.5-.15-.51-.3-1c-.09-.33-.14-.65-.21-1q-.37-3-.62-6l0-.6c0-.73-.1-1.44-.11-2.15a44.37,44.37,0,0,1,.26-8.07,7.08,7.08,0,0,1,.16-.92l.18-.9c.15-.59.32-1.15.5-1.71a15.7,15.7,0,0,1,1.52-3C83,57,84.49,55.25,85.64,53.56a21.36,21.36,0,0,0,2.66-4.92A10.26,10.26,0,0,0,89,44.39a5.74,5.74,0,0,0-.79-2.6c-.34-.53-.64-.72-.7-.66s.07.33.23.88a6.75,6.75,0,0,1,.26,2.4,10.41,10.41,0,0,1-1,3.69,17,17,0,0,1-1.21,2.16l-4.69-3.48c.62-2.42,2-5.24,4.19-6.51,5.66-3.24,12.51,5.9,15.47,9.61A63.56,63.56,0,0,1,114.41,92.18Z"/><path class="cls-4" d="M88.77,94.87h0"/></svg>