<svg id="Capa_1" data-name="Capa 1" xmlns="http://www.w3.org/2000/svg" viewBox="0 0 141.45 141.45"><defs><style>.cls-1{fill:#ed2b59;}.cls-2{fill:#363636;}</style></defs><title>Icono_Tos_Seca_Síntomas</title><path class="cls-1" d="M70.72,141.45a70.73,70.73,0,1,1,70.73-70.73A70.81,70.81,0,0,1,70.72,141.45ZM70.72,10a60.73,60.73,0,1,0,60.73,60.72A60.79,60.79,0,0,0,70.72,10Z"/><path class="cls-2" d="M65.36,64.08c-3.94,8.27-8,16.51-12.65,24.44-.63,1.1-1.28,2.21-2,3.29C40.89,89.62,31,87.68,21.06,85.67l-4.62-.93a9.66,9.66,0,0,0-7,.91,9.23,9.23,0,0,0-4.16,5.42c-1,4.51,1.36,10.15,6.33,11.15,11.38,2.3,22.77,4.6,34.13,7q2.79.6,5.56,1.25a10.56,10.56,0,0,0,9.81-2.64,22.93,22.93,0,0,0,3-3.58A80.55,80.55,0,0,0,70.8,93.47c-1.76-15-4.64-28.3-5-30.1A6.89,6.89,0,0,0,65.36,64.08Z"/><path class="cls-2" d="M105.75,119.33l-.39.76a9.36,9.36,0,0,1-8.65,5h0a11,11,0,0,1-5.16-1.25,10.24,10.24,0,0,1-4.68-6.06,10.57,10.57,0,0,1,1-7.73q1-2.1,2.12-4.2l3.23-6.39C96.53,92.82,100,86,103.48,79.35c-.77-.81-1.56-1.61-2.3-2.37-5.47-5.53-11.61-11.19-19.91-18.37a8.64,8.64,0,0,1-3-6.2,11.26,11.26,0,0,1,2.87-8.1,7.63,7.63,0,0,1,1-.89l-1.45-1.05-1.66-2.9A23.19,23.19,0,0,0,61.16,9.34c-.61-.11-1.23-.2-1.86-.26A23.2,23.2,0,0,0,34,29.35l-.06.55a23.12,23.12,0,0,0,1.52,10.84c.09.23.19.45.28.67a23.36,23.36,0,0,0,5.82,8.05,4.48,4.48,0,0,1,.22-.71c1.31-3,8.32-7.32,13.48-5.58s6,8.26,5.21,11.88l0,.07a22.77,22.77,0,0,0,7.8-2.64l2.27,2.65-3.79,7.8s10.2,44.81,5,66.81h42.7a119.43,119.43,0,0,0-.54-26.55C111.17,108.61,108.43,114,105.75,119.33Z"/><path class="cls-2" d="M121.57,71.24c-4.38-5.83-9.78-10.82-15.11-15.76Q100.7,50.16,94.77,45a9.65,9.65,0,0,0-6.41-2.66A9.21,9.21,0,0,0,82,45c-3.13,3.4-3.83,9.51,0,12.82,6.84,5.92,13.6,12,20,18.42,1,1,1.91,1.94,2.83,2.94-4.75,9-9.26,18-13.83,27.08l-2.13,4.2a9.61,9.61,0,0,0-.91,7A9.27,9.27,0,0,0,92,122.88c4.13,2.17,10.13,1.26,12.41-3.26,5.24-10.36,10.47-20.73,15.83-31,.88-1.69,1.77-3.36,2.68-5C125.23,79.38,124.3,74.88,121.57,71.24Z"/><line class="cls-1" x1="49.61" y1="53.8" x2="41.54" y2="72.58"/><path class="cls-1" d="M41.54,72.58c.35.16,2.45-3.93,4.67-9.11S50,54,49.61,53.8s-2.45,3.93-4.68,9.12S41.19,72.43,41.54,72.58Z"/><line class="cls-1" x1="54.15" y1="55.5" x2="52.95" y2="67.63"/><path class="cls-1" d="M53,67.63c.38,0,1-2.65,1.29-6s.3-6.09-.09-6.13-1,2.64-1.29,6S52.56,67.59,53,67.63Z"/><line class="cls-1" x1="42.91" y1="53.32" x2="37.56" y2="59.12"/><path class="cls-1" d="M37.56,59.12c.28.26,1.71-.83,3.19-2.43s2.45-3.11,2.16-3.37-1.71.83-3.19,2.43S37.27,58.86,37.56,59.12Z"/><line class="cls-1" x1="47.28" y1="51.71" x2="44.33" y2="56.51"/><path class="cls-1" d="M44.33,56.51c.33.2,1.26-.71,2.07-2s1.21-2.57.88-2.77-1.25.71-2.06,2S44,56.31,44.33,56.51Z"/><line class="cls-1" x1="57.79" y1="62.35" x2="57.76" y2="54.96"/><path class="cls-1" d="M57.76,55c-.38,0-.69,1.66-.68,3.7s.32,3.69.71,3.69.69-1.66.68-3.7S58.15,55,57.76,55Z"/></svg>