<svg id="Capa_1" data-name="Capa 1" xmlns="http://www.w3.org/2000/svg" viewBox="0 0 141.45 141.45"><defs><style>.cls-1{fill:#8fd171;}.cls-2{fill:#363636;}.cls-3{fill:#94dcd2;}</style></defs><title>Icono_Cansancio_Extremo_Síntomas</title><path class="cls-1" d="M70.72,141.45a70.73,70.73,0,1,1,70.73-70.73A70.81,70.81,0,0,1,70.72,141.45ZM70.72,10a60.73,60.73,0,1,0,60.73,60.72A60.79,60.79,0,0,0,70.72,10Z"/><path class="cls-2" d="M42.47,62.84c-8,22.07-13,35.93-21,58-3.71,10.21,12.57,14.61,16.25,4.48,8-22.07,13-35.93,21-58,3.71-10.21-12.57-14.61-16.25-4.48Z"/><path class="cls-2" d="M98.89,62.84c8,22.07,13.07,35.93,21.09,58,3.7,10.21-12.57,14.61-16.25,4.48-8-22.07-13.08-35.93-21.09-58-3.71-10.21,12.57-14.61,16.25-4.48Z"/><rect class="cls-2" x="42.27" y="57.1" width="56.81" height="75.39" rx="9.48"/><circle class="cls-2" cx="70.71" cy="31.13" r="22.94"/><rect class="cls-2" x="60.82" y="50.02" width="19.47" height="10.18"/><path class="cls-3" d="M79.32,26.18a1.79,1.79,0,0,0,3.57,0c0-1-1.79-4.33-1.79-4.33S79.32,25.19,79.32,26.18Z"/><path class="cls-3" d="M81.51,32.66a1.38,1.38,0,1,0,2.75,0,14.91,14.91,0,0,0-1.37-3.35A14.85,14.85,0,0,0,81.51,32.66Z"/></svg>