<svg id="Capa_1" data-name="Capa 1" xmlns="http://www.w3.org/2000/svg" viewBox="0 0 141.45 141.45"><defs><style>.cls-1{fill:#8fd171;}.cls-2{fill:#ed2b59;}.cls-3{fill:#7efc7e;}</style></defs><title>Icono_Diarrea_SiÌntomas</title><path class="cls-1" d="M70.72,141.45a70.73,70.73,0,1,1,70.73-70.73A70.81,70.81,0,0,1,70.72,141.45ZM70.72,10a60.73,60.73,0,1,0,60.73,60.72A60.79,60.79,0,0,0,70.72,10Z"/><path d="M111.63,59a27.77,27.77,0,0,0-3-5.86,6.28,6.28,0,0,1-.6-1.08,1.11,1.11,0,0,1-.08-.67,9.54,9.54,0,0,1,.35-1.26c.16-.53.31-1.08.45-1.63a18.48,18.48,0,0,0,.53-7.13,11.26,11.26,0,0,0-3.6-6.91,8.63,8.63,0,0,0-3.77-2,10,10,0,0,0-4.18,0,17.47,17.47,0,0,0-3.66,1.21,9.87,9.87,0,0,1-2.72,1,2.31,2.31,0,0,1-1-.09,6.32,6.32,0,0,1-1.24-.55c-.48-.25-1-.56-1.61-.87a13.4,13.4,0,0,0-1.91-.78,9.61,9.61,0,0,0-4.4-.44,6.42,6.42,0,0,0-2.39.88,6.84,6.84,0,0,0-1,.8l-.33.34h0l-.15-.07L77,33.75c-.23-.14-.6-.34-.94-.51a9.66,9.66,0,0,0-8.85.33c-.65.38-1.12.72-1.46.89a1.21,1.21,0,0,1-.71.15A3.81,3.81,0,0,1,63.63,34c-.61-.35-1.27-.83-2.14-1.27a9.88,9.88,0,0,0-5.68-1,10.09,10.09,0,0,0-2.78.77,13.64,13.64,0,0,0-2.21,1.31,1,1,0,0,1-.35.17A1.41,1.41,0,0,1,50,34c-.24,0-.56-.15-1-.26a10.24,10.24,0,0,0-1.34-.31,10,10,0,0,0-5.54.69,10.23,10.23,0,0,0-2.39,1.48,12.2,12.2,0,0,0-1.81,2c-1,1.38-1.72,2.62-2.52,3.87s-1.58,2.49-2.35,3.73L31.93,47c-.39.62-.8,1.29-1.18,2a9.12,9.12,0,0,0-.87,2.55A7.34,7.34,0,0,0,30,54.4c.39,1.7,1,3,1.26,4.05a3.52,3.52,0,0,1,.07,1.39,6.5,6.5,0,0,1-.5,1.54c-.26.58-.57,1.2-.87,1.92a11,11,0,0,0-.67,2.37,10.81,10.81,0,0,0,.37,4.78,11.07,11.07,0,0,0,2.21,4.09,7.22,7.22,0,0,0,.81.85,8.11,8.11,0,0,0,.89.76l.23.18,0,0,.06,0,.12,0-.08.15-.15.37-.25.73a11.92,11.92,0,0,0-.55,3,10.09,10.09,0,0,0,1.46,5.9,8.76,8.76,0,0,0,7.78,4,1.65,1.65,0,0,0,.52-.16l.15-.1s.08-.07.06,0l0,.07-.1.32c0,.1-.06.22-.09.34l-.11.49c0,.27-.11.53-.14.8a9.94,9.94,0,0,0,0,3.31,6.55,6.55,0,0,0,1.45,3.14,6.63,6.63,0,0,0,2.71,2,4.63,4.63,0,0,0,6-2.2,7,7,0,0,0,.79-2.86,20.39,20.39,0,0,0-.57-4.94,12.28,12.28,0,0,1-.21-2,14.65,14.65,0,0,1,.14-2c.17-1.33.45-2.66.6-4a12.09,12.09,0,0,0-.09-3.9,12,12,0,0,0-1.19-3.29,13.53,13.53,0,0,0-1.78-2.46,11.8,11.8,0,0,0-3.81-2.74c-.23-.1-.44-.18-.65-.25a5.6,5.6,0,0,0,2.2-2.4A9.75,9.75,0,0,0,49,62.87a18,18,0,0,0-.35-2.74,10.92,10.92,0,0,0-1.07-3,7.25,7.25,0,0,0-.47-.75c-.05-.09-.05-.08-.06-.09l0,0s0,0,0,0h0a.09.09,0,0,1-.07-.12l0,0v0h0L47,56c.11-.06.22-.11.36-.2a4.66,4.66,0,0,0,1.25-1.1,5.17,5.17,0,0,0,1.07-2.45,6.25,6.25,0,0,0,0-1.35,6.65,6.65,0,0,0,.58.33,11.12,11.12,0,0,0,9.81-.07c.22-.11.44-.22.65-.35l.57-.34c.07,0,.06,0,.09,0l0,0s0,0,0,0l.17.13a10.15,10.15,0,0,0,1.34.86,8.85,8.85,0,0,0,3.29,1,12.92,12.92,0,0,0,3.3-.13,18.54,18.54,0,0,0,3-.79c.48-.17.94-.35,1.39-.53s.81-.35,1.15-.47a3.11,3.11,0,0,1,1.68-.21c.62.08,1.46.32,2.25.51a36.92,36.92,0,0,0,4.76,1,12.77,12.77,0,0,0,4.55-.17,9.48,9.48,0,0,0,1.53-.53,11.37,11.37,0,0,0,.7,4.5,11,11,0,0,0,1.69,3.09c.2.25.39.51.62.75l.35.36.17.18.1.08c.11.1.24.23.33.3a2,2,0,0,1,.21.18l-.26.26-.1.13,0,0-.09.14-.16.27a10.49,10.49,0,0,0-1,2.44,10.79,10.79,0,0,0-.34,2.75A10,10,0,0,0,92.21,68a12.78,12.78,0,0,0,.32,1.41,3.7,3.7,0,0,1,.18.88.39.39,0,0,1-.08.2,3,3,0,0,1-.53.36l-1.18.62a5.17,5.17,0,0,0-1.54,1.41,6,6,0,0,0-.83,1.78,10.15,10.15,0,0,0-.29,3.42c0,.54.1,1.07.18,1.6s.18,1,.33,1.62.3,1,.39,1.39a2.68,2.68,0,0,1,.09.83.41.41,0,0,1-.14.27,1.84,1.84,0,0,1-.56.27c-.68.21-1.72.29-2.94.56a6.78,6.78,0,0,0-2,.78,5.11,5.11,0,0,0-1,.8,6.76,6.76,0,0,0-.71.92,3.64,3.64,0,0,1-.66.92,1,1,0,0,1-.54.27,3.28,3.28,0,0,1-1,0,12.38,12.38,0,0,1-1.38-.25c-1-.23-2.09-.57-3.39-.78a12.92,12.92,0,0,0-3.78,0,15.06,15.06,0,0,0-3.45,1.07,15.26,15.26,0,0,0-3,1.8,16.06,16.06,0,0,0-1.33,1.12c-.4.42-.82.82-1.18,1.28a13.5,13.5,0,0,0-1.85,3,12.82,12.82,0,0,0-.89,3.32,22.46,22.46,0,0,0,.07,6.14,54.71,54.71,0,0,0,2.85,10.41A14.23,14.23,0,0,0,63.36,118a6,6,0,0,0,2.16,2.22,5.45,5.45,0,0,0,3,.66,6.81,6.81,0,0,0,2.6-.71,6.89,6.89,0,0,0,2-1.51,8.83,8.83,0,0,0,1.3-1.84,14.79,14.79,0,0,0,1.3-3.61,36,36,0,0,0,.84-5.76,25,25,0,0,0,0-3,10.42,10.42,0,0,0,1.89,1.3,7.2,7.2,0,0,0,3.12.73,9.82,9.82,0,0,0,3.39-.66,14.84,14.84,0,0,0,1.64-.72,9.25,9.25,0,0,0,1.65-1,23.81,23.81,0,0,0,2.79-2.7,14.34,14.34,0,0,1,2.75-2.46,37.77,37.77,0,0,1,3.77-1.66,18.16,18.16,0,0,0,4.08-2.61,7.39,7.39,0,0,0,1.73-2.23,6.43,6.43,0,0,0,.62-2.94,10.31,10.31,0,0,1,0-2.14,1.25,1.25,0,0,1,.25-.53,2.68,2.68,0,0,1,.63-.52,10.58,10.58,0,0,0,2.29-1.76,9.58,9.58,0,0,0,1.71-2.61,13.6,13.6,0,0,0,1-5.95,19.15,19.15,0,0,0-.35-3c-.1-.48-.22-1-.33-1.44a3.3,3.3,0,0,1-.13-1,.9.9,0,0,1,.2-.53,9.52,9.52,0,0,1,.78-.93,8.63,8.63,0,0,0,1-1.44,8.81,8.81,0,0,0,.73-1.67A11.37,11.37,0,0,0,111.63,59Zm-3,6a5.55,5.55,0,0,1-.42,1,6.56,6.56,0,0,1-.65.92,11.5,11.5,0,0,0-1,1.31,4.9,4.9,0,0,0-.49,1,3.68,3.68,0,0,0-.2,1.16,6.74,6.74,0,0,0,.25,1.86c.14.5.23.86.32,1.3a15.44,15.44,0,0,1,.34,2.51,10.62,10.62,0,0,1-.65,4.63A6.14,6.14,0,0,1,105,82.49a7.9,7.9,0,0,1-1.75,1.38A5.69,5.69,0,0,0,102,85a4.09,4.09,0,0,0-.76,1.73,11.68,11.68,0,0,0,0,2.77c.27,2.47-2.36,4.18-4.81,5.5a34.63,34.63,0,0,0-3.92,1.91,16.16,16.16,0,0,0-3.08,2.95A22.06,22.06,0,0,1,87,102.47a7.42,7.42,0,0,1-1.29.89,15.66,15.66,0,0,1-1.42.71,8.06,8.06,0,0,1-2.75.69,5.47,5.47,0,0,1-2.44-.42,9.41,9.41,0,0,1-2-1.25,14.37,14.37,0,0,1-1.61-1.44A26.06,26.06,0,0,1,73.2,99c-1.14-1.5-1.72-2.33-1.85-2.26s.25,1,1.2,2.7a21,21,0,0,0,2,3,15.56,15.56,0,0,0,1.13,1.22c-.17.81-.38,2-.7,3.55a51.35,51.35,0,0,1-1.43,5.37,13.13,13.13,0,0,1-1.35,3,6.47,6.47,0,0,1-1,1.25,4.24,4.24,0,0,1-1.3.85,3.11,3.11,0,0,1-2.86,0c-.74-.44-1.27-1.6-1.71-3.13A56.43,56.43,0,0,1,63,104.6,19.38,19.38,0,0,1,63,99.44l.12-.64c0-.21.1-.37.14-.57a8.11,8.11,0,0,1,.4-1.1A9.2,9.2,0,0,1,65,95.07a11.13,11.13,0,0,1,.88-.94c.33-.27.64-.58,1-.83a11.27,11.27,0,0,1,4.8-2.11,9.41,9.41,0,0,1,2.54,0c.92.15,2,.45,3.12.72a16.27,16.27,0,0,0,1.88.33,7.31,7.31,0,0,0,2.25-.12,4.82,4.82,0,0,0,2.3-1.22,4.9,4.9,0,0,0,.81-.94l.46-.72a1.31,1.31,0,0,1,.49-.54,3,3,0,0,1,.93-.34c.82-.22,1.89-.29,3.19-.69a5.1,5.1,0,0,0,2.08-1.24A4.18,4.18,0,0,0,92.92,84a5.85,5.85,0,0,0-.21-2.15c-.15-.58-.33-1.06-.44-1.47A12.39,12.39,0,0,1,92,79.08a11.75,11.75,0,0,1-.18-1.27,6.69,6.69,0,0,1,.09-2.23,2.49,2.49,0,0,1,.3-.75,1.67,1.67,0,0,1,.44-.44c.31-.19.71-.4,1.18-.68a5.15,5.15,0,0,0,1.49-1.33,3.46,3.46,0,0,0,.62-2.26,7.25,7.25,0,0,0-.37-1.62c-.07-.2-.12-.37-.17-.53a3.89,3.89,0,0,1-.12-.49,6.85,6.85,0,0,1-.13-1,7.34,7.34,0,0,1,.14-2,7.93,7.93,0,0,1,.6-1.82l.11-.2,0-.11a1.74,1.74,0,0,1,.13-.2l.55-.78,1.19-1.45c-.45-.28-.94-.56-1.39-.83s-.79-.53-1.18-.79l-.27-.19L94.91,58l-.28-.25a5.6,5.6,0,0,1-.54-.55,9.47,9.47,0,0,1-1.6-2.38,11,11,0,0,1-1.09-4.54,6.7,6.7,0,0,0,2.26-2.49c.69-1.48.43-2.39.2-2.41s-.58.69-1.45,1.55a6.18,6.18,0,0,1-.74.62,7.85,7.85,0,0,1-3.81,1.39,11.55,11.55,0,0,1-3.54-.3c-1.31-.28-2.72-.74-4.3-1.24a19.85,19.85,0,0,0-2.64-.73,6.33,6.33,0,0,0-1.77-.1,7.8,7.8,0,0,0-1.72.36c-.51.17-1,.36-1.38.52l-1.18.43a16.18,16.18,0,0,1-2.42.61,7,7,0,0,1-4.21-.39,5.6,5.6,0,0,1-.91-.55l-.37-.24a3.91,3.91,0,0,0-.57-.3,3.28,3.28,0,0,0-1.21-.31,3.65,3.65,0,0,0-2.28.7l-.49.34c-.14.09-.28.18-.43.26a8.79,8.79,0,0,1-7.07.71A10.8,10.8,0,0,1,47,45.84c-.9-1-1.35-1.6-1.62-1.5s-.27.94.36,2.33a9.06,9.06,0,0,0,1.94,2.7A11,11,0,0,1,47,51.54a3.09,3.09,0,0,1-.8,1,1.44,1.44,0,0,1-.47.25l-.16,0h-.06l-.14,0-.29,0a6.42,6.42,0,0,0-1.11.23,2.91,2.91,0,0,0-1.51,1,2.32,2.32,0,0,0-.41.85,2.89,2.89,0,0,0,0,.91,2.94,2.94,0,0,0,1,1.8,4.66,4.66,0,0,1,.5.48l.19.23.15.18c.08.13.17.27.25.42a14.85,14.85,0,0,1,1.26,4.23,10.37,10.37,0,0,1,.08,3.53,12.08,12.08,0,0,1-1,2.94,3,3,0,0,0-1.68,0c0,.15.65.24,1.78.71l.06,0a13.33,13.33,0,0,1,1.51.76A11.52,11.52,0,0,1,49.35,74a12.41,12.41,0,0,1,1.43,2.29,10.85,10.85,0,0,1,.85,2.88,10.37,10.37,0,0,1-.1,3.36c-.19,1.21-.53,2.49-.78,3.92a16.09,16.09,0,0,0-.25,2.27,14.74,14.74,0,0,0,.14,2.4A19.12,19.12,0,0,1,51,95.46a4.55,4.55,0,0,1-.57,1.86,2.3,2.3,0,0,1-1.21,1.07,2.21,2.21,0,0,1-1.62-.13A3.87,3.87,0,0,1,46.06,97a3.62,3.62,0,0,1-.53-.88,3.66,3.66,0,0,1-.28-1,7.33,7.33,0,0,1,.07-2.37c0-.21.09-.42.13-.63l.08-.32c0-.17.12-.4.18-.6.24-.82.58-1.67.92-2.55l1-2.62.26-.65.06-.15v-.07L48,85l.07-.29.25-.77-1.93,1.28c-.59.4-1.19.79-1.79,1.18l-.8.52-.2.13-.14,0-.29.08-.58.18a1.6,1.6,0,0,1-.55.1,5.63,5.63,0,0,1-4.89-2.59,6.8,6.8,0,0,1-.89-4,8.7,8.7,0,0,1,.43-2.17l.19-.53L37,77.9c.08-.19.18-.38.27-.56.45-.75.89-1.5,1.33-2.25-.54-.29-1.11-.56-1.65-.86l-.81-.46-.39-.22-.15-.12a5.92,5.92,0,0,1-.59-.52,5,5,0,0,1-.54-.59A7.59,7.59,0,0,1,33,69.45a7.34,7.34,0,0,1-.21-3.22,6.18,6.18,0,0,1,.18-.77,4.61,4.61,0,0,1,.28-.78c.23-.55.54-1.15.85-1.83a9.88,9.88,0,0,0,.79-2.41,7.26,7.26,0,0,0-.09-2.76c-.37-1.68-1-3-1.22-4a3.5,3.5,0,0,1-.05-1.43,5.47,5.47,0,0,1,.54-1.5c.55-1.06,1.42-2.32,2.19-3.55l2.37-3.71c.81-1.23,1.6-2.57,2.37-3.6a6.52,6.52,0,0,1,2.68-2.21,6.17,6.17,0,0,1,3.39-.42,8.52,8.52,0,0,1,.89.21,11.21,11.21,0,0,0,1.27.34,5,5,0,0,0,1.83.07,4.74,4.74,0,0,0,1.77-.69,12.08,12.08,0,0,1,1.76-1.07,6.1,6.1,0,0,1,5.12.12c.54.26,1.16.7,1.91,1.15a7.66,7.66,0,0,0,3,1.13,4.87,4.87,0,0,0,1.52-.06A5.77,5.77,0,0,0,67.46,38c.76-.39,1.29-.78,1.7-1a5.51,5.51,0,0,1,2.59-.73,5.76,5.76,0,0,1,2.64.53,5.83,5.83,0,0,1,.65.36l.46.25.28.14c.1.06.26.12.39.18a3.48,3.48,0,0,0,3.38-.34,5.32,5.32,0,0,0,.68-.59l.29-.3a2,2,0,0,1,.38-.29,2.55,2.55,0,0,1,1-.35,5.92,5.92,0,0,1,2.63.29,12.24,12.24,0,0,1,1.37.55c.42.21.94.51,1.5.81a10.15,10.15,0,0,0,2,.85,6.14,6.14,0,0,0,2.49.2,13.07,13.07,0,0,0,3.82-1.3,13.86,13.86,0,0,1,2.86-1,6.19,6.19,0,0,1,2.6,0,4.91,4.91,0,0,1,2.16,1.11,7.68,7.68,0,0,1,2.43,4.64,15.07,15.07,0,0,1-.4,5.75c-.12.49-.24,1-.39,1.46a12.19,12.19,0,0,0-.44,1.82,4.79,4.79,0,0,0,.31,2.43,11,11,0,0,0,.91,1.66,24.32,24.32,0,0,1,2.7,5.07A8,8,0,0,1,108.66,65Z"/><ellipse class="cls-2" cx="70.83" cy="62.45" rx="0.17" ry="5.91"/><path class="cls-2" d="M71.07,68.78a29.87,29.87,0,0,0,1-4.43,28.75,28.75,0,0,0,.61-4.48,30.69,30.69,0,0,0-1,4.43A29.58,29.58,0,0,0,71.07,68.78Z"/><path class="cls-2" d="M71.4,68.46A49.93,49.93,0,0,0,73.58,63a50.33,50.33,0,0,0,1.86-5.61,52.41,52.41,0,0,0-2.18,5.5A49.57,49.57,0,0,0,71.4,68.46Z"/><path class="cls-2" d="M71.49,68.93A30.36,30.36,0,0,0,73.9,65.1a29.53,29.53,0,0,0,2.11-4,30.36,30.36,0,0,0-2.41,3.83A29.53,29.53,0,0,0,71.49,68.93Z"/><path class="cls-2" d="M71.9,68.75a48,48,0,0,0,3.94-4.42,51.42,51.42,0,0,0,3.67-4.64,49.65,49.65,0,0,0-3.94,4.42A51.42,51.42,0,0,0,71.9,68.75Z"/><path class="cls-2" d="M71.83,69.21a28.55,28.55,0,0,0,3.58-2.77,28.64,28.64,0,0,0,3.35-3,30.55,30.55,0,0,0-3.58,2.78A30.25,30.25,0,0,0,71.83,69.21Z"/><path class="cls-2" d="M72.28,69.2a49.92,49.92,0,0,0,5.21-2.81,51.85,51.85,0,0,0,5-3.1,48.61,48.61,0,0,0-5.21,2.8A53,53,0,0,0,72.28,69.2Z"/><path class="cls-2" d="M72.05,69.6a29.33,29.33,0,0,0,4.31-1.38,30.42,30.42,0,0,0,4.19-1.71,30.18,30.18,0,0,0-4.31,1.38A31.09,31.09,0,0,0,72.05,69.6Z"/><path class="cls-2" d="M72.48,69.75a51.55,51.55,0,0,0,5.85-.86,50,50,0,0,0,5.8-1.2,51.54,51.54,0,0,0-5.86.86A49.54,49.54,0,0,0,72.48,69.75Z"/><ellipse class="cls-2" cx="76.65" cy="70.04" rx="4.52" ry="0.17"/><path class="cls-2" d="M72.48,70.33a52.14,52.14,0,0,0,5.79,1.2,50.06,50.06,0,0,0,5.86.85,51.4,51.4,0,0,0-5.8-1.19A51.55,51.55,0,0,0,72.48,70.33Z"/><path class="cls-2" d="M72.05,70.48a31.09,31.09,0,0,0,4.19,1.71,30.18,30.18,0,0,0,4.31,1.38,30.42,30.42,0,0,0-4.19-1.71A29.33,29.33,0,0,0,72.05,70.48Z"/><path class="cls-2" d="M72.28,70.88a51.85,51.85,0,0,0,5,3.1,49.92,49.92,0,0,0,5.21,2.81,51.85,51.85,0,0,0-5-3.1A49.92,49.92,0,0,0,72.28,70.88Z"/><path class="cls-2" d="M71.83,70.86a28.64,28.64,0,0,0,3.35,3,28.55,28.55,0,0,0,3.58,2.77,30.25,30.25,0,0,0-3.35-3A30.55,30.55,0,0,0,71.83,70.86Z"/><path class="cls-2" d="M71.9,71.33A53.12,53.12,0,0,0,75.57,76a49.65,49.65,0,0,0,3.94,4.42,50.67,50.67,0,0,0-3.67-4.65A47,47,0,0,0,71.9,71.33Z"/><path class="cls-2" d="M71.49,71.15a29.53,29.53,0,0,0,2.11,4A30.36,30.36,0,0,0,76,79a29.53,29.53,0,0,0-2.11-4A30.36,30.36,0,0,0,71.49,71.15Z"/><path class="cls-2" d="M71.4,71.62a50.33,50.33,0,0,0,1.86,5.61,52.41,52.41,0,0,0,2.18,5.5,50.07,50.07,0,0,0-1.86-5.62A49.22,49.22,0,0,0,71.4,71.62Z"/><path class="cls-2" d="M71.07,71.3a29.58,29.58,0,0,0,.62,4.48,30,30,0,0,0,1,4.42A29,29,0,0,0,72,75.72,29.91,29.91,0,0,0,71.07,71.3Z"/><ellipse class="cls-2" cx="70.83" cy="77.63" rx="0.17" ry="5.91"/><path class="cls-2" d="M70.63,71.3a29.91,29.91,0,0,0-1,4.42,29,29,0,0,0-.61,4.48,30,30,0,0,0,1-4.42A29.58,29.58,0,0,0,70.63,71.3Z"/><path class="cls-2" d="M70.25,71.62a49.22,49.22,0,0,0-2.18,5.49,50.07,50.07,0,0,0-1.86,5.62,52.41,52.41,0,0,0,2.18-5.5A50.33,50.33,0,0,0,70.25,71.62Z"/><ellipse class="cls-2" cx="67.95" cy="75.06" rx="4.52" ry="0.17" transform="translate(-31.03 96.38) rotate(-60)"/><path class="cls-2" d="M70,71a30.25,30.25,0,0,0-3,3.35A29.62,29.62,0,0,0,64.21,78a28.29,28.29,0,0,0,3-3.36A28.08,28.08,0,0,0,70,71Z"/><path class="cls-2" d="M69.54,71.12a51.42,51.42,0,0,0-4.64,3.67,52.58,52.58,0,0,0-4.42,3.93,51.42,51.42,0,0,0,4.64-3.67A52.58,52.58,0,0,0,69.54,71.12Z"/><path class="cls-2" d="M69.74,70.68a29.53,29.53,0,0,0-4,2.11,30.36,30.36,0,0,0-3.83,2.41,29.53,29.53,0,0,0,4-2.11A30.36,30.36,0,0,0,69.74,70.68Z"/><path class="cls-2" d="M69.25,70.61a52.67,52.67,0,0,0-5.62,1.86,51.08,51.08,0,0,0-5.5,2.19,51.85,51.85,0,0,0,5.62-1.86A51.08,51.08,0,0,0,69.25,70.61Z"/><path class="cls-2" d="M69.59,70.26a29.58,29.58,0,0,0-4.48.62,30.69,30.69,0,0,0-4.43,1,28.94,28.94,0,0,0,4.49-.61A29.91,29.91,0,0,0,69.59,70.26Z"/><ellipse class="cls-2" cx="63.23" cy="70.04" rx="5.91" ry="0.17"/><path class="cls-2" d="M69.59,69.82a29.91,29.91,0,0,0-4.42-1,28.94,28.94,0,0,0-4.49-.61,30.69,30.69,0,0,0,4.43,1A31.19,31.19,0,0,0,69.59,69.82Z"/><path class="cls-2" d="M69.25,69.47a51.08,51.08,0,0,0-5.5-2.19,49.33,49.33,0,0,0-5.62-1.86,49.93,49.93,0,0,0,5.5,2.18A54.27,54.27,0,0,0,69.25,69.47Z"/><path class="cls-2" d="M69.74,69.4A30.36,30.36,0,0,0,65.91,67a29.53,29.53,0,0,0-4-2.11,30.36,30.36,0,0,0,3.83,2.41A29.53,29.53,0,0,0,69.74,69.4Z"/><path class="cls-2" d="M69.54,69A52.58,52.58,0,0,0,65.12,65a51.42,51.42,0,0,0-4.64-3.67,52.58,52.58,0,0,0,4.42,3.93A51.42,51.42,0,0,0,69.54,69Z"/><path class="cls-2" d="M70,69.06a28.55,28.55,0,0,0-2.77-3.58,28.64,28.64,0,0,0-3-3.35A30.55,30.55,0,0,0,67,65.71,30.25,30.25,0,0,0,70,69.06Z"/><path class="cls-2" d="M70,68.59a52.32,52.32,0,0,0-2.81-5.21,51.65,51.65,0,0,0-3.11-5,52.32,52.32,0,0,0,2.81,5.21A49.45,49.45,0,0,0,70,68.59Z"/><path class="cls-2" d="M70.41,68.83A29.86,29.86,0,0,0,69,64.53a30.42,30.42,0,0,0-1.71-4.19,30.18,30.18,0,0,0,1.38,4.31A29.93,29.93,0,0,0,70.41,68.83Z"/><path class="cls-2" d="M70.63,68.78A29.58,29.58,0,0,0,70,64.3a30.69,30.69,0,0,0-1-4.43,28.75,28.75,0,0,0,.61,4.48A29.87,29.87,0,0,0,70.63,68.78Z"/><path class="cls-3" d="M86.25,98.26a.34.34,0,0,0-.43-.2.32.32,0,0,0-.22.33,4.66,4.66,0,0,1-.56.24l-.22.06a2.55,2.55,0,0,0-.22-.54c.07-.08.2-.19.28-.27a.17.17,0,0,0,.18,0,.16.16,0,0,0,0-.23.17.17,0,0,0-.24,0,.15.15,0,0,0,0,.19,1.49,1.49,0,0,1-.18.24l0,0a2.46,2.46,0,0,0-.75-.79l.07-.06a.08.08,0,0,0,.08,0,.07.07,0,0,0-.11-.09.08.08,0,0,0,0,.08l-.06.08a2.24,2.24,0,0,0-.63-.28l-.24,0c0-.15.08-.42.12-.59a.22.22,0,0,0,.18-.19.23.23,0,0,0-.2-.26.23.23,0,0,0-.27.19.22.22,0,0,0,.14.24,3.43,3.43,0,0,1,0,.41l0,.18a2.66,2.66,0,0,0-.63,0V96.9a0,0,0,0,0,0-.06.06.06,0,0,0-.11,0s0,0,.06,0,0,0,0,0a2.41,2.41,0,0,0-1.2.55l-.09-.16a.09.09,0,0,0,0-.12.1.1,0,0,0-.15,0,.1.1,0,0,0,0,.14.11.11,0,0,0,.12.06.65.65,0,0,1,.11.12v0a2.48,2.48,0,0,0-.48.59l0,0-.62-.48a.19.19,0,0,0-.07-.21.19.19,0,1,0-.24.3.21.21,0,0,0,.24,0l.52.35.17.14a2.43,2.43,0,0,0-.19.47,2.82,2.82,0,0,0-.09.57h-.11a.12.12,0,0,0-.1-.08.13.13,0,0,0-.12.11.11.11,0,0,0,.21,0h.12a2.07,2.07,0,0,0,.06.5h0c-.19.07-.6.17-.85.24a.34.34,0,0,0-.37-.1.32.32,0,0,0-.2.42.35.35,0,0,0,.44.2.33.33,0,0,0,.22-.33A4.43,4.43,0,0,1,80,100l.24-.07a2.27,2.27,0,0,0,.22.53c-.07.08-.21.21-.29.29a.17.17,0,0,0-.18,0,.15.15,0,0,0,0,.23.18.18,0,0,0,.24,0,.17.17,0,0,0,0-.2l.18-.23.06-.06a2.33,2.33,0,0,0,.75.78l-.08.08a.08.08,0,0,0-.08,0,.07.07,0,0,0,0,.1.08.08,0,0,0,.1,0,.05.05,0,0,0,0-.08l.07-.09a2.44,2.44,0,0,0,.64.28l.23,0h0c0,.14-.08.42-.12.59a.23.23,0,0,0-.19.19.25.25,0,0,0,.21.26.23.23,0,0,0,.13-.43,3.18,3.18,0,0,1,0-.41c0-.06,0-.13,0-.19a3.21,3.21,0,0,0,.62,0v.06a0,0,0,0,0,0,.06.07.07,0,0,0,.08,0,.06.06,0,0,0,0-.07.05.05,0,0,0-.06,0,.14.14,0,0,1,0-.06,2.28,2.28,0,0,0,1.19-.54,1.24,1.24,0,0,1,.1.2.1.1,0,0,0,0,.12.13.13,0,0,0,.16,0,.11.11,0,0,0,0-.15.13.13,0,0,0-.13,0l-.11-.16v0a2.48,2.48,0,0,0,.48-.59l0,0c.1.07.28.23.4.33a.18.18,0,0,0,.07.2.19.19,0,1,0,.24-.3.21.21,0,0,0-.24,0c-.08,0-.19-.11-.3-.19l-.16-.13a2.08,2.08,0,0,0,.19-.49,2.22,2.22,0,0,0,.08-.76l.12,0a.11.11,0,0,0,.09.09.11.11,0,1,0-.08-.16h-.13c0-.1,0-.2,0-.31l.83-.23a.34.34,0,0,0,.37.1A.32.32,0,0,0,86.25,98.26Z"/></svg>