<svg id="Capa_1" data-name="Capa 1" xmlns="http://www.w3.org/2000/svg" viewBox="0 0 141.45 141.45"><defs><style>.cls-1{fill:#ed2b59;}.cls-2,.cls-7{fill:#494949;}.cls-3{fill:#feffff;}.cls-4,.cls-5,.cls-6{fill:none;stroke:#494949;stroke-miterlimit:10;}.cls-5{stroke-width:0.5px;}.cls-6{stroke-width:0.75px;}.cls-7{font-size:12px;font-family:Poppins-SemiBold, Poppins;font-weight:600;}</style></defs><title>Icono_Fiebre_Síntomas</title><path class="cls-1" d="M70.72,141.45a70.73,70.73,0,1,1,70.73-70.73A70.81,70.81,0,0,1,70.72,141.45ZM70.72,10a60.73,60.73,0,1,0,60.73,60.72A60.79,60.79,0,0,0,70.72,10Z"/><path class="cls-2" d="M69.8,116.64A21.49,21.49,0,0,1,57.26,77.7V35.8a13,13,0,1,1,26,0V78.4A21.48,21.48,0,0,1,69.8,116.64Z"/><path class="cls-3" d="M69.8,112.93A17.78,17.78,0,0,1,61,79.72V35.8a9.29,9.29,0,0,1,18.57,0V80.29a17.77,17.77,0,0,1-9.74,32.64Z"/><path class="cls-1" d="M75.82,82.45V51H64.69V82.06a14.06,14.06,0,1,0,11.13.39Z"/><path class="cls-4" d="M75.82,82.45V35.8a5.57,5.57,0,1,0-11.13,0V82.06a14.06,14.06,0,1,0,11.13.39Z"/><line class="cls-5" x1="72.14" y1="40.99" x2="75.82" y2="40.99"/><line class="cls-5" x1="72.14" y1="42.44" x2="75.82" y2="42.44"/><line class="cls-5" x1="72.14" y1="43.88" x2="75.82" y2="43.88"/><line class="cls-5" x1="72.14" y1="45.33" x2="75.82" y2="45.33"/><line class="cls-5" x1="72.14" y1="46.77" x2="75.82" y2="46.77"/><line class="cls-5" x1="72.14" y1="48.22" x2="75.82" y2="48.22"/><line class="cls-5" x1="72.14" y1="49.66" x2="75.82" y2="49.66"/><line class="cls-6" x1="69.26" y1="51.11" x2="106.2" y2="51.11"/><line class="cls-5" x1="72.14" y1="52.55" x2="75.82" y2="52.55"/><line class="cls-5" x1="72.14" y1="54" x2="75.82" y2="54"/><line class="cls-5" x1="72.14" y1="55.44" x2="75.82" y2="55.44"/><line class="cls-5" x1="72.14" y1="56.89" x2="75.82" y2="56.89"/><line class="cls-5" x1="72.14" y1="58.33" x2="75.82" y2="58.33"/><line class="cls-5" x1="72.14" y1="59.77" x2="75.82" y2="59.77"/><line class="cls-5" x1="72.14" y1="61.22" x2="75.82" y2="61.22"/><line class="cls-5" x1="72.14" y1="62.66" x2="75.82" y2="62.66"/><line class="cls-5" x1="72.14" y1="64.11" x2="75.82" y2="64.11"/><line class="cls-5" x1="72.14" y1="65.55" x2="75.82" y2="65.55"/><text class="cls-7" transform="translate(85.54 48.67)">38º</text></svg>