<svg id="Capa_1" data-name="Capa 1" xmlns="http://www.w3.org/2000/svg" viewBox="0 0 312.98 77.64"><defs><style>.cls-1{fill:none;}.cls-2{fill:#fff;}.cls-3{fill:#fcd800;}.cls-4{fill:#75d3db;}</style></defs><title>Logo_Footer_TuVecinoTeAyuda_DEF</title><path class="cls-1" d="M242.49,25.67a2.66,2.66,0,0,0-2.06.83,3.27,3.27,0,0,0-.77,2.32,3.27,3.27,0,0,0,.77,2.32,2.66,2.66,0,0,0,2.06.83,2.69,2.69,0,0,0,2-.85,3.27,3.27,0,0,0,.8-2.3,3.26,3.26,0,0,0-.8-2.31A2.72,2.72,0,0,0,242.49,25.67Z"/><path class="cls-1" d="M226.76,25.67a2.65,2.65,0,0,0-2,.83,3.27,3.27,0,0,0-.78,2.32,3.27,3.27,0,0,0,.78,2.32,2.92,2.92,0,0,0,4.1,0,3.22,3.22,0,0,0,.8-2.3,3.22,3.22,0,0,0-.8-2.31A2.69,2.69,0,0,0,226.76,25.67Z"/><polygon class="cls-1" points="178.37 29.28 182.47 29.28 180.43 23.25 178.37 29.28"/><path class="cls-1" d="M164.82,25.32A2.63,2.63,0,0,0,163,26a2.69,2.69,0,0,0-.81,1.9h5.06a2.4,2.4,0,0,0-.69-1.91A2.49,2.49,0,0,0,164.82,25.32Z"/><path class="cls-1" d="M130.21,25.11a3.28,3.28,0,0,0-1.8.52,3.63,3.63,0,0,0-1.31,1.52,5.42,5.42,0,0,0-.49,2.37,3.13,3.13,0,0,0,.8,2.29,2.74,2.74,0,0,0,2,.81,3.3,3.3,0,0,0,1.79-.52,3.82,3.82,0,0,0,1.35-1.53,5.25,5.25,0,0,0,.53-2.45,3,3,0,0,0-.79-2.23A2.88,2.88,0,0,0,130.21,25.11Z"/><path class="cls-1" d="M72.77,24.85a3.23,3.23,0,0,0-2.23.82,3.35,3.35,0,0,0-1,2.38h6.24A2.87,2.87,0,0,0,75,25.67,3.16,3.16,0,0,0,72.77,24.85Z"/><path class="cls-1" d="M287.55,25.13a3.22,3.22,0,0,0-2.46,1,3.87,3.87,0,0,0-.93,2.74,3.8,3.8,0,0,0,.93,2.72,3.5,3.5,0,0,0,4.9,0,3.75,3.75,0,0,0,1-2.7,3.79,3.79,0,0,0-1-2.73A3.23,3.23,0,0,0,287.55,25.13Z"/><path class="cls-1" d="M263,25.11a3.12,3.12,0,0,0-2.31,1,3.8,3.8,0,0,0-.95,2.8,3.78,3.78,0,0,0,.95,2.79,3.27,3.27,0,0,0,4.63,0,3.78,3.78,0,0,0,1-2.79,3.8,3.8,0,0,0-1-2.8A3.12,3.12,0,0,0,263,25.11Z"/><polygon class="cls-2" points="21.29 21.52 25.79 21.52 25.79 35.29 29.05 35.29 29.05 21.52 33.58 21.52 33.58 18.92 21.29 18.92 21.29 21.52"/><path class="cls-2" d="M44.41,29.26a3.68,3.68,0,0,1-.84,2.6,2.93,2.93,0,0,1-2.25.9,2.76,2.76,0,0,1-2.13-.84,3.35,3.35,0,0,1-.79-2.38v-7.1H35.15v7.47A5.81,5.81,0,0,0,36.48,34,4.52,4.52,0,0,0,40,35.45a5,5,0,0,0,2.7-.73,4,4,0,0,0,1.69-2v2.6h3.27V22.44H44.41Z"/><polygon class="cls-2" points="57.32 31.88 52.94 18.92 49.44 18.92 55.23 35.29 59.43 35.29 65.23 18.92 61.73 18.92 57.32 31.88"/><path class="cls-2" d="M76.09,23.07a6.71,6.71,0,0,0-3.32-.79,6.84,6.84,0,0,0-3.34.79,5.56,5.56,0,0,0-2.28,2.28,7.29,7.29,0,0,0-.81,3.52,7.21,7.21,0,0,0,.81,3.5,5.62,5.62,0,0,0,2.28,2.28,6.74,6.74,0,0,0,3.34.8,7,7,0,0,0,2.91-.6,5.65,5.65,0,0,0,2.14-1.67,5.46,5.46,0,0,0,1.09-2.41H75.46a2.49,2.49,0,0,1-1,1.51,3.09,3.09,0,0,1-1.89.55A3,3,0,0,1,70.47,32a3.56,3.56,0,0,1-.93-2.53H79a5.85,5.85,0,0,0,.11-1.11,6.27,6.27,0,0,0-.77-3.14A5.5,5.5,0,0,0,76.09,23.07Zm-6.55,5a3.35,3.35,0,0,1,1-2.38,3.23,3.23,0,0,1,2.23-.82,3.16,3.16,0,0,1,2.19.82,2.87,2.87,0,0,1,.82,2.38Z"/><path class="cls-2" d="M87.1,25.09a2.9,2.9,0,0,1,1.88.59,2.68,2.68,0,0,1,1,1.61h3.45a5.86,5.86,0,0,0-2.07-3.66,6.36,6.36,0,0,0-4.14-1.35,6.87,6.87,0,0,0-3.34.79,5.48,5.48,0,0,0-2.27,2.28,7.18,7.18,0,0,0-.82,3.52,7.1,7.1,0,0,0,.82,3.5,5.54,5.54,0,0,0,2.27,2.28,6.76,6.76,0,0,0,3.34.8,6.41,6.41,0,0,0,4.14-1.34,5.92,5.92,0,0,0,2.07-3.67H89.93a2.68,2.68,0,0,1-1,1.61,2.9,2.9,0,0,1-1.88.6,2.78,2.78,0,0,1-2.17-1,4.06,4.06,0,0,1-.87-2.81,4.07,4.07,0,0,1,.87-2.82A2.8,2.8,0,0,1,87.1,25.09Z"/><path class="cls-2" d="M97.35,17a2.1,2.1,0,0,0-1.46.5,1.65,1.65,0,0,0-.56,1.29A1.62,1.62,0,0,0,95.89,20a2.38,2.38,0,0,0,2.92,0,1.61,1.61,0,0,0,.55-1.26,1.64,1.64,0,0,0-.55-1.29A2.12,2.12,0,0,0,97.35,17Z"/><rect class="cls-2" x="95.7" y="22.44" width="3.27" height="12.85"/><path class="cls-2" d="M109.59,22.26a5,5,0,0,0-2.7.73,4,4,0,0,0-1.68,2V22.44h-3.27V35.29h3.27V28.47a3.7,3.7,0,0,1,.83-2.59,2.87,2.87,0,0,1,2.23-.91,2.8,2.8,0,0,1,2.16.85,3.36,3.36,0,0,1,.79,2.37v7.1h3.24V27.82a5.89,5.89,0,0,0-1.32-4.1A4.52,4.52,0,0,0,109.59,22.26Z"/><path class="cls-2" d="M137.87,17.79a14.82,14.82,0,0,0-6.36-1.26,16.34,16.34,0,0,0-7.41,1.67A12.7,12.7,0,0,0,116.92,30a12.39,12.39,0,0,0,1.44,6.16,9.53,9.53,0,0,0,4.2,3.93,15.36,15.36,0,0,0,6.7,1.41l.6-2.67c-3.19,0-5.61-.76-7.27-2.3A8.47,8.47,0,0,1,120.1,30a11.76,11.76,0,0,1,1.27-5.5,9.32,9.32,0,0,1,3.75-3.87A11.68,11.68,0,0,1,131,19.2a10.92,10.92,0,0,1,4.95,1A6.94,6.94,0,0,1,139,23.05a8.41,8.41,0,0,1,1.05,4.26,8.49,8.49,0,0,1-.44,2.89A4.38,4.38,0,0,1,138.5,32a2.27,2.27,0,0,1-1.52.61,1.22,1.22,0,0,1-.89-.28,1.24,1.24,0,0,1-.29-1c0-.09,0-.27,0-.55l.37-2.51a7.19,7.19,0,0,0,.07-1,4.73,4.73,0,0,0-1.49-3.67,5.75,5.75,0,0,0-4-1.36,7.32,7.32,0,0,0-3.56.89,7.08,7.08,0,0,0-2.59,2.48,7.79,7.79,0,0,0-1.13,3.59c0,.17,0,.42,0,.76a6.38,6.38,0,0,0,.61,2.87,4.59,4.59,0,0,0,4.26,2.61,5.09,5.09,0,0,0,2.84-.77,6,6,0,0,0,2-2.2,3,3,0,0,0,1.1,2.25,4.09,4.09,0,0,0,2.52.72A5.62,5.62,0,0,0,140,34.39a7.7,7.7,0,0,0,2.45-3,9.5,9.5,0,0,0,.91-4.19A11,11,0,0,0,142,21.46,9.25,9.25,0,0,0,137.87,17.79Zm-5.29,12.78a3.82,3.82,0,0,1-1.35,1.53,3.3,3.3,0,0,1-1.79.52,2.74,2.74,0,0,1-2-.81,3.13,3.13,0,0,1-.8-2.29,5.42,5.42,0,0,1,.49-2.37,3.63,3.63,0,0,1,1.31-1.52,3.28,3.28,0,0,1,1.8-.52,2.88,2.88,0,0,1,2.11.78,3,3,0,0,1,.79,2.23A5.25,5.25,0,0,1,132.58,30.57Z"/><polygon class="cls-3" points="144.46 22.05 148.87 22.05 148.87 35.29 152.86 35.29 152.86 22.05 157.31 22.05 157.31 18.89 144.46 18.89 144.46 22.05"/><path class="cls-3" d="M168.21,23a7.6,7.6,0,0,0-6.77,0,5.66,5.66,0,0,0-2.31,2.29,7.23,7.23,0,0,0-.82,3.54,7.18,7.18,0,0,0,.83,3.52,5.71,5.71,0,0,0,2.31,2.31,7.47,7.47,0,0,0,6.32.19,5.94,5.94,0,0,0,2.18-1.7,5.44,5.44,0,0,0,1.11-2.44h-4.2a2.11,2.11,0,0,1-.76,1.14,2.39,2.39,0,0,1-1.46.44,2.42,2.42,0,0,1-1.72-.64,3,3,0,0,1-.74-2.1h9a5.31,5.31,0,0,0,.12-1.07,6.64,6.64,0,0,0-.8-3.28A5.53,5.53,0,0,0,168.21,23Zm-6,4.89A2.69,2.69,0,0,1,163,26a2.63,2.63,0,0,1,1.81-.65,2.49,2.49,0,0,1,1.75.64,2.4,2.4,0,0,1,.69,1.91Z"/><path class="cls-3" d="M178.16,19l-6,16.28h4.18l1-3h6.15l1,3h4.22l-6-16.28Zm.21,10.27,2.06-6,2,6Z"/><polygon class="cls-3" points="196.36 30.28 193.25 22.35 188.82 22.35 194.25 34.8 191.21 41.46 195.57 41.46 203.64 22.35 199.26 22.35 196.36 30.28"/><path class="cls-3" d="M213.85,29.21a3.14,3.14,0,0,1-.7,2.18,2.44,2.44,0,0,1-1.9.77,2.38,2.38,0,0,1-1.84-.73,2.87,2.87,0,0,1-.69-2.05v-7h-3.94v7.51A5.93,5.93,0,0,0,206.09,34a4.5,4.5,0,0,0,3.54,1.48,4.82,4.82,0,0,0,2.56-.67A4.39,4.39,0,0,0,213.85,33v2.34h4V22.35h-4Z"/><path class="cls-3" d="M229.59,24.69A3.9,3.9,0,0,0,228,22.86a4.66,4.66,0,0,0-2.55-.67,5.22,5.22,0,0,0-2.87.8,5.52,5.52,0,0,0-2,2.29,8,8,0,0,0-.73,3.54,7.9,7.9,0,0,0,.73,3.52,5.46,5.46,0,0,0,2,2.31,5.22,5.22,0,0,0,2.87.8,4.66,4.66,0,0,0,2.55-.67A3.9,3.9,0,0,0,229.59,33v2.34h4V18.13h-4Zm-.78,6.43a2.92,2.92,0,0,1-4.1,0,3.27,3.27,0,0,1-.78-2.32,3.27,3.27,0,0,1,.78-2.32,2.65,2.65,0,0,1,2-.83,2.69,2.69,0,0,1,2.05.84,3.22,3.22,0,0,1,.8,2.31A3.22,3.22,0,0,1,228.81,31.12Z"/><path class="cls-3" d="M245.34,24.69a4.07,4.07,0,0,0-1.58-1.83,4.66,4.66,0,0,0-2.55-.67,5.16,5.16,0,0,0-2.86.8,5.47,5.47,0,0,0-2,2.29,8,8,0,0,0-.73,3.54,7.9,7.9,0,0,0,.73,3.52,5.41,5.41,0,0,0,2,2.31,5.16,5.16,0,0,0,2.86.8,4.66,4.66,0,0,0,2.55-.67A4.07,4.07,0,0,0,245.34,33v2.34h3.94V22.35h-3.94Zm-.8,6.43a2.69,2.69,0,0,1-2,.85,2.66,2.66,0,0,1-2.06-.83,3.27,3.27,0,0,1-.77-2.32,3.27,3.27,0,0,1,.77-2.32,2.66,2.66,0,0,1,2.06-.83,2.72,2.72,0,0,1,2,.84,3.26,3.26,0,0,1,.8,2.31A3.27,3.27,0,0,1,244.54,31.12Z"/><rect class="cls-3" x="251.32" y="31.88" width="3.53" height="3.41"/><path class="cls-3" d="M266.34,23.07a7.6,7.6,0,0,0-6.75,0,5.73,5.73,0,0,0-2.35,2.28,7,7,0,0,0-.86,3.52,6.9,6.9,0,0,0,.86,3.5,5.79,5.79,0,0,0,2.35,2.28,7.52,7.52,0,0,0,6.75,0,5.79,5.79,0,0,0,2.35-2.28,6.9,6.9,0,0,0,.86-3.5,7,7,0,0,0-.86-3.52A5.73,5.73,0,0,0,266.34,23.07Zm-1.06,8.59a3.27,3.27,0,0,1-4.63,0,3.78,3.78,0,0,1-.95-2.79,3.8,3.8,0,0,1,.95-2.8,3.27,3.27,0,0,1,4.63,0,3.8,3.8,0,0,1,1,2.8A3.78,3.78,0,0,1,265.28,31.66Z"/><path class="cls-3" d="M275.14,24.9V22.44h-3.27V35.29h3.27V29.1q0-3.34,3.59-3.34h1v-3.5A5,5,0,0,0,277,23,5.33,5.33,0,0,0,275.14,24.9Z"/><path class="cls-3" d="M291,22.44v2.67a4.19,4.19,0,0,0-1.65-2.06,4.93,4.93,0,0,0-2.78-.77,5.5,5.5,0,0,0-2.93.79,5.3,5.3,0,0,0-2,2.28,7.9,7.9,0,0,0-.74,3.52,7.89,7.89,0,0,0,.74,3.51,5.24,5.24,0,0,0,2,2.28,5.5,5.5,0,0,0,2.93.79,4.93,4.93,0,0,0,2.78-.77A4.28,4.28,0,0,0,291,32.6v2.74a3.4,3.4,0,0,1-.89,2.56,3.22,3.22,0,0,1-2.32.85,3.62,3.62,0,0,1-2.05-.55,2.69,2.69,0,0,1-1.08-1.52H281.4a5.48,5.48,0,0,0,2.09,3.6A7.16,7.16,0,0,0,288,41.6a6.65,6.65,0,0,0,3.39-.81,5.18,5.18,0,0,0,2.11-2.24,7,7,0,0,0,.71-3.21V22.44Zm-1,9.13a3.5,3.5,0,0,1-4.9,0,3.8,3.8,0,0,1-.93-2.72,3.87,3.87,0,0,1,.93-2.74,3.49,3.49,0,0,1,4.9,0,3.79,3.79,0,0,1,1,2.73A3.75,3.75,0,0,1,290,31.57Z"/><path class="cls-4" d="M274.58,50.67a25.86,25.86,0,0,0-14.11,3.72c-2.71,1.48-4.84,2.64-9.17,2.64s-6.47-1.16-9.17-2.64a28.64,28.64,0,0,0-28.23,0A16.45,16.45,0,0,1,204.71,57c-4.35,0-6.47-1.16-9.17-2.64a28.66,28.66,0,0,0-28.24,0c-2.7,1.48-4.83,2.64-9.17,2.64h-.81c-4.34,0-6.47-1.16-9.17-2.64A26.09,26.09,0,0,0,134,50.64a25.86,25.86,0,0,0-14.11,3.72c-2.71,1.48-4.84,2.64-9.18,2.64s-6.46-1.16-9.17-2.64a25.86,25.86,0,0,0-14.11-3.72,26,26,0,0,0-14.12,3.72A15.92,15.92,0,0,1,64.2,57,16.38,16.38,0,0,1,55,54.39a26.09,26.09,0,0,0-14.12-3.72c-1.82,0-3.3.71-3.3,1.59s1.48,1.59,3.3,1.59c4.33,0,6.47,1.17,9.17,2.65A26,26,0,0,0,64.2,60.22,26,26,0,0,0,78.31,56.5c2.7-1.48,4.84-2.65,9.17-2.65S94,55,96.65,56.5a26,26,0,0,0,14.11,3.72,26.09,26.09,0,0,0,14.12-3.72c2.7-1.48,4.84-2.65,9.17-2.65s6.47,1.17,9.17,2.65a26,26,0,0,0,14.12,3.72h.81a26.09,26.09,0,0,0,14.12-3.72c2.7-1.48,4.84-2.65,9.17-2.65s6.47,1.15,9.17,2.65a28.64,28.64,0,0,0,28.23,0c2.7-1.48,4.84-2.65,9.17-2.65s6.47,1.17,9.17,2.65a28.64,28.64,0,0,0,28.23,0c2.7-1.48,4.84-2.65,9.17-2.65,1.82,0,3.3-.71,3.3-1.59S276.4,50.67,274.58,50.67Z"/></svg>