<svg id="Capa_1" data-name="Capa 1" xmlns="http://www.w3.org/2000/svg" viewBox="0 0 312.98 77.64"><defs><style>.cls-1{font-size:23.19px;fill:#fff;font-family:Poppins-SemiBold, Poppins;font-weight:600;}.cls-2,.cls-3{fill:#fcd800;}.cls-2{font-family:Poppins-Bold, Poppins;font-weight:700;}.cls-4{fill:#94dcd2;}</style></defs><title>Logo_Footer_TuVecinoTeAyuda-12-13</title><text class="cls-1" transform="translate(20.67 35.29)">TuVecin@<tspan class="cls-2" x="123.2" y="0">TeAyuda</tspan><tspan class="cls-3" x="229.69" y="0">.org</tspan></text><path class="cls-4" d="M274.87,50.67a25.91,25.91,0,0,0-14.11,3.72c-2.71,1.48-4.84,2.64-9.17,2.64s-6.47-1.16-9.17-2.64a28.64,28.64,0,0,0-28.23,0C211.49,55.87,209.35,57,205,57s-6.47-1.16-9.17-2.64a28.66,28.66,0,0,0-28.24,0c-2.7,1.48-4.83,2.64-9.17,2.64l-.4,0-.41,0c-4.34,0-6.47-1.16-9.17-2.64a26,26,0,0,0-14.12-3.72,25.91,25.91,0,0,0-14.11,3.72c-2.71,1.48-4.84,2.64-9.18,2.64s-6.46-1.16-9.17-2.64a25.91,25.91,0,0,0-14.11-3.72,26,26,0,0,0-14.12,3.72C71,55.87,68.82,57,64.49,57S58,55.87,55.32,54.39A26,26,0,0,0,41.2,50.67c-1.82,0-3.3.71-3.3,1.59s1.48,1.59,3.3,1.59c4.33,0,6.47,1.17,9.17,2.65a26,26,0,0,0,14.12,3.72A26,26,0,0,0,78.6,56.5c2.7-1.48,4.84-2.65,9.17-2.65S94.24,55,96.94,56.5a26,26,0,0,0,14.11,3.72,26,26,0,0,0,14.12-3.72c2.7-1.48,4.84-2.65,9.17-2.65s6.47,1.17,9.17,2.65a26.06,26.06,0,0,0,14.12,3.72l.41,0,.4,0a26,26,0,0,0,14.12-3.72c2.7-1.48,4.84-2.65,9.17-2.65S188.2,55,190.9,56.5a28.64,28.64,0,0,0,28.23,0c2.7-1.48,4.84-2.65,9.17-2.65s6.47,1.17,9.17,2.65a28.64,28.64,0,0,0,28.23,0c2.7-1.48,4.84-2.65,9.17-2.65,1.82,0,3.3-.71,3.3-1.59S276.69,50.67,274.87,50.67Z"/></svg>