<svg id="prefix__Capa_1" data-name="Capa 1" xmlns="http://www.w3.org/2000/svg" viewBox="0 0 312.98 77.64"><defs><style>.prefix__cls-1{fill:none}.prefix__cls-2{fill:#fff}.prefix__cls-3{fill:#fcd800}</style></defs><path class="prefix__cls-1" d="M242.49 25.67a2.66 2.66 0 00-2.06.83 3.27 3.27 0 00-.77 2.32 3.27 3.27 0 00.77 2.32 2.66 2.66 0 002.06.83 2.69 2.69 0 002-.85 3.27 3.27 0 00.8-2.3 3.26 3.26 0 00-.8-2.31 2.72 2.72 0 00-2-.84zM226.76 25.67a2.65 2.65 0 00-2 .83 3.27 3.27 0 00-.78 2.32 3.27 3.27 0 00.78 2.32 2.92 2.92 0 004.1 0 3.22 3.22 0 00.8-2.3 3.22 3.22 0 00-.8-2.31 2.69 2.69 0 00-2.1-.86zM178.37 29.28h4.1l-2.04-6.03-2.06 6.03zM164.82 25.32A2.63 2.63 0 00163 26a2.69 2.69 0 00-.81 1.9h5.06a2.4 2.4 0 00-.69-1.91 2.49 2.49 0 00-1.74-.67zM130.21 25.11a3.28 3.28 0 00-1.8.52 3.63 3.63 0 00-1.31 1.52 5.42 5.42 0 00-.49 2.37 3.13 3.13 0 00.8 2.29 2.74 2.74 0 002 .81 3.3 3.3 0 001.79-.52 3.82 3.82 0 001.35-1.53 5.25 5.25 0 00.53-2.45 3 3 0 00-.79-2.23 2.88 2.88 0 00-2.08-.78zM72.77 24.85a3.23 3.23 0 00-2.23.82 3.35 3.35 0 00-1 2.38h6.24a2.87 2.87 0 00-.78-2.38 3.16 3.16 0 00-2.23-.82zM287.55 25.13a3.22 3.22 0 00-2.46 1 3.87 3.87 0 00-.93 2.74 3.8 3.8 0 00.93 2.72 3.5 3.5 0 004.9 0 3.75 3.75 0 001-2.7 3.79 3.79 0 00-1-2.73 3.23 3.23 0 00-2.44-1.03zM263 25.11a3.12 3.12 0 00-2.31 1 3.8 3.8 0 00-.95 2.8 3.78 3.78 0 00.95 2.79 3.27 3.27 0 004.63 0 3.78 3.78 0 001-2.79 3.8 3.8 0 00-1-2.8 3.12 3.12 0 00-2.32-1z"/><path class="prefix__cls-2" d="M21.29 21.52h4.5v13.77h3.26V21.52h4.53v-2.6H21.29v2.6zM44.41 29.26a3.68 3.68 0 01-.84 2.6 2.93 2.93 0 01-2.25.9 2.76 2.76 0 01-2.13-.84 3.35 3.35 0 01-.79-2.38v-7.1h-3.25v7.47A5.81 5.81 0 0036.48 34 4.52 4.52 0 0040 35.45a5 5 0 002.7-.73 4 4 0 001.69-2v2.6h3.27V22.44h-3.25zM57.32 31.88l-4.38-12.96h-3.5l5.79 16.37h4.2l5.8-16.37h-3.5l-4.41 12.96zM76.09 23.07a6.71 6.71 0 00-3.32-.79 6.84 6.84 0 00-3.34.79 5.56 5.56 0 00-2.28 2.28 7.29 7.29 0 00-.81 3.52 7.21 7.21 0 00.81 3.5 5.62 5.62 0 002.28 2.28 6.74 6.74 0 003.34.8 7 7 0 002.91-.6 5.65 5.65 0 002.14-1.67 5.46 5.46 0 001.09-2.41h-3.45a2.49 2.49 0 01-1 1.51 3.09 3.09 0 01-1.89.55 3 3 0 01-2.1-.83 3.56 3.56 0 01-.93-2.53H79a5.85 5.85 0 00.11-1.11 6.27 6.27 0 00-.77-3.14 5.5 5.5 0 00-2.25-2.15zm-6.55 5a3.35 3.35 0 011-2.38 3.23 3.23 0 012.23-.82 3.16 3.16 0 012.19.82 2.87 2.87 0 01.82 2.38zM87.1 25.09a2.9 2.9 0 011.88.59 2.68 2.68 0 011 1.61h3.45a5.86 5.86 0 00-2.07-3.66 6.36 6.36 0 00-4.14-1.35 6.87 6.87 0 00-3.34.79 5.48 5.48 0 00-2.27 2.28 7.18 7.18 0 00-.82 3.52 7.1 7.1 0 00.82 3.5 5.54 5.54 0 002.27 2.28 6.76 6.76 0 003.34.8 6.41 6.41 0 004.14-1.34 5.92 5.92 0 002.07-3.67h-3.5a2.68 2.68 0 01-1 1.61 2.9 2.9 0 01-1.88.6 2.78 2.78 0 01-2.17-1 4.06 4.06 0 01-.87-2.81 4.07 4.07 0 01.87-2.82 2.8 2.8 0 012.22-.93zM97.35 17a2.1 2.1 0 00-1.46.5 1.65 1.65 0 00-.56 1.29 1.62 1.62 0 00.56 1.21 2.38 2.38 0 002.92 0 1.61 1.61 0 00.55-1.26 1.64 1.64 0 00-.55-1.29 2.12 2.12 0 00-1.46-.45zM95.7 22.44h3.27v12.85H95.7zM109.59 22.26a5 5 0 00-2.7.73 4 4 0 00-1.68 2v-2.55h-3.27v12.85h3.27v-6.82a3.7 3.7 0 01.83-2.59 2.87 2.87 0 012.23-.91 2.8 2.8 0 012.16.85 3.36 3.36 0 01.79 2.37v7.1h3.24v-7.47a5.89 5.89 0 00-1.32-4.1 4.52 4.52 0 00-3.55-1.46zM137.87 17.79a14.82 14.82 0 00-6.36-1.26 16.34 16.34 0 00-7.41 1.67 12.7 12.7 0 00-7.18 11.8 12.39 12.39 0 001.44 6.16 9.53 9.53 0 004.2 3.93 15.36 15.36 0 006.7 1.41l.6-2.67c-3.19 0-5.61-.76-7.27-2.3A8.47 8.47 0 01120.1 30a11.76 11.76 0 011.27-5.5 9.32 9.32 0 013.75-3.87A11.68 11.68 0 01131 19.2a10.92 10.92 0 014.95 1 6.94 6.94 0 013.05 2.85 8.41 8.41 0 011.05 4.26 8.49 8.49 0 01-.44 2.89 4.38 4.38 0 01-1.11 1.8 2.27 2.27 0 01-1.52.61 1.22 1.22 0 01-.89-.28 1.24 1.24 0 01-.29-1v-.55l.37-2.51a7.19 7.19 0 00.07-1 4.73 4.73 0 00-1.49-3.67 5.75 5.75 0 00-4-1.36 7.32 7.32 0 00-3.56.89 7.08 7.08 0 00-2.59 2.48 7.79 7.79 0 00-1.13 3.59v.76a6.38 6.38 0 00.61 2.87 4.59 4.59 0 004.26 2.61 5.09 5.09 0 002.84-.77 6 6 0 002-2.2 3 3 0 001.1 2.25 4.09 4.09 0 002.52.72 5.62 5.62 0 003.2-1.05 7.7 7.7 0 002.45-3 9.5 9.5 0 00.91-4.19 11 11 0 00-1.36-5.74 9.25 9.25 0 00-4.13-3.67zm-5.29 12.78a3.82 3.82 0 01-1.35 1.53 3.3 3.3 0 01-1.79.52 2.74 2.74 0 01-2-.81 3.13 3.13 0 01-.8-2.29 5.42 5.42 0 01.49-2.37 3.63 3.63 0 011.31-1.52 3.28 3.28 0 011.8-.52 2.88 2.88 0 012.11.78 3 3 0 01.79 2.23 5.25 5.25 0 01-.56 2.45z"/><path class="prefix__cls-3" d="M144.46 22.05h4.41v13.24h3.99V22.05h4.45v-3.16h-12.85v3.16zM168.21 23a7.6 7.6 0 00-6.77 0 5.66 5.66 0 00-2.31 2.29 7.23 7.23 0 00-.82 3.54 7.18 7.18 0 00.83 3.52 5.71 5.71 0 002.31 2.31 7.47 7.47 0 006.32.19 5.94 5.94 0 002.18-1.7 5.44 5.44 0 001.11-2.44h-4.2a2.11 2.11 0 01-.76 1.14 2.39 2.39 0 01-1.46.44 2.42 2.42 0 01-1.72-.64 3 3 0 01-.74-2.1h9a5.31 5.31 0 00.12-1.07 6.64 6.64 0 00-.8-3.28 5.53 5.53 0 00-2.29-2.2zm-6 4.89A2.69 2.69 0 01163 26a2.63 2.63 0 011.81-.65 2.49 2.49 0 011.75.64 2.4 2.4 0 01.69 1.91zM178.16 19l-6 16.28h4.18l1-3h6.15l1 3h4.22l-6-16.28zm.21 10.27l2.06-6 2 6zM196.36 30.28l-3.11-7.93h-4.43l5.43 12.45-3.04 6.66h4.36l8.07-19.11h-4.38l-2.9 7.93zM213.85 29.21a3.14 3.14 0 01-.7 2.18 2.44 2.44 0 01-1.9.77 2.38 2.38 0 01-1.84-.73 2.87 2.87 0 01-.69-2.05v-7h-3.94v7.51a5.93 5.93 0 001.31 4.11 4.5 4.5 0 003.54 1.48 4.82 4.82 0 002.56-.67 4.39 4.39 0 001.66-1.81v2.34h4V22.35h-4zM229.59 24.69a3.9 3.9 0 00-1.59-1.83 4.66 4.66 0 00-2.55-.67 5.22 5.22 0 00-2.87.8 5.52 5.52 0 00-2 2.29 8 8 0 00-.73 3.54 7.9 7.9 0 00.73 3.52 5.46 5.46 0 002 2.31 5.22 5.22 0 002.87.8 4.66 4.66 0 002.55-.67 3.9 3.9 0 001.59-1.78v2.34h4V18.13h-4zm-.78 6.43a2.92 2.92 0 01-4.1 0 3.27 3.27 0 01-.78-2.32 3.27 3.27 0 01.78-2.32 2.65 2.65 0 012-.83 2.69 2.69 0 012.05.84 3.22 3.22 0 01.8 2.31 3.22 3.22 0 01-.75 2.32zM245.34 24.69a4.07 4.07 0 00-1.58-1.83 4.66 4.66 0 00-2.55-.67 5.16 5.16 0 00-2.86.8 5.47 5.47 0 00-2 2.29 8 8 0 00-.73 3.54 7.9 7.9 0 00.73 3.52 5.41 5.41 0 002 2.31 5.16 5.16 0 002.86.8 4.66 4.66 0 002.55-.67 4.07 4.07 0 001.58-1.78v2.34h3.94V22.35h-3.94zm-.8 6.43a2.69 2.69 0 01-2 .85 2.66 2.66 0 01-2.06-.83 3.27 3.27 0 01-.77-2.32 3.27 3.27 0 01.77-2.32 2.66 2.66 0 012.06-.83 2.72 2.72 0 012 .84 3.26 3.26 0 01.8 2.31 3.27 3.27 0 01-.8 2.3zM251.32 31.88h3.53v3.41h-3.53zM266.34 23.07a7.6 7.6 0 00-6.75 0 5.73 5.73 0 00-2.35 2.28 7 7 0 00-.86 3.52 6.9 6.9 0 00.86 3.5 5.79 5.79 0 002.35 2.28 7.52 7.52 0 006.75 0 5.79 5.79 0 002.35-2.28 6.9 6.9 0 00.86-3.5 7 7 0 00-.86-3.52 5.73 5.73 0 00-2.35-2.28zm-1.06 8.59a3.27 3.27 0 01-4.63 0 3.78 3.78 0 01-.95-2.79 3.8 3.8 0 01.95-2.8 3.27 3.27 0 014.63 0 3.8 3.8 0 011 2.8 3.78 3.78 0 01-1 2.79zM275.14 24.9v-2.46h-3.27v12.85h3.27V29.1q0-3.34 3.59-3.34h1v-3.5A5 5 0 00277 23a5.33 5.33 0 00-1.86 1.9zM291 22.44v2.67a4.19 4.19 0 00-1.65-2.06 4.93 4.93 0 00-2.78-.77 5.5 5.5 0 00-2.93.79 5.3 5.3 0 00-2 2.28 7.9 7.9 0 00-.74 3.52 7.89 7.89 0 00.74 3.51 5.24 5.24 0 002 2.28 5.5 5.5 0 002.93.79 4.93 4.93 0 002.78-.77A4.28 4.28 0 00291 32.6v2.74a3.4 3.4 0 01-.89 2.56 3.22 3.22 0 01-2.32.85 3.62 3.62 0 01-2.05-.55 2.69 2.69 0 01-1.08-1.52h-3.26a5.48 5.48 0 002.09 3.6A7.16 7.16 0 00288 41.6a6.65 6.65 0 003.39-.81 5.18 5.18 0 002.11-2.24 7 7 0 00.71-3.21v-12.9zm-1 9.13a3.5 3.5 0 01-4.9 0 3.8 3.8 0 01-.93-2.72 3.87 3.87 0 01.93-2.74 3.49 3.49 0 014.9 0 3.79 3.79 0 011 2.73 3.75 3.75 0 01-1 2.73z"/><path d="M274.58 50.67a25.86 25.86 0 00-14.11 3.72c-2.71 1.48-4.84 2.64-9.17 2.64s-6.47-1.16-9.17-2.64a28.64 28.64 0 00-28.23 0 16.45 16.45 0 01-9.19 2.61c-4.35 0-6.47-1.16-9.17-2.64a28.66 28.66 0 00-28.24 0c-2.7 1.48-4.83 2.64-9.17 2.64h-.81c-4.34 0-6.47-1.16-9.17-2.64A26.09 26.09 0 00134 50.64a25.86 25.86 0 00-14.11 3.72c-2.71 1.48-4.84 2.64-9.18 2.64s-6.46-1.16-9.17-2.64a25.86 25.86 0 00-14.11-3.72 26 26 0 00-14.12 3.72A15.92 15.92 0 0164.2 57a16.38 16.38 0 01-9.2-2.61 26.09 26.09 0 00-14.12-3.72c-1.82 0-3.3.71-3.3 1.59s1.48 1.59 3.3 1.59c4.33 0 6.47 1.17 9.17 2.65a26 26 0 0014.15 3.72 26 26 0 0014.11-3.72c2.7-1.48 4.84-2.65 9.17-2.65S94 55 96.65 56.5a26 26 0 0014.11 3.72 26.09 26.09 0 0014.12-3.72c2.7-1.48 4.84-2.65 9.17-2.65s6.47 1.17 9.17 2.65a26 26 0 0014.12 3.72h.81a26.09 26.09 0 0014.12-3.72c2.7-1.48 4.84-2.65 9.17-2.65s6.47 1.15 9.17 2.65a28.64 28.64 0 0028.23 0c2.7-1.48 4.84-2.65 9.17-2.65s6.47 1.17 9.17 2.65a28.64 28.64 0 0028.23 0c2.7-1.48 4.84-2.65 9.17-2.65 1.82 0 3.3-.71 3.3-1.59s-1.48-1.59-3.3-1.59z" fill="#75d3db"/></svg>