<svg id="prefix__Capa_1" data-name="Capa 1" xmlns="http://www.w3.org/2000/svg" viewBox="0 0 76.98 77.2"><defs><style>.prefix__cls-1{fill:#363636}</style></defs><path class="prefix__cls-1" d="M38.75 74.67a36.34 36.34 0 1136.34-36.34 36.39 36.39 0 01-36.34 36.34zm0-68.67a32.34 32.34 0 1032.34 32.33A32.38 32.38 0 0038.75 6z"/><path class="prefix__cls-1" d="M64.26 38.53v-.83l-.07-.83v-.2a.15.15 0 000-.06v-.09a1 1 0 00-.51-.77l-.16-.07a24.74 24.74 0 00-49.28 0l-.18.08a1.07 1.07 0 00-.47.58.58.58 0 000 .19v.09a.15.15 0 000 .06v.2l-.07.83v.83a21.56 21.56 0 00-.01 3.46 20.51 20.51 0 002.09 6.43 20 20 0 003.31 4.66l.42.43a28.54 28.54 0 002 2.3c.4.42.8.81 1.22 1.2v.49A3.63 3.63 0 0025.59 61c1.06.21 2.39.43 4 .63A23.37 23.37 0 0048 61.6c1.58-.2 2.91-.42 4-.63a3.63 3.63 0 003.09-3.47V57c.41-.39.82-.78 1.21-1.2a25.29 25.29 0 002-2.38c.12-.11.23-.22.35-.35A20 20 0 0062 48.42 20.24 20.24 0 0064 42a20.5 20.5 0 00.26-3.47zM22.5 44.09v4.35a14.2 14.2 0 01-1.81-2.82 2.67 2.67 0 00.78-1.29l-.74-.22a1.72 1.72 0 01-.82 1.12 1.74 1.74 0 01-1.26 0l-.14.36-.15.36a2.82 2.82 0 00.93.16A2.4 2.4 0 0020 46a15.59 15.59 0 002.48 3.61v5.69l-.1-.07a15.88 15.88 0 01-2.7-2.65 22.32 22.32 0 01-2.9-4.58 21.57 21.57 0 01-2.11-9.45v-.8-.94h.14l.39.18.26.15c.22.13.43.27.64.41.42.29.82.59 1.2.89.75.6 1.44 1.19 2.06 1.73l2.93 2.59a3.31 3.31 0 00.3.25 3.26 3.26 0 00-.09 1.08zm16.29 18.17a22.08 22.08 0 01-2.45-.14h4.9a22.22 22.22 0 01-2.45.14zM53.84 49.8l-.07.06.07.07v7.57a1.89 1.89 0 01-.12.67 2.55 2.55 0 01-2 1.58l-.33.07c-1 .2-2.31.4-3.8.58a71.72 71.72 0 01-8.83.52A71.59 71.59 0 0130 60.4c-1.49-.18-2.76-.38-3.8-.58l-.33-.07a2.56 2.56 0 01-2-1.58 2.14 2.14 0 01-.11-.67V44.09a2.4 2.4 0 012-2.24A46 46 0 0131.1 41c.9-.1 1.87-.18 2.92-.25 1.45-.08 3-.14 4.77-.14 1.43 0 2.76 0 4 .1 1.06.05 2 .13 2.95.21a50.86 50.86 0 016.09.92 2.4 2.4 0 012 2.24zm.83-7.29a3.81 3.81 0 00-2.59-1.87 49.75 49.75 0 00-6.16-.93 49.27 49.27 0 00.41-6.64c0-6.16-.92-11.15-2-11.15s-2.06 5-2.06 11.15a50 50 0 00.38 6.4c-1.19 0-2.46-.08-3.81-.08-1.66 0-3.18 0-4.58.12a50.51 50.51 0 00.38-6.44c0-6.16-.92-11.15-2.05-11.15s-2.05 5-2.05 11.15a50.16 50.16 0 00.41 6.71 52.2 52.2 0 00-5.41.86 3.82 3.82 0 00-2.59 1.89l-.09-.11c-.57-.7-1.45-1.68-2.61-2.85-.58-.59-1.24-1.22-2-1.87-.38-.33-.78-.66-1.22-1a7.63 7.63 0 00-.69-.49 7.22 7.22 0 00-.84-.45h-.08a23.5 23.5 0 0146.8 0h-.1a7.22 7.22 0 00-.84.45c-.25.16-.48.32-.7.49-.43.32-.83.65-1.21 1-.74.65-1.4 1.28-2 1.87-1.16 1.17-2 2.15-2.62 2.85a.31.31 0 01-.08.09zm8-.67A21.64 21.64 0 0160.78 48a22.32 22.32 0 01-2.92 4.58 15.88 15.88 0 01-2.7 2.65l-.08.06v-5.66A15.29 15.29 0 0057.56 46a2.13 2.13 0 00.76.13 2.84 2.84 0 00.94-.16l-.26-.72a1.79 1.79 0 01-1.26 0 1.69 1.69 0 01-.82-1.12l-.74.22a2.66 2.66 0 00.75 1.27 14.46 14.46 0 01-1.82 2.85v-4.38a3.32 3.32 0 00-.2-1.13l.28-.24 2.93-2.59c.62-.54 1.31-1.13 2.06-1.73.38-.3.78-.6 1.2-.89.21-.14.42-.28.64-.41l.28-.16.37-.17h.14v1.79a21.86 21.86 0 01-.15 3.28z"/><path class="prefix__cls-1" d="M50.43 48A137.41 137.41 0 0030 47.8c-1 .06-1.93.12-2.9.2a.82.82 0 00-.8.79.8.8 0 00.8.79 137.54 137.54 0 0120.4-.21c1 .06 1.93.12 2.89.21a.79.79 0 100-1.58zM27.36 45.32h.55l.63-.07c1.7-.17 3.41-.24 5.12-.29q4.64-.12 9.27 0c1.9 0 3.8.11 5.69.27l.83.08h.37c.13 0 .27 0 .4.06 1 .22 1.43-1.3.43-1.51a14.07 14.07 0 00-1.57-.21c-1.33-.13-2.67-.2-4-.25H43.47c-3-.07-5.91-.08-8.87 0h-1.24l-1.59.06c-1 0-1.91.1-2.86.18a16.32 16.32 0 00-2 .25c-.99.11-.56 1.65.45 1.43zM50.43 52.28a137.41 137.41 0 01-20.43.21c-1-.06-1.93-.13-2.9-.21a.79.79 0 100 1.57 137.54 137.54 0 0020.4.21c1-.06 1.93-.12 2.89-.21a.81.81 0 00.8-.78.79.79 0 00-.76-.79zM50.22 56.22l-.32.05h-.23l-.63.06c-1.7.17-3.42.24-5.12.29-3.09.09-6.18.09-9.27 0-1.9 0-3.8-.1-5.7-.27l-.82-.08h-.37l-.4-.07c-1-.22-1.44 1.3-.43 1.52a13.75 13.75 0 001.57.2c1.71.17 3.44.24 5.16.29 3.11.09 6.22.09 9.33 0 1.89 0 3.8-.1 5.69-.27a16.55 16.55 0 002-.24c.97-.18.55-1.7-.46-1.48z"/></svg>