<svg id="prefix__Capa_1" data-name="Capa 1" xmlns="http://www.w3.org/2000/svg" viewBox="0 0 75.87 76.31"><defs><style>.prefix__cls-1{fill:none}.prefix__cls-2{fill:#363636}</style></defs><path class="prefix__cls-1" d="M29.41 25.74a1.13 1.13 0 00.89-.38 1.39 1.39 0 00.34-1 1.44 1.44 0 00-.33-1 1.27 1.27 0 00-1.8 0 1.48 1.48 0 00-.33 1 1.44 1.44 0 00.33 1 1.14 1.14 0 00.9.38zM47.41 23.25l-.6 1.77H48l-.59-1.77z"/><path class="prefix__cls-1" d="M19.3 18.8v45a32.19 32.19 0 0037.35 0v-45zM46.75 22h1.32l1.75 4.77h-1.23l-.29-.88h-1.79l-.29.88H45zm-3.35 0h1.15v4.8H43.4zm-4.95 1.1a2.1 2.1 0 01.81-.86 2.59 2.59 0 012.73.17 2.27 2.27 0 01.77 1.31h-1.22a1.11 1.11 0 00-.42-.53 1.17 1.17 0 00-.66-.19 1 1 0 00-.81.38 1.47 1.47 0 00-.31 1 1.5 1.5 0 00.31 1 1 1 0 00.81.37 1.17 1.17 0 00.66-.19 1.13 1.13 0 00.42-.52h1.22a2.24 2.24 0 01-.77 1.3 2.28 2.28 0 01-1.51.49 2.43 2.43 0 01-1.22-.31 2.13 2.13 0 01-.81-.87 2.73 2.73 0 01-.28-1.27 2.79 2.79 0 01.28-1.28zM36.36 22h1.15v4.8h-1.15zm-4.21 0h3.73v.92h-1.3v3.88h-1.15v-3.9h-1.28zm-4.83 1.11a2.45 2.45 0 013.31-.87 2.25 2.25 0 01.86.87 2.47 2.47 0 01.32 1.27 2.58 2.58 0 01-.32 1.27 2.23 2.23 0 01-.87.88 2.37 2.37 0 01-1.21.31 2.41 2.41 0 01-1.22-.31 2.37 2.37 0 01-.87-.88 2.68 2.68 0 010-2.54zM22.12 22h1.16l1.92 3v-3h1.15v4.8H25.2l-1.92-3v3h-1.16zm31.56 39.3H22.12v-1.7h31.56zm0-3.67H22.12v-1.7h31.56zm0-3.67H22.12v-1.71h31.56zm0-3.68H22.12v-1.7h31.56zm0-3.67H22.12v-1.7h31.56zm0-3.67H22.12v-1.71h31.56zm0-3.68H22.12v-1.7h31.56zm0-3.67H22.12v-1.71h31.56zm0-3.67H22.12v-1.71h31.56zm-.19-5.8a1.29 1.29 0 01-.57.51 1.9 1.9 0 01-.9.19 2.15 2.15 0 01-1.32-.39 1.44 1.44 0 01-.57-1.1h1.23a.69.69 0 00.19.43.6.6 0 00.42.15.48.48 0 00.35-.12.41.41 0 00.13-.32.41.41 0 00-.12-.31A.88.88 0 0052 25l-.49-.19a4.93 4.93 0 01-.73-.3 1.26 1.26 0 01-.49-.43 1.4 1.4 0 010-1.49 1.34 1.34 0 01.59-.48 2.21 2.21 0 01.87-.17 2 2 0 011.27.38 1.48 1.48 0 01.52 1h-1.19a.64.64 0 00-.17-.38.52.52 0 00-.38-.14.48.48 0 00-.32.11.38.38 0 00-.13.32.44.44 0 00.11.29.92.92 0 00.28.19c.12.05.28.12.49.19a7.53 7.53 0 01.75.31 1.39 1.39 0 01.49.45 1.25 1.25 0 01.21.76 1.28 1.28 0 01-.19.7z"/><path class="prefix__cls-1" d="M38 5.1a32.33 32.33 0 00-20.41 57.43V17.09h40.77v45.44A32.33 32.33 0 0038 5.1z"/><path class="prefix__cls-2" d="M38 1.1a36.34 36.34 0 00-20.41 66.42c.56.38 1.13.74 1.71 1.09a36.25 36.25 0 0037.35 0c.58-.35 1.15-.71 1.71-1.09A36.34 36.34 0 0038 1.1zm0 68.69a32.14 32.14 0 01-18.67-6v-45h37.32v45a32.15 32.15 0 01-18.65 6zm20.39-7.26V17.09h-40.8v45.44a32.34 32.34 0 1140.77 0z"/><path class="prefix__cls-2" d="M22.12 59.6h31.56v1.71H22.12zM22.12 55.93h31.56v1.71H22.12zM22.12 52.25h31.56v1.71H22.12zM22.12 48.58h31.56v1.71H22.12zM22.12 44.91h31.56v1.71H22.12zM22.12 41.23h31.56v1.71H22.12zM22.12 37.56h31.56v1.71H22.12zM22.12 33.88h31.56v1.71H22.12zM22.12 30.21h31.56v1.71H22.12zM23.28 23.83l1.92 2.95h1.15v-4.8H25.2v2.97l-1.92-2.97h-1.16v4.8h1.16v-2.95zM28.19 26.51a2.41 2.41 0 001.22.31 2.37 2.37 0 001.21-.31 2.23 2.23 0 00.87-.88 2.58 2.58 0 00.32-1.27 2.47 2.47 0 00-.32-1.27 2.25 2.25 0 00-.86-.87 2.42 2.42 0 00-3.31.87 2.68 2.68 0 000 2.54 2.37 2.37 0 00.87.88zm.32-3.16a1.27 1.27 0 011.8 0 1.44 1.44 0 01.33 1 1.39 1.39 0 01-.34 1 1.24 1.24 0 01-1.79 0 1.44 1.44 0 01-.33-1 1.48 1.48 0 01.33-1zM33.43 26.78h1.16V22.9h1.29v-.92h-3.73v.92h1.28v3.88zM36.36 21.98h1.15v4.8h-1.15zM39.26 26.51a2.43 2.43 0 001.22.31 2.28 2.28 0 001.52-.49 2.24 2.24 0 00.77-1.3h-1.23a1.13 1.13 0 01-.42.52 1.17 1.17 0 01-.66.19 1 1 0 01-.81-.37 1.5 1.5 0 01-.31-1 1.47 1.47 0 01.31-1 1 1 0 01.81-.38 1.17 1.17 0 01.66.19 1.11 1.11 0 01.42.53h1.22a2.27 2.27 0 00-.76-1.3 2.59 2.59 0 00-2.73-.17 2.1 2.1 0 00-.81.86 2.79 2.79 0 00-.28 1.27 2.73 2.73 0 00.28 1.27 2.13 2.13 0 00.8.87zM43.4 21.98h1.15v4.8H43.4zM46.51 25.9h1.79l.29.88h1.23L48.07 22h-1.32L45 26.78h1.22zm.9-2.65L48 25h-1.19zM53 24.22a7.53 7.53 0 00-.75-.31c-.21-.07-.37-.14-.49-.19a.92.92 0 01-.28-.19.44.44 0 01-.11-.29.38.38 0 01.13-.32.48.48 0 01.32-.11.52.52 0 01.38.14.64.64 0 01.17.38h1.24a1.48 1.48 0 00-.52-1 2 2 0 00-1.27-.38 2.21 2.21 0 00-.87.17 1.34 1.34 0 00-.59.48 1.4 1.4 0 000 1.49 1.26 1.26 0 00.49.43 4.93 4.93 0 00.73.3L52 25a.88.88 0 01.29.2.41.41 0 01.12.31.41.41 0 01-.13.32.48.48 0 01-.35.12.6.6 0 01-.42-.15.69.69 0 01-.19-.43h-1.19a1.44 1.44 0 00.57 1.1 2.15 2.15 0 001.32.39 1.9 1.9 0 00.9-.19 1.31 1.31 0 00.76-1.2 1.25 1.25 0 00-.21-.76 1.39 1.39 0 00-.47-.49z"/></svg>