<svg id="prefix__Capa_1" data-name="Capa 1" xmlns="http://www.w3.org/2000/svg" viewBox="0 0 77.42 77.2"><defs><style>.prefix__cls-1{fill:none}.prefix__cls-2{fill:#363636}</style></defs><path class="prefix__cls-1" d="M63.42 43.72c.08.71.14 1.38.18 2v.46a3 3 0 010 .53 1.35 1.35 0 01-.21.65 1.19 1.19 0 01-.51.44 1.88 1.88 0 01-.88.2 3.07 3.07 0 01-.76-.16 4.78 4.78 0 01-1-.45 4.64 4.64 0 01-.46-.3l-.06.06a6.78 6.78 0 01-1 1 1.89 1.89 0 01-1 .34h-.85a.77.77 0 00-.24.07.57.57 0 00-.18.15c-.14.14-.28.41-.53.73a2.07 2.07 0 01-.5.47 2.15 2.15 0 01-.65.31 4 4 0 01-1.24.14 8 8 0 00-1 0 2.05 2.05 0 00-.8.27A12.34 12.34 0 0050 52a4.6 4.6 0 01-2.16 1 2.52 2.52 0 01-1.25 0 2.71 2.71 0 01-1-.6 4.48 4.48 0 01-1-1.54q-.11-.26-.18-.48l-.16-.07a6.82 6.82 0 00-1-.36 33.68 33.68 0 01-3.66-1.32l-.65-.28-.66-.35a3.18 3.18 0 01-.7-.47 1.74 1.74 0 01-.27-.31c-.06-.08-.09-.11-.08-.12s-.09-.1-.23-.1l-.53-.09c-.35 0-.65-.11-.9-.17a6.33 6.33 0 00-.56.49c-.44.43-.87.94-1.38 1.39A6.77 6.77 0 0132 49.75a7.72 7.72 0 01-3.14.88 6.26 6.26 0 01-2.15-.23l-.23-.08a3.4 3.4 0 01-.34.12 3.62 3.62 0 01-2.82-.2 2 2 0 01-.59-.5 4.83 4.83 0 01-1 .37 4.46 4.46 0 01-1.77.09 3.75 3.75 0 01-1.36-.51 3 3 0 01-.41-.34 6.39 6.39 0 01-2 .76 4.82 4.82 0 01-1.74 0 3.86 3.86 0 01-1.76-.73 3.52 3.52 0 01-1.19-1.64 3 3 0 010-2.16 3.13 3.13 0 01.6-.91 6.84 6.84 0 01.71-.64l.71-.53-4.92-.71-1.93-.29a32.33 32.33 0 0064.08.27c-2.07.11-4.62.23-7.44.35.06.22.09.42.11.6zM15.14 42.4l1.56-1.15a28.94 28.94 0 003.89-3.4A16.39 16.39 0 0022 36.14a3.76 3.76 0 00-.32-1.21A4.25 4.25 0 0021 33.8a6.08 6.08 0 00-1.17-1.06 8.65 8.65 0 00-1.42-.8A65 65 0 0112 30a17.47 17.47 0 01-3-1.4 3.62 3.62 0 01-.83-.66 32.21 32.21 0 00-1.74 10.39 33 33 0 00.19 3.46c.6 0 1.3 0 2.11.05 1.76.09 3.96.28 6.41.56zM45.81 33.71l4.61-1.2-.22-.23a3.18 3.18 0 01-.53-.87c-.09-.22-.09-.35-.05-.37s.34.35 1 .85a4.72 4.72 0 00.64.41 5.48 5.48 0 00.59.26 7.43 7.43 0 00.87.21c.28.06.6.12.93.21l.16.05a4.42 4.42 0 01.6.24c.19.09.36.18.51.24a1.41 1.41 0 00.43.1 2.1 2.1 0 00.48-.06 3.09 3.09 0 00.53-.19 5.93 5.93 0 00.56-.29 1.7 1.7 0 00.73-.73.91.91 0 00.08-.41v-.1-.06a.41.41 0 00-.1-.14 2.2 2.2 0 00-.48-.35l-.57-.35-.1-.07c-.91-.54-1.87-1.07-2.88-1.57a9.61 9.61 0 00-1.45-.61 2.62 2.62 0 00-1.28-.11 6.81 6.81 0 00-2.32 1.53 22.94 22.94 0 01-4.63 2.75 18.27 18.27 0 01-3.2 1.07 15.88 15.88 0 005.09-.21z"/><path class="prefix__cls-1" d="M12.27 29c1.29.36 2.84.74 4.57 1.15 0 0 0-.09.05-.13L17 30l.05-.1.11-.15a4.88 4.88 0 012.27-1.36 9.69 9.69 0 012.67-.6 4.22 4.22 0 011.55.2 4.3 4.3 0 011.4.8c.4.32.75.67 1.1 1a3.23 3.23 0 001 .65 1.76 1.76 0 00.53.08c.2 0 .43 0 .69-.08a5.7 5.7 0 01.88-.06 2.45 2.45 0 011 .26 11.4 11.4 0 011.37 1 5.62 5.62 0 001.3.64c.47.17 1 .32 1.52.47s1.07.29 1.61.42c1.08.28 2.18.53 3.29.71h.15c.67-.32 2.09-.86 3.89-1.83a25.62 25.62 0 004.27-2.86l.55-.48.61-.52a4 4 0 011.67-.87 4 4 0 012 .12 11.44 11.44 0 011.67.69c1 .52 2 1.08 3 1.66l.68.44c.15.1.31.21.47.34l3.93-1c3-.74 5.33-1.33 7-1.71h.14a32.33 32.33 0 00-61.11 0c.18 0 .5.18 1 .35.66.15 1.74.48 3.01.79z"/><path class="prefix__cls-1" d="M62.47 30.43l-3.53 1a1.19 1.19 0 01.06.37 2.13 2.13 0 01-.22 1.05 2.85 2.85 0 01-1.3 1.26 6.13 6.13 0 01-.7.32 4.63 4.63 0 01-.75.22 2.72 2.72 0 01-.81 0 2.37 2.37 0 01-.78-.23c-.22-.1-.4-.22-.56-.31a4.78 4.78 0 00-.45-.23c-.48-.2-1-.32-1.51-.5l-2.67.74-1.54.42-.78.21-.39.11-.42.11a18 18 0 01-7 .09 40.56 40.56 0 01-3.42-.73c-.55-.14-1.09-.3-1.63-.45s-1.08-.31-1.63-.51a7 7 0 01-1.59-.81 13.7 13.7 0 00-1.2-.89 1.05 1.05 0 00-.49-.13 4 4 0 00-.65 0 6.78 6.78 0 01-.84.07 2 2 0 01-.49 0 2.47 2.47 0 01-.47-.11 4.4 4.4 0 01-1.46-.92c-.39-.35-.72-.69-1.05-1a3.33 3.33 0 00-1-.62 3.2 3.2 0 00-1.12-.17 9.47 9.47 0 00-2.38.47 7.17 7.17 0 00-1.05.39 4.45 4.45 0 00-.43.26l-.19.15-.09.08-.06.07-.06.07v.08a.16.16 0 00.05.16.18.18 0 00.07 0H18l.12.06.49.23a9.36 9.36 0 011.71 1.07 5.82 5.82 0 01.45.4 5.64 5.64 0 01.77.88 4.94 4.94 0 01.67 1.34 5.19 5.19 0 01.18.87c.66-1 1-1.65 1.08-1.6s0 .51-.26 1.32a12.07 12.07 0 01-1.84 3.16 23.79 23.79 0 01-3.84 3.78l-.45.35c-.5.4-1 .79-1.54 1.19l-.5.37-1.29 1a2.72 2.72 0 00-.89 1 1.6 1.6 0 000 1.16 2.12 2.12 0 00.7 1 3.18 3.18 0 002.44.51 6.28 6.28 0 002.36-1 22.64 22.64 0 001.94-1.39c.84-.66 1.54-1.25 2.1-1.75l.6-.52c.32-.29.58-.5.76-.64s.27-.18.31-.15 0 .09 0 .2a6.59 6.59 0 01-.63 1l-.2.26a22.64 22.64 0 01-2.25 2.39A20 20 0 0119 48.79a5 5 0 002.34 0 14.62 14.62 0 002.39-1l.44-.19.19-.07H24.66l.14-.06c.05 0 .11 0 .14.1a.44.44 0 010 .36.76.76 0 01-.12.19l-.12.17a3.92 3.92 0 01-.35.38 6.19 6.19 0 01-.83.69h.13a5 5 0 002.06-.19 14.82 14.82 0 002-.94c.55-.28 1-.43 1.09-.28s0 .54-.47 1.06a5.17 5.17 0 01-.89.8l-.11.08a11.5 11.5 0 001.35-.18 8.62 8.62 0 002.63-1 7.71 7.71 0 001.31-1c.41-.39.81-.89 1.32-1.39a6.24 6.24 0 01.84-.7 7.24 7.24 0 01.91-.54 11.31 11.31 0 011.79-.67 17.48 17.48 0 013.07-.63c.57-.07 1.07-.09 1.48-.1a10.46 10.46 0 01-1.61-2.77l-.15-.4a2.93 2.93 0 01-.13-.53 1.45 1.45 0 01.07-.7 1.49 1.49 0 01.37-.58 1.52 1.52 0 01.5-.35 2.42 2.42 0 01.55-.16 2.79 2.79 0 01.94.07 6.25 6.25 0 01.77.23 2 2 0 01-.22-.41 1.6 1.6 0 01-.09-.58 1.7 1.7 0 01.4-1.06 2.56 2.56 0 01.78-.59 2.76 2.76 0 01.9-.27 4.51 4.51 0 013 1 7.09 7.09 0 01.71.61 3.63 3.63 0 010-1.4 2.1 2.1 0 01.23-.61 1.76 1.76 0 01.49-.53 2.13 2.13 0 011.35-.37 3.2 3.2 0 011.26.38 9.06 9.06 0 011 .65A16.59 16.59 0 0155 36.82c.52.52 1 1 1.46 1.54a4.49 4.49 0 01.07-1.24 2.72 2.72 0 01.36-.95 2.9 2.9 0 01.79-.81 3.19 3.19 0 012.39-.46 2.85 2.85 0 011.26.64 3.56 3.56 0 01.81 1.13 9.46 9.46 0 01.64 2.48c.15.9.29 1.78.41 2.63 3-.07 5.61-.08 7.76 0a32.41 32.41 0 00-1.44-13.53l-.16.05c-1.63.53-3.97 1.26-6.88 2.13z"/><path class="prefix__cls-1" d="M59.2 46.08a6 6 0 00-.4-2.23c-.06-.16-.14-.34-.22-.51a8.57 8.57 0 00-.8-1.36c-.24-.32-.5-.66-.79-1-.42-.5-.91-1-1.42-1.54s-1-1.09-1.58-1.63a18.26 18.26 0 00-1.64-1.47 3.57 3.57 0 00-1.53-.84 1 1 0 00-.56.1.56.56 0 00-.16.15.67.67 0 00-.1.25 2.62 2.62 0 00-.08.71 4.17 4.17 0 00.07.71 4.86 4.86 0 00.69 1.74l.15.17c.24.27.49.52.75.76.51.48 1 .93 1.48 1.36a10.55 10.55 0 01.74.77 6.85 6.85 0 01.91 1.25c.07.14.13.28.18.41.27.68.23 1.1.15 1.12s-.25-.33-.63-.87a5.21 5.21 0 00-.52-.63 11.35 11.35 0 00-1.35-1.19l-.13-.11c-.48-.37-1-.76-1.6-1.23-.29-.24-.59-.5-.88-.79s-.56-.59-.83-.89a12.36 12.36 0 00-1.73-1.67 4.2 4.2 0 00-1-.55 2.44 2.44 0 00-.53-.14 2.48 2.48 0 00-.27 0h-.24a1.27 1.27 0 00-.76.36.39.39 0 00-.09.19.44.44 0 00.09.23c.08.12.23.3.36.47s.27.35.4.51l.76 1c.85 1.11 1.63 2.12 2.28 3l.31.45.31.47a11.53 11.53 0 011.12 2.15c.25.66.29 1.06.2 1.09s-.3-.28-.68-.84-1-1.35-1.74-2.27l-.09-.11c-.21-.24-.44-.5-.67-.78-.62-.72-1.32-1.52-2.05-2.39l-.53-.3a7.06 7.06 0 00-2.15-.72 1.42 1.42 0 00-.5 0 .49.49 0 00-.16.06.24.24 0 00-.11.08.13.13 0 000 .07v.07a1.71 1.71 0 00.07.25c.05.11.09.23.14.35a12.77 12.77 0 001.35 2.52c.25.37.51.69.77 1a10.1 10.1 0 01.72 1 3.28 3.28 0 01.6 1.76c0 .45-.16.67-.24.66s-.16-.23-.3-.57a4.59 4.59 0 00-.85-1.25c-.22-.24-.49-.5-.79-.79l-.43-.43-1.83.46c-.83.22-1.8.51-2.85.89q-.42.15-.84.33a2.43 2.43 0 01.36 0 1.42 1.42 0 01.51.2 1.82 1.82 0 01.34.31l.16.14a1.7 1.7 0 00.41.21l.61.25.66.27A31 31 0 0143.64 49a4.62 4.62 0 01.4.27 6.26 6.26 0 00-.26-.65c-.21-.48-.4-.73-.33-.81s.38.05.79.51a4.89 4.89 0 01.61.89c.2.35.4.77.63 1.17a3.66 3.66 0 00.89 1.1 1.34 1.34 0 001.23.29 3.67 3.67 0 001.49-.86 10.65 10.65 0 011.85-1.46 3.42 3.42 0 011.32-.45 8 8 0 011.19 0 3.61 3.61 0 00.86-.06.78.78 0 00.28-.11.88.88 0 00.23-.21c.18-.19.35-.48.66-.78a1.87 1.87 0 01.59-.38 2.18 2.18 0 01.63-.12h.85a1.14 1.14 0 00.27 0 1.06 1.06 0 00.26-.1 8.11 8.11 0 001-.72h.07c.05-.14.05-.28.05-.44z"/><path class="prefix__cls-1" d="M61.37 39.38a9 9 0 00-.5-2.14 2.2 2.2 0 00-.47-.71 1.46 1.46 0 00-.65-.37 2 2 0 00-1.47.19 1.66 1.66 0 00-.81 1 5.21 5.21 0 00-.22 1.3v.58l.77.93a11.57 11.57 0 011.11 1.71 7.77 7.77 0 01.55 1.38c0 .09 0 .18.07.27a5.08 5.08 0 010 2.6 5 5 0 01-.2.48 2.5 2.5 0 01.5.1l.31.07a8.79 8.79 0 001 .2 2.35 2.35 0 00.59 0 1 1 0 00.5-.14.32.32 0 00.1-.11.36.36 0 000-.16 3.52 3.52 0 000-.36l-.07-.46c-.1-.61-.2-1.27-.31-2l-.17-.53-.23-1.39c-.12-.82-.25-1.6-.4-2.44z"/><path class="prefix__cls-2" d="M38.77 2a36.34 36.34 0 1036.09 40.55c-.8.06-1.92.14-3.31.22h-.76a32.33 32.33 0 01-64.08-.27l-1.15-.17-.83-.14c-.19 0-.29-.09-.3-.13s.09-.1.29-.15a4.37 4.37 0 01.86-.13h1a33 33 0 01-.19-3.46 32.21 32.21 0 011.76-10.38c-.06-.08-.1-.15-.08-.17s.07 0 .14 0a32.33 32.33 0 0161.11 0 8.66 8.66 0 012.47-.43 8.89 8.89 0 01-2.3.93 32.41 32.41 0 011.44 13.53h.61c1.42 0 2.58.12 3.39.22q.18-1.82.18-3.66A36.38 36.38 0 0038.77 2z"/><path class="prefix__cls-2" d="M70.93 41.76c-2.15-.06-4.81 0-7.76 0-.12-.85-.26-1.73-.41-2.63a9.46 9.46 0 00-.64-2.48 3.56 3.56 0 00-.81-1.13 2.85 2.85 0 00-1.26-.64 3.19 3.19 0 00-2.39.46 2.9 2.9 0 00-.79.81 2.72 2.72 0 00-.36.95 4.49 4.49 0 00-.07 1.24c-.46-.5-.94-1-1.46-1.54a16.59 16.59 0 00-1.8-1.57 9.06 9.06 0 00-1-.65 3.2 3.2 0 00-1.26-.38 2.13 2.13 0 00-1.35.37 1.76 1.76 0 00-.49.53 2.1 2.1 0 00-.23.61 3.63 3.63 0 000 1.4 7.09 7.09 0 00-.71-.61 4.51 4.51 0 00-3-1 2.76 2.76 0 00-.9.27 2.56 2.56 0 00-.78.59 1.7 1.7 0 00-.4 1.06 1.6 1.6 0 00.09.58 2 2 0 00.22.41 6.25 6.25 0 00-.77-.23 2.79 2.79 0 00-.94-.07 2.42 2.42 0 00-.55.16 1.52 1.52 0 00-.5.35 1.49 1.49 0 00-.37.58 1.45 1.45 0 00-.07.7 2.93 2.93 0 00.13.53l.15.4a10.46 10.46 0 001.61 2.77c-.41 0-.91 0-1.48.1a17.48 17.48 0 00-3.07.63 11.31 11.31 0 00-1.79.67 7.24 7.24 0 00-.91.54 6.24 6.24 0 00-.84.7c-.51.5-.91 1-1.32 1.39a7.71 7.71 0 01-1.31 1 8.62 8.62 0 01-2.63 1 11.5 11.5 0 01-1.35.18l.11-.08a5.17 5.17 0 00.89-.8c.44-.52.6-.92.47-1.06s-.54 0-1.09.28a14.82 14.82 0 01-2 .94 5 5 0 01-2.06.19h-.18a6.19 6.19 0 00.83-.69 3.92 3.92 0 00.35-.38l.12-.17a.76.76 0 00.12-.19.44.44 0 000-.36c0-.09-.09-.11-.14-.1l-.14.06H24.34l-.19.07-.44.19a14.62 14.62 0 01-2.39 1 5 5 0 01-2.34 0 20 20 0 001.88-1.56 22.64 22.64 0 002.25-2.39l.2-.26a6.59 6.59 0 00.63-1c.05-.11.06-.18 0-.2s-.14 0-.31.15-.44.35-.76.64l-.6.52c-.56.5-1.26 1.09-2.1 1.75a22.64 22.64 0 01-1.94 1.39 6.28 6.28 0 01-2.36 1 3.18 3.18 0 01-2.44-.51 2.12 2.12 0 01-.7-1 1.6 1.6 0 010-1.16 2.72 2.72 0 01.89-1l1.29-1 .5-.37c.53-.4 1-.79 1.54-1.19l.45-.35a23.79 23.79 0 003.84-3.78 12.07 12.07 0 001.84-3.16c.3-.81.35-1.29.26-1.32s-.42.6-1.08 1.6a5.19 5.19 0 00-.18-.87 4.94 4.94 0 00-.67-1.34 5.64 5.64 0 00-.77-.88 5.82 5.82 0 00-.45-.4 9.36 9.36 0 00-1.71-1.07l-.49-.23.01.04h-.06a.18.18 0 01-.07 0 .16.16 0 01-.05-.16v-.08l.06-.07.06-.07.09-.08.19-.15a4.45 4.45 0 01.43-.26 7.17 7.17 0 011.05-.39 9.47 9.47 0 012.38-.47 3.2 3.2 0 011.12.17 3.33 3.33 0 011 .62c.33.28.66.62 1.05 1a4.4 4.4 0 001.46.92 2.47 2.47 0 00.47.11 2 2 0 00.49 0 6.78 6.78 0 00.84-.07 4 4 0 01.65 0 1.05 1.05 0 01.49.13 13.7 13.7 0 011.2.89 7 7 0 001.59.81c.55.2 1.09.36 1.63.51s1.08.31 1.63.45c1.11.28 2.25.54 3.42.73a18 18 0 007-.09l.42-.11.39-.11.78-.21 1.54-.42 2.67-.74c.5.18 1 .3 1.51.5a4.78 4.78 0 01.45.23c.16.09.34.21.56.31a2.37 2.37 0 00.78.23 2.72 2.72 0 00.81 0 4.63 4.63 0 00.75-.22 6.13 6.13 0 00.7-.32 2.85 2.85 0 001.3-1.26 2.13 2.13 0 00.22-1.25 1.19 1.19 0 00-.06-.37l3.53-1c2.91-.87 5.25-1.6 6.86-2.15l.16-.05a8.89 8.89 0 002.3-.93 8.66 8.66 0 00-2.47.43h-.14c-1.65.38-4 1-7 1.71l-3.93 1c-.16-.13-.32-.24-.47-.34l-.68-.44c-.94-.58-1.93-1.14-3-1.66a11.44 11.44 0 00-1.67-.69 4 4 0 00-2-.12 4 4 0 00-1.67.87l-.61.52-.55.48a25.62 25.62 0 01-4.2 2.9c-1.8 1-3.22 1.51-3.89 1.83h-.15a36.3 36.3 0 01-3.29-.71c-.54-.13-1.07-.28-1.61-.42s-1.05-.3-1.52-.47a5.62 5.62 0 01-1.3-.64 11.4 11.4 0 00-1.37-1 2.45 2.45 0 00-1-.26 5.7 5.7 0 00-.88.06c-.26 0-.49.07-.69.08a1.76 1.76 0 01-.53-.08 3.23 3.23 0 01-1-.65c-.35-.29-.7-.64-1.1-1a4.3 4.3 0 00-1.4-.8 4.22 4.22 0 00-1.55-.2 9.69 9.69 0 00-2.67.6 4.88 4.88 0 00-2.27 1.36l-.11.15L17 30l-.06.11s0 .09-.05.13c-1.73-.41-3.28-.79-4.57-1.15s-2.35-.68-3-.93c-.51-.17-.83-.31-1-.35s-.12 0-.14 0 0 .09.08.17a3.62 3.62 0 00.74.62 17.47 17.47 0 003 1.4 65 65 0 006.43 2 8.65 8.65 0 011.42.8 6.08 6.08 0 011.15 1 4.25 4.25 0 01.68 1.13 3.76 3.76 0 01.32 1.21 16.39 16.39 0 01-1.39 1.71 28.94 28.94 0 01-3.89 3.4l-1.58 1.15c-2.45-.28-4.65-.47-6.41-.56-.81 0-1.51-.06-2.11-.05h-1a4.37 4.37 0 00-.86.13c-.2 0-.29.1-.29.15s.11.09.3.13l.83.14 1.15.17 1.93.29 4.92.71-.71.53a6.84 6.84 0 00-.71.64 3.13 3.13 0 00-.6.91 3 3 0 000 2.16 3.52 3.52 0 001.19 1.64 3.86 3.86 0 001.76.73 4.82 4.82 0 001.74 0 6.39 6.39 0 002-.76 3 3 0 00.41.34 3.75 3.75 0 001.36.51 4.46 4.46 0 001.77-.09 4.83 4.83 0 001-.37 2 2 0 00.59.5 3.62 3.62 0 002.82.2 3.4 3.4 0 00.34-.12l.23.08a6.26 6.26 0 002.15.23 7.72 7.72 0 003.06-.89 6.77 6.77 0 001.61-1.12c.51-.45.94-1 1.38-1.39a6.33 6.33 0 01.56-.49c.25.06.55.12.9.17L37 47c.17 0 .27.07.26.09s0 0 .08.12a1.74 1.74 0 00.27.31 3.18 3.18 0 00.7.47l.65.29.65.28a33.68 33.68 0 003.66 1.32 6.82 6.82 0 011 .36l.16.07q.08.22.18.48a4.48 4.48 0 001 1.54 2.71 2.71 0 001 .6 2.52 2.52 0 001.25.08A4.6 4.6 0 0050 52a12.34 12.34 0 011.65-1.28 2.05 2.05 0 01.8-.27 8 8 0 011 0 4 4 0 001.24-.14 2.15 2.15 0 00.65-.31 2.07 2.07 0 00.5-.47c.25-.32.39-.59.53-.73a.57.57 0 01.18-.15.77.77 0 01.24-.07h.85a1.89 1.89 0 001-.34 6.78 6.78 0 001-1l.06-.06a4.64 4.64 0 00.46.3 4.78 4.78 0 001 .45A3.07 3.07 0 0062 48a1.88 1.88 0 001-.17 1.19 1.19 0 00.51-.44 1.35 1.35 0 00.21-.65 3 3 0 000-.53v-.46c0-.64-.1-1.31-.18-2 0-.18-.05-.38-.07-.56 2.82-.12 5.37-.24 7.44-.35h.76c1.39-.08 2.51-.16 3.31-.22 0-.19 0-.38.07-.56-.81-.1-2-.17-3.39-.22zm-27.09-8.91a22.94 22.94 0 004.63-2.75 6.81 6.81 0 012.32-1.53 2.62 2.62 0 011.28.11 9.61 9.61 0 011.45.61c1 .5 2 1 2.88 1.57l.1.07.57.35a2.2 2.2 0 01.48.35.41.41 0 01.1.14v.16a.91.91 0 01-.08.41 1.7 1.7 0 01-.73.73 5.93 5.93 0 01-.56.29 3.09 3.09 0 01-.53.19 2.1 2.1 0 01-.48.06 1.41 1.41 0 01-.43-.1c-.15-.06-.32-.15-.51-.24a4.42 4.42 0 00-.6-.24l-.12-.03c-.33-.09-.65-.15-.93-.21a7.43 7.43 0 01-.87-.21 5.48 5.48 0 01-.59-.26 4.72 4.72 0 01-.64-.41c-.62-.5-.87-.9-1-.85s0 .15.05.37a3.18 3.18 0 00.53.87l.22.23-4.61 1.2a15.88 15.88 0 01-5.17.21 18.27 18.27 0 003.24-1.09zm14.24 14.41a1.06 1.06 0 01-.26.1 1.14 1.14 0 01-.27 0h-.85a2.18 2.18 0 00-.63.12 1.87 1.87 0 00-.59.38c-.31.3-.48.59-.66.78a.88.88 0 01-.23.21.78.78 0 01-.28.11 3.61 3.61 0 01-.86.06 8 8 0 00-1.19 0 3.42 3.42 0 00-1.32.43 10.65 10.65 0 00-1.85 1.46 3.67 3.67 0 01-1.49.86 1.34 1.34 0 01-1.23-.29 3.66 3.66 0 01-.89-1.1c-.23-.4-.43-.82-.63-1.17a4.89 4.89 0 00-.61-.89c-.41-.46-.74-.58-.79-.51s.12.33.33.81a6.26 6.26 0 01.26.65 4.62 4.62 0 00-.4-.27 31 31 0 00-3.52-1.7l-.66-.3-.61-.25a1.7 1.7 0 01-.41-.21l-.16-.14a1.82 1.82 0 00-.34-.31 1.42 1.42 0 00-.51-.2 2.43 2.43 0 00-.36 0q.42-.18.84-.33c1.05-.38 2-.67 2.85-.89l1.83-.46.43.43c.3.29.57.55.79.79a4.59 4.59 0 01.85 1.25c.14.34.19.56.3.57s.23-.21.24-.66a3.28 3.28 0 00-.6-1.76 10.1 10.1 0 00-.72-1c-.26-.33-.52-.65-.77-1a12.77 12.77 0 01-1.35-2.52c0-.12-.09-.24-.14-.35a1.71 1.71 0 01-.07-.25v-.07a.13.13 0 010-.07.24.24 0 01.11-.08.49.49 0 01.16-.06 1.42 1.42 0 01.5 0 7.06 7.06 0 012.15.72l.53.3c.73.87 1.43 1.67 2.05 2.39.23.28.46.54.67.78l.09.11c.78.92 1.35 1.71 1.74 2.27s.59.88.68.84 0-.43-.2-1.09A11.53 11.53 0 0049 43.62l-.31-.47-.31-.45c-.65-.92-1.43-1.93-2.28-3l-.76-1c-.13-.16-.27-.33-.4-.51s-.28-.35-.36-.47a.44.44 0 01-.09-.23.39.39 0 01.09-.19 1.27 1.27 0 01.76-.36h.24a2.48 2.48 0 01.27 0 2.44 2.44 0 01.53.14 4.2 4.2 0 011 .55 12.36 12.36 0 011.73 1.67c.27.3.55.61.83.89s.59.55.88.79c.58.47 1.12.86 1.6 1.23l.13.11a11.35 11.35 0 011.35 1.19 5.21 5.21 0 01.52.63c.38.54.52.89.63.87s.12-.44-.15-1.12c0-.13-.11-.27-.18-.41a6.85 6.85 0 00-.91-1.25 10.55 10.55 0 00-.74-.77c-.46-.43-1-.88-1.48-1.36-.26-.24-.51-.49-.75-.76l-.15-.17a4.86 4.86 0 01-.69-1.75 4.17 4.17 0 01-.07-.71A2.62 2.62 0 0150 36a.67.67 0 01.12-.24.56.56 0 01.16-.15 1 1 0 01.56-.1 3.57 3.57 0 011.53.84A18.26 18.26 0 0154 37.82c.55.54 1.07 1.09 1.58 1.63s1 1 1.42 1.54c.29.33.55.67.79 1a8.57 8.57 0 01.8 1.36c.08.17.16.35.22.51a6 6 0 01.4 2.23v.41h-.07a8.11 8.11 0 01-1.06.76zm4.06-3.37c.11.7.21 1.36.31 2l.07.46a3.52 3.52 0 010 .36.36.36 0 010 .16.32.32 0 01-.1.11 1 1 0 01-.5.14 2.35 2.35 0 01-.59 0 8.79 8.79 0 01-1-.2L60 46.8a2.5 2.5 0 00-.5-.1 5 5 0 00.2-.48 5.08 5.08 0 000-2.6c0-.09 0-.18-.07-.27a7.77 7.77 0 00-.55-1.38 11.57 11.57 0 00-1.08-1.8l-.77-.93v-.58a5.21 5.21 0 01.22-1.3 1.66 1.66 0 01.81-1 2 2 0 011.47-.19 1.46 1.46 0 01.65.37 2.2 2.2 0 01.47.71 9 9 0 01.5 2.14c.15.84.28 1.65.42 2.44l.23 1.38z"/></svg>