<svg id="Capa_1" data-name="Capa 1" xmlns="http://www.w3.org/2000/svg" viewBox="0 0 75.87 76.31"><defs><style>.cls-1{fill:none;}.cls-2{fill:#363636;}</style></defs><title>Icono_Home_Noticias_TuVecinoTeAyuda-12-13-05-06-08-09</title><path class="cls-1" d="M29.41,25.74a1.13,1.13,0,0,0,.89-.38,1.39,1.39,0,0,0,.34-1,1.44,1.44,0,0,0-.33-1,1.27,1.27,0,0,0-1.8,0,1.48,1.48,0,0,0-.33,1,1.44,1.44,0,0,0,.33,1A1.14,1.14,0,0,0,29.41,25.74Z"/><polygon class="cls-1" points="47.41 23.25 46.81 25.02 48 25.02 47.41 23.25"/><path class="cls-1" d="M19.3,18.8v45a32.19,32.19,0,0,0,37.35,0v-45ZM46.75,22h1.32l1.75,4.77H48.59l-.29-.88H46.51l-.29.88H45ZM43.4,22h1.15v4.8H43.4ZM38.45,23.1a2.1,2.1,0,0,1,.81-.86,2.59,2.59,0,0,1,2.73.17,2.27,2.27,0,0,1,.77,1.31H41.54a1.11,1.11,0,0,0-.42-.53,1.17,1.17,0,0,0-.66-.19,1,1,0,0,0-.81.38,1.47,1.47,0,0,0-.31,1,1.5,1.5,0,0,0,.31,1,1,1,0,0,0,.81.37,1.17,1.17,0,0,0,.66-.19,1.13,1.13,0,0,0,.42-.52h1.22a2.24,2.24,0,0,1-.77,1.3,2.28,2.28,0,0,1-1.51.49,2.43,2.43,0,0,1-1.22-.31,2.13,2.13,0,0,1-.81-.87,2.73,2.73,0,0,1-.28-1.27A2.79,2.79,0,0,1,38.45,23.1ZM36.36,22h1.15v4.8H36.36Zm-4.21,0h3.73v.92h-1.3v3.88H33.43V22.9H32.15Zm-4.83,1.11a2.45,2.45,0,0,1,3.31-.87,2.25,2.25,0,0,1,.86.87,2.47,2.47,0,0,1,.32,1.27,2.58,2.58,0,0,1-.32,1.27,2.23,2.23,0,0,1-.87.88,2.37,2.37,0,0,1-1.21.31,2.41,2.41,0,0,1-1.22-.31,2.37,2.37,0,0,1-.87-.88,2.68,2.68,0,0,1,0-2.54ZM22.12,22h1.16l1.92,3V22h1.15v4.8H25.2l-1.92-3v3H22.12ZM53.68,61.3H22.12V59.6H53.68Zm0-3.67H22.12v-1.7H53.68Zm0-3.67H22.12V52.25H53.68Zm0-3.68H22.12v-1.7H53.68Zm0-3.67H22.12v-1.7H53.68Zm0-3.67H22.12V41.23H53.68Zm0-3.68H22.12v-1.7H53.68Zm0-3.67H22.12V33.88H53.68Zm0-3.67H22.12V30.21H53.68Zm-.19-5.8a1.29,1.29,0,0,1-.57.51,1.9,1.9,0,0,1-.9.19,2.15,2.15,0,0,1-1.32-.39,1.44,1.44,0,0,1-.57-1.1h1.23a.69.69,0,0,0,.19.43.6.6,0,0,0,.42.15.48.48,0,0,0,.35-.12.41.41,0,0,0,.13-.32.41.41,0,0,0-.12-.31A.88.88,0,0,0,52,25l-.49-.19a4.93,4.93,0,0,1-.73-.3,1.26,1.26,0,0,1-.49-.43,1.4,1.4,0,0,1,0-1.49,1.34,1.34,0,0,1,.59-.48,2.21,2.21,0,0,1,.87-.17,2,2,0,0,1,1.27.38,1.48,1.48,0,0,1,.52,1H52.35a.64.64,0,0,0-.17-.38.52.52,0,0,0-.38-.14.48.48,0,0,0-.32.11.38.38,0,0,0-.13.32.44.44,0,0,0,.11.29.92.92,0,0,0,.28.19c.12.05.28.12.49.19a7.53,7.53,0,0,1,.75.31,1.39,1.39,0,0,1,.49.45,1.25,1.25,0,0,1,.21.76A1.28,1.28,0,0,1,53.49,26.12Z"/><path class="cls-1" d="M38,5.1A32.33,32.33,0,0,0,17.59,62.53V17.09H58.36V62.53A32.33,32.33,0,0,0,38,5.1Z"/><path class="cls-2" d="M38,1.1A36.34,36.34,0,0,0,17.59,67.52c.56.38,1.13.74,1.71,1.09a36.25,36.25,0,0,0,37.35,0c.58-.35,1.15-.71,1.71-1.09A36.34,36.34,0,0,0,38,1.1Zm0,68.69a32.14,32.14,0,0,1-18.67-6v-45H56.65v45A32.15,32.15,0,0,1,38,69.79Zm20.39-7.26V17.09H17.59V62.53a32.34,32.34,0,1,1,40.77,0Z"/><rect class="cls-2" x="22.12" y="59.6" width="31.56" height="1.71"/><rect class="cls-2" x="22.12" y="55.93" width="31.56" height="1.71"/><rect class="cls-2" x="22.12" y="52.25" width="31.56" height="1.71"/><rect class="cls-2" x="22.12" y="48.58" width="31.56" height="1.71"/><rect class="cls-2" x="22.12" y="44.91" width="31.56" height="1.71"/><rect class="cls-2" x="22.12" y="41.23" width="31.56" height="1.71"/><rect class="cls-2" x="22.12" y="37.56" width="31.56" height="1.71"/><rect class="cls-2" x="22.12" y="33.88" width="31.56" height="1.71"/><rect class="cls-2" x="22.12" y="30.21" width="31.56" height="1.71"/><polygon class="cls-2" points="23.28 23.83 25.2 26.78 26.35 26.78 26.35 21.98 25.2 21.98 25.2 24.95 23.28 21.98 22.12 21.98 22.12 26.78 23.28 26.78 23.28 23.83"/><path class="cls-2" d="M28.19,26.51a2.41,2.41,0,0,0,1.22.31,2.37,2.37,0,0,0,1.21-.31,2.23,2.23,0,0,0,.87-.88,2.58,2.58,0,0,0,.32-1.27,2.47,2.47,0,0,0-.32-1.27,2.25,2.25,0,0,0-.86-.87,2.42,2.42,0,0,0-3.31.87,2.68,2.68,0,0,0,0,2.54A2.37,2.37,0,0,0,28.19,26.51Zm.32-3.16a1.27,1.27,0,0,1,1.8,0,1.44,1.44,0,0,1,.33,1,1.39,1.39,0,0,1-.34,1,1.24,1.24,0,0,1-1.79,0,1.44,1.44,0,0,1-.33-1A1.48,1.48,0,0,1,28.51,23.35Z"/><polygon class="cls-2" points="33.43 26.78 34.59 26.78 34.59 22.9 35.88 22.9 35.88 21.98 32.15 21.98 32.15 22.9 33.43 22.9 33.43 26.78"/><rect class="cls-2" x="36.36" y="21.98" width="1.15" height="4.8"/><path class="cls-2" d="M39.26,26.51a2.43,2.43,0,0,0,1.22.31A2.28,2.28,0,0,0,42,26.33a2.24,2.24,0,0,0,.77-1.3H41.54a1.13,1.13,0,0,1-.42.52,1.17,1.17,0,0,1-.66.19,1,1,0,0,1-.81-.37,1.5,1.5,0,0,1-.31-1,1.47,1.47,0,0,1,.31-1,1,1,0,0,1,.81-.38,1.17,1.17,0,0,1,.66.19,1.11,1.11,0,0,1,.42.53h1.22A2.27,2.27,0,0,0,42,22.41a2.59,2.59,0,0,0-2.73-.17,2.1,2.1,0,0,0-.81.86,2.79,2.79,0,0,0-.28,1.27,2.73,2.73,0,0,0,.28,1.27A2.13,2.13,0,0,0,39.26,26.51Z"/><rect class="cls-2" x="43.4" y="21.98" width="1.15" height="4.8"/><path class="cls-2" d="M46.51,25.9H48.3l.29.88h1.23L48.07,22H46.75L45,26.78h1.22Zm.9-2.65L48,25H46.81Z"/><path class="cls-2" d="M53,24.22a7.53,7.53,0,0,0-.75-.31c-.21-.07-.37-.14-.49-.19a.92.92,0,0,1-.28-.19.44.44,0,0,1-.11-.29.38.38,0,0,1,.13-.32.48.48,0,0,1,.32-.11.52.52,0,0,1,.38.14.64.64,0,0,1,.17.38h1.24a1.48,1.48,0,0,0-.52-1,2,2,0,0,0-1.27-.38,2.21,2.21,0,0,0-.87.17,1.34,1.34,0,0,0-.59.48,1.4,1.4,0,0,0,0,1.49,1.26,1.26,0,0,0,.49.43,4.93,4.93,0,0,0,.73.3L52,25a.88.88,0,0,1,.29.2.41.41,0,0,1,.12.31.41.41,0,0,1-.13.32.48.48,0,0,1-.35.12.6.6,0,0,1-.42-.15.69.69,0,0,1-.19-.43H50.13a1.44,1.44,0,0,0,.57,1.1,2.15,2.15,0,0,0,1.32.39,1.9,1.9,0,0,0,.9-.19,1.31,1.31,0,0,0,.76-1.2,1.25,1.25,0,0,0-.21-.76A1.39,1.39,0,0,0,53,24.22Z"/></svg>