<svg id="Capa_1" data-name="Capa 1" xmlns="http://www.w3.org/2000/svg" viewBox="0 0 76.98 77.2"><defs><style>.cls-1{fill:#363636;}</style></defs><title>Icono_Home_Smiley_01_TuVecinoTeAyuda</title><path class="cls-1" d="M38.75,74.67A36.34,36.34,0,1,1,75.09,38.33,36.39,36.39,0,0,1,38.75,74.67ZM38.75,6A32.34,32.34,0,1,0,71.09,38.33,32.38,32.38,0,0,0,38.75,6Z"/><path class="cls-1" d="M64.26,38.53l0-.83-.07-.83,0-.2a.15.15,0,0,0,0-.06l0-.09a1,1,0,0,0-.51-.77l-.16-.07a24.74,24.74,0,0,0-49.28,0l-.18.08a1.07,1.07,0,0,0-.47.58.58.58,0,0,0,0,.19l0,.09a.15.15,0,0,0,0,.06l0,.2-.07.83,0,.83A21.56,21.56,0,0,0,13.51,42a20.51,20.51,0,0,0,2.09,6.43,20,20,0,0,0,3.31,4.66l.42.43a28.54,28.54,0,0,0,2,2.3c.4.42.8.81,1.22,1.2v.49A3.63,3.63,0,0,0,25.59,61c1.06.21,2.39.43,4,.63A23.37,23.37,0,0,0,48,61.6c1.58-.2,2.91-.42,4-.63a3.63,3.63,0,0,0,3.09-3.47V57c.41-.39.82-.78,1.21-1.2a25.29,25.29,0,0,0,2-2.38c.12-.11.23-.22.35-.35A20,20,0,0,0,62,48.42,20.24,20.24,0,0,0,64,42,20.5,20.5,0,0,0,64.26,38.53ZM22.5,44.09v4.35a14.2,14.2,0,0,1-1.81-2.82,2.67,2.67,0,0,0,.78-1.29l-.74-.22a1.72,1.72,0,0,1-.82,1.12,1.74,1.74,0,0,1-1.26,0h0l-.14.36-.15.36a2.82,2.82,0,0,0,.93.16A2.4,2.4,0,0,0,20,46a15.59,15.59,0,0,0,2.48,3.61V55.3l-.1-.07a15.88,15.88,0,0,1-2.7-2.65A22.32,22.32,0,0,1,16.78,48a21.57,21.57,0,0,1-2.11-9.45l0-.8c0-.25,0-.51,0-.76l0-.18v0h0s0,0,0,0,0,0,0,0h.06l.08,0,.39.18.26.15c.22.13.43.27.64.41.42.29.82.59,1.2.89.75.6,1.44,1.19,2.06,1.73l2.93,2.59a3.31,3.31,0,0,0,.3.25A3.26,3.26,0,0,0,22.5,44.09ZM38.79,62.26a22.08,22.08,0,0,1-2.45-.14c.79,0,1.6,0,2.45,0s1.66,0,2.45,0A22.22,22.22,0,0,1,38.79,62.26ZM53.84,49.8l-.07.06.07.07V57.5a1.89,1.89,0,0,1-.12.67,2.55,2.55,0,0,1-2,1.58l-.33.07c-1,.2-2.31.4-3.8.58a71.72,71.72,0,0,1-8.83.52A71.59,71.59,0,0,1,30,60.4c-1.49-.18-2.76-.38-3.8-.58l-.33-.07a2.56,2.56,0,0,1-2-1.58,2.14,2.14,0,0,1-.11-.67V44.09a2.4,2.4,0,0,1,2-2.24A46,46,0,0,1,31.1,41c.9-.1,1.87-.18,2.92-.25,1.45-.08,3-.14,4.77-.14,1.43,0,2.76,0,4,.1,1.06.05,2,.13,2.95.21a50.86,50.86,0,0,1,6.09.92,2.4,2.4,0,0,1,2,2.24Zm.83-7.29a3.81,3.81,0,0,0-2.59-1.87,49.75,49.75,0,0,0-6.16-.93,49.27,49.27,0,0,0,.41-6.64c0-6.16-.92-11.15-2-11.15s-2.06,5-2.06,11.15a50,50,0,0,0,.38,6.4c-1.19,0-2.46-.08-3.81-.08-1.66,0-3.18,0-4.58.12a50.51,50.51,0,0,0,.38-6.44c0-6.16-.92-11.15-2.05-11.15s-2.05,5-2.05,11.15a50.16,50.16,0,0,0,.41,6.71,52.2,52.2,0,0,0-5.41.86,3.82,3.82,0,0,0-2.59,1.89l-.09-.11c-.57-.7-1.45-1.68-2.61-2.85-.58-.59-1.24-1.22-2-1.87-.38-.33-.78-.66-1.22-1a7.63,7.63,0,0,0-.69-.49,7.22,7.22,0,0,0-.84-.45l-.08,0a23.5,23.5,0,0,1,46.8,0l-.1,0a7.22,7.22,0,0,0-.84.45c-.25.16-.48.32-.7.49-.43.32-.83.65-1.21,1-.74.65-1.4,1.28-2,1.87-1.16,1.17-2,2.15-2.62,2.85A.31.31,0,0,1,54.67,42.51Zm8-.67A21.64,21.64,0,0,1,60.78,48a22.32,22.32,0,0,1-2.92,4.58,15.88,15.88,0,0,1-2.7,2.65l-.08.06V49.63A15.29,15.29,0,0,0,57.56,46a2.13,2.13,0,0,0,.76.13,2.84,2.84,0,0,0,.94-.16L59,45.25a1.79,1.79,0,0,1-1.26,0,1.69,1.69,0,0,1-.82-1.12l-.74.22a2.66,2.66,0,0,0,.75,1.27,14.46,14.46,0,0,1-1.82,2.85V44.09a3.32,3.32,0,0,0-.2-1.13l.28-.24,2.93-2.59c.62-.54,1.31-1.13,2.06-1.73.38-.3.78-.6,1.2-.89.21-.14.42-.28.64-.41l.28-.16.37-.17.08,0h.06s0,0,0,0,0,0,0,0h0V37l0,.76,0,.8A21.86,21.86,0,0,1,62.66,41.84Z"/><path class="cls-1" d="M50.43,48A137.41,137.41,0,0,0,30,47.8c-1,.06-1.93.12-2.9.2a.82.82,0,0,0-.8.79.8.8,0,0,0,.8.79,137.54,137.54,0,0,1,20.4-.21c1,.06,1.93.12,2.89.21a.79.79,0,1,0,0-1.58Z"/><path class="cls-1" d="M27.36,45.32l.31,0,.14,0h.1l.63-.07c1.7-.17,3.41-.24,5.12-.29q4.64-.12,9.27,0c1.9,0,3.8.11,5.69.27l.83.08.31,0h.06c.13,0,.27,0,.4.06,1,.22,1.43-1.3.43-1.51a14.07,14.07,0,0,0-1.57-.21c-1.33-.13-2.67-.2-4-.25l-1.15,0h-.46c-3-.07-5.91-.08-8.87,0l-1.24,0-1.59.06c-1,0-1.91.1-2.86.18a16.32,16.32,0,0,0-2,.25C25.92,44,26.35,45.54,27.36,45.32Z"/><path class="cls-1" d="M50.43,52.28A137.41,137.41,0,0,1,30,52.49c-1-.06-1.93-.13-2.9-.21a.79.79,0,1,0,0,1.57,137.54,137.54,0,0,0,20.4.21c1-.06,1.93-.12,2.89-.21a.81.81,0,0,0,.8-.78A.79.79,0,0,0,50.43,52.28Z"/><path class="cls-1" d="M50.22,56.22l-.32.05-.14,0-.09,0-.63.06c-1.7.17-3.42.24-5.12.29-3.09.09-6.18.09-9.27,0-1.9,0-3.8-.1-5.7-.27l-.82-.08-.31,0h-.06l-.4-.07c-1-.22-1.44,1.3-.43,1.52a13.75,13.75,0,0,0,1.57.2c1.71.17,3.44.24,5.16.29,3.11.09,6.22.09,9.33,0,1.89,0,3.8-.1,5.69-.27a16.55,16.55,0,0,0,2-.24C51.65,57.52,51.23,56,50.22,56.22Z"/></svg>