<svg id="Capa_1" data-name="Capa 1" xmlns="http://www.w3.org/2000/svg" viewBox="0 0 77.42 77.2"><defs><style>.cls-1{fill:none;}.cls-2{fill:#363636;}</style></defs><title>Icono_Home_Manos_TuVecinoTeAyuda-12-13-05-06</title><path class="cls-1" d="M63.42,43.72c.08.71.14,1.38.18,2l0,.46a3,3,0,0,1,0,.53,1.35,1.35,0,0,1-.21.65,1.19,1.19,0,0,1-.51.44A1.88,1.88,0,0,1,62,48a3.07,3.07,0,0,1-.76-.16,4.78,4.78,0,0,1-1-.45,4.64,4.64,0,0,1-.46-.3l-.06.06a6.78,6.78,0,0,1-1,1,1.89,1.89,0,0,1-1,.34c-.34,0-.63,0-.85,0a.77.77,0,0,0-.24.07.57.57,0,0,0-.18.15c-.14.14-.28.41-.53.73a2.07,2.07,0,0,1-.5.47,2.15,2.15,0,0,1-.65.31,4,4,0,0,1-1.24.14,8,8,0,0,0-1,0,2.05,2.05,0,0,0-.8.27A12.34,12.34,0,0,0,50,52,4.6,4.6,0,0,1,47.84,53,2.52,2.52,0,0,1,46.59,53a2.71,2.71,0,0,1-1-.6,4.48,4.48,0,0,1-1-1.54q-.11-.26-.18-.48l-.16-.07a6.82,6.82,0,0,0-1-.36,33.68,33.68,0,0,1-3.66-1.32l-.65-.28L38.28,48a3.18,3.18,0,0,1-.7-.47,1.74,1.74,0,0,1-.27-.31c-.06-.08-.09-.11-.08-.12S37.14,47,37,47l-.53-.09c-.35,0-.65-.11-.9-.17h0a6.33,6.33,0,0,0-.56.49c-.44.43-.87.94-1.38,1.39A6.77,6.77,0,0,1,32,49.75a7.72,7.72,0,0,1-3.14.88,6.26,6.26,0,0,1-2.15-.23l-.23-.08a3.4,3.4,0,0,1-.34.12,3.62,3.62,0,0,1-2.82-.2,2,2,0,0,1-.59-.5,4.83,4.83,0,0,1-1,.37,4.46,4.46,0,0,1-1.77.09,3.75,3.75,0,0,1-1.36-.51,3,3,0,0,1-.41-.34,6.39,6.39,0,0,1-2,.76,4.82,4.82,0,0,1-1.74,0,3.86,3.86,0,0,1-1.76-.73,3.52,3.52,0,0,1-1.19-1.64,3,3,0,0,1,0-2.16,3.13,3.13,0,0,1,.6-.91,6.84,6.84,0,0,1,.71-.64l.71-.53-4.92-.71-1.93-.29a32.33,32.33,0,0,0,64.08.27c-2.07.11-4.62.23-7.44.35C63.37,43.34,63.4,43.54,63.42,43.72Z"/><path class="cls-1" d="M15.14,42.4l1.56-1.15a28.94,28.94,0,0,0,3.89-3.4A16.39,16.39,0,0,0,22,36.14a3.76,3.76,0,0,0-.32-1.21A4.25,4.25,0,0,0,21,33.8a6.08,6.08,0,0,0-1.17-1.06,8.65,8.65,0,0,0-1.42-.8A65,65,0,0,1,12,30,17.47,17.47,0,0,1,9,28.6a3.62,3.62,0,0,1-.83-.66A32.21,32.21,0,0,0,6.43,38.33a33,33,0,0,0,.19,3.46c.6,0,1.3,0,2.11.05C10.49,41.93,12.69,42.12,15.14,42.4Z"/><path class="cls-1" d="M45.81,33.71l4.61-1.2-.22-.23a3.18,3.18,0,0,1-.53-.87c-.09-.22-.09-.35-.05-.37s.34.35,1,.85a4.72,4.72,0,0,0,.64.41,5.48,5.48,0,0,0,.59.26,7.43,7.43,0,0,0,.87.21c.28.06.6.12.93.21l.16.05a4.42,4.42,0,0,1,.6.24c.19.09.36.18.51.24a1.41,1.41,0,0,0,.43.1,2.1,2.1,0,0,0,.48-.06,3.09,3.09,0,0,0,.53-.19,5.93,5.93,0,0,0,.56-.29,1.7,1.7,0,0,0,.73-.73.91.91,0,0,0,.08-.41l0-.1s0,0,0-.06a.41.41,0,0,0-.1-.14,2.2,2.2,0,0,0-.48-.35l-.57-.35-.1-.07c-.91-.54-1.87-1.07-2.88-1.57a9.61,9.61,0,0,0-1.45-.61,2.62,2.62,0,0,0-1.28-.11,6.81,6.81,0,0,0-2.32,1.53,22.94,22.94,0,0,1-4.63,2.75,18.27,18.27,0,0,1-3.2,1.07A15.88,15.88,0,0,0,45.81,33.71Z"/><path class="cls-1" d="M12.27,29c1.29.36,2.84.74,4.57,1.15,0,0,0-.09.05-.13L17,30l.05-.1.11-.15a4.88,4.88,0,0,1,2.27-1.36,9.69,9.69,0,0,1,2.67-.6,4.22,4.22,0,0,1,1.55.2,4.3,4.3,0,0,1,1.4.8c.4.32.75.67,1.1,1a3.23,3.23,0,0,0,1,.65,1.76,1.76,0,0,0,.53.08c.2,0,.43,0,.69-.08a5.7,5.7,0,0,1,.88-.06,2.45,2.45,0,0,1,1,.26,11.4,11.4,0,0,1,1.37,1,5.62,5.62,0,0,0,1.3.64c.47.17,1,.32,1.52.47s1.07.29,1.61.42c1.08.28,2.18.53,3.29.71l.15,0c.67-.32,2.09-.86,3.89-1.83a25.62,25.62,0,0,0,4.27-2.86l.55-.48.61-.52a4,4,0,0,1,1.67-.87,4,4,0,0,1,2,.12,11.44,11.44,0,0,1,1.67.69c1,.52,2,1.08,3,1.66l.68.44c.15.1.31.21.47.34l3.93-1c3-.74,5.33-1.33,7-1.71l.14,0a32.33,32.33,0,0,0-61.11,0c.18,0,.5.18,1,.35C9.92,28.36,11,28.69,12.27,29Z"/><path class="cls-1" d="M62.47,30.43l-3.53,1a1.19,1.19,0,0,1,.06.37,2.13,2.13,0,0,1-.22,1.05,2.85,2.85,0,0,1-1.3,1.26,6.13,6.13,0,0,1-.7.32,4.63,4.63,0,0,1-.75.22,2.72,2.72,0,0,1-.81,0,2.37,2.37,0,0,1-.78-.23c-.22-.1-.4-.22-.56-.31a4.78,4.78,0,0,0-.45-.23c-.48-.2-1-.32-1.51-.5l-2.67.74-1.54.42-.78.21-.39.11-.42.11a18,18,0,0,1-7,.09c-1.17-.19-2.31-.45-3.42-.73-.55-.14-1.09-.3-1.63-.45s-1.08-.31-1.63-.51a7,7,0,0,1-1.59-.81,13.7,13.7,0,0,0-1.2-.89,1.05,1.05,0,0,0-.49-.13,4,4,0,0,0-.65,0,6.78,6.78,0,0,1-.84.07,2,2,0,0,1-.49,0,2.47,2.47,0,0,1-.47-.11,4.4,4.4,0,0,1-1.46-.92c-.39-.35-.72-.69-1.05-1a3.33,3.33,0,0,0-1-.62,3.2,3.2,0,0,0-1.12-.17,9.47,9.47,0,0,0-2.38.47,7.17,7.17,0,0,0-1.05.39,4.45,4.45,0,0,0-.43.26l-.19.15-.09.08-.06.07-.06.07,0,0h0l0,.08a.16.16,0,0,0,.05.16.18.18,0,0,0,.07,0l0,0,.06,0,.12.06.49.23a9.36,9.36,0,0,1,1.71,1.07,5.82,5.82,0,0,1,.45.4,5.64,5.64,0,0,1,.77.88,4.94,4.94,0,0,1,.67,1.34,5.19,5.19,0,0,1,.18.87c.66-1,1-1.65,1.08-1.6s0,.51-.26,1.32a12.07,12.07,0,0,1-1.84,3.16,23.79,23.79,0,0,1-3.84,3.78l-.45.35c-.5.4-1,.79-1.54,1.19l-.5.37-1.29,1a2.72,2.72,0,0,0-.89,1,1.6,1.6,0,0,0,0,1.16,2.12,2.12,0,0,0,.7,1,3.18,3.18,0,0,0,2.44.51,6.28,6.28,0,0,0,2.36-1,22.64,22.64,0,0,0,1.94-1.39c.84-.66,1.54-1.25,2.1-1.75l.6-.52c.32-.29.58-.5.76-.64s.27-.18.31-.15,0,.09,0,.2a6.59,6.59,0,0,1-.63,1l-.2.26a22.64,22.64,0,0,1-2.25,2.39A20,20,0,0,1,19,48.79a5,5,0,0,0,2.34,0,14.62,14.62,0,0,0,2.39-1l.44-.19.19-.07.13,0,.17,0,.14-.06c.05,0,.11,0,.14.1a.44.44,0,0,1,0,.36.76.76,0,0,1-.12.19l-.12.17a3.92,3.92,0,0,1-.35.38,6.19,6.19,0,0,1-.83.69h.13a5,5,0,0,0,2.06-.19,14.82,14.82,0,0,0,2-.94c.55-.28,1-.43,1.09-.28s0,.54-.47,1.06a5.17,5.17,0,0,1-.89.8l-.11.08a11.5,11.5,0,0,0,1.35-.18,8.62,8.62,0,0,0,2.63-1,7.71,7.71,0,0,0,1.31-1c.41-.39.81-.89,1.32-1.39a6.24,6.24,0,0,1,.84-.7,7.24,7.24,0,0,1,.91-.54,11.31,11.31,0,0,1,1.79-.67,17.48,17.48,0,0,1,3.07-.63c.57-.07,1.07-.09,1.48-.1a10.46,10.46,0,0,1-1.61-2.77l-.15-.4a2.93,2.93,0,0,1-.13-.53,1.45,1.45,0,0,1,.07-.7,1.49,1.49,0,0,1,.37-.58,1.52,1.52,0,0,1,.5-.35,2.42,2.42,0,0,1,.55-.16,2.79,2.79,0,0,1,.94.07,6.25,6.25,0,0,1,.77.23,2,2,0,0,1-.22-.41,1.6,1.6,0,0,1-.09-.58,1.7,1.7,0,0,1,.4-1.06,2.56,2.56,0,0,1,.78-.59,2.76,2.76,0,0,1,.9-.27,4.51,4.51,0,0,1,3,1,7.09,7.09,0,0,1,.71.61,3.63,3.63,0,0,1,0-1.4,2.1,2.1,0,0,1,.23-.61,1.76,1.76,0,0,1,.49-.53,2.13,2.13,0,0,1,1.35-.37,3.2,3.2,0,0,1,1.26.38,9.06,9.06,0,0,1,1,.65A16.59,16.59,0,0,1,55,36.82c.52.52,1,1,1.46,1.54a4.49,4.49,0,0,1,.07-1.24,2.72,2.72,0,0,1,.36-.95,2.9,2.9,0,0,1,.79-.81,3.19,3.19,0,0,1,2.39-.46,2.85,2.85,0,0,1,1.26.64,3.56,3.56,0,0,1,.81,1.13,9.46,9.46,0,0,1,.64,2.48c.15.9.29,1.78.41,2.63,3-.07,5.61-.08,7.76,0a32.41,32.41,0,0,0-1.44-13.53l-.16.05C67.72,28.83,65.38,29.56,62.47,30.43Z"/><path class="cls-1" d="M59.2,46.08a6,6,0,0,0-.4-2.23c-.06-.16-.14-.34-.22-.51a8.57,8.57,0,0,0-.8-1.36c-.24-.32-.5-.66-.79-1-.42-.5-.91-1-1.42-1.54s-1-1.09-1.58-1.63a18.26,18.26,0,0,0-1.64-1.47,3.57,3.57,0,0,0-1.53-.84,1,1,0,0,0-.56.1.56.56,0,0,0-.16.15A.67.67,0,0,0,50,36a2.62,2.62,0,0,0-.08.71,4.17,4.17,0,0,0,.07.71,4.86,4.86,0,0,0,.69,1.74l.15.17c.24.27.49.52.75.76.51.48,1,.93,1.48,1.36a10.55,10.55,0,0,1,.74.77,6.85,6.85,0,0,1,.91,1.25c.07.14.13.28.18.41.27.68.23,1.1.15,1.12s-.25-.33-.63-.87a5.21,5.21,0,0,0-.52-.63,11.35,11.35,0,0,0-1.35-1.19l-.13-.11c-.48-.37-1-.76-1.6-1.23-.29-.24-.59-.5-.88-.79s-.56-.59-.83-.89a12.36,12.36,0,0,0-1.73-1.67,4.2,4.2,0,0,0-1-.55,2.44,2.44,0,0,0-.53-.14,2.48,2.48,0,0,0-.27,0h-.24a1.27,1.27,0,0,0-.76.36.39.39,0,0,0-.09.19.44.44,0,0,0,.09.23c.08.12.23.3.36.47s.27.35.4.51l.76,1c.85,1.11,1.63,2.12,2.28,3l.31.45.31.47a11.53,11.53,0,0,1,1.12,2.15c.25.66.29,1.06.2,1.09s-.3-.28-.68-.84-1-1.35-1.74-2.27l-.09-.11c-.21-.24-.44-.5-.67-.78-.62-.72-1.32-1.52-2.05-2.39l-.53-.3a7.06,7.06,0,0,0-2.15-.72,1.42,1.42,0,0,0-.5,0,.49.49,0,0,0-.16.06.24.24,0,0,0-.11.08.13.13,0,0,0,0,.07s0,0,0,.07a1.71,1.71,0,0,0,.07.25c.05.11.09.23.14.35a12.77,12.77,0,0,0,1.35,2.52c.25.37.51.69.77,1a10.1,10.1,0,0,1,.72,1,3.28,3.28,0,0,1,.6,1.76c0,.45-.16.67-.24.66s-.16-.23-.3-.57a4.59,4.59,0,0,0-.85-1.25c-.22-.24-.49-.5-.79-.79l-.43-.43-1.83.46c-.83.22-1.8.51-2.85.89q-.42.15-.84.33a2.43,2.43,0,0,1,.36,0,1.42,1.42,0,0,1,.51.2,1.82,1.82,0,0,1,.34.31l.16.14a1.7,1.7,0,0,0,.41.21l.61.25.66.27A31,31,0,0,1,43.64,49a4.62,4.62,0,0,1,.4.27,6.26,6.26,0,0,0-.26-.65c-.21-.48-.4-.73-.33-.81s.38.05.79.51a4.89,4.89,0,0,1,.61.89c.2.35.4.77.63,1.17a3.66,3.66,0,0,0,.89,1.1,1.34,1.34,0,0,0,1.23.29,3.67,3.67,0,0,0,1.49-.86,10.65,10.65,0,0,1,1.85-1.46A3.42,3.42,0,0,1,52.26,49a8,8,0,0,1,1.19,0,3.61,3.61,0,0,0,.86-.06.78.78,0,0,0,.28-.11.88.88,0,0,0,.23-.21c.18-.19.35-.48.66-.78a1.87,1.87,0,0,1,.59-.38,2.18,2.18,0,0,1,.63-.12c.37,0,.64,0,.85,0a1.14,1.14,0,0,0,.27,0,1.06,1.06,0,0,0,.26-.1,8.11,8.11,0,0,0,1-.72l.07,0C59.2,46.38,59.2,46.24,59.2,46.08Z"/><path class="cls-1" d="M61.37,39.38a9,9,0,0,0-.5-2.14,2.2,2.2,0,0,0-.47-.71,1.46,1.46,0,0,0-.65-.37,2,2,0,0,0-1.47.19,1.66,1.66,0,0,0-.81,1,5.21,5.21,0,0,0-.22,1.3c0,.21,0,.4,0,.58l.77.93a11.57,11.57,0,0,1,1.11,1.71s0,0,0,0a7.77,7.77,0,0,1,.55,1.38c0,.09,0,.18.07.27a5.08,5.08,0,0,1,0,2.6s0,0,0,0a5,5,0,0,1-.2.48,2.5,2.5,0,0,1,.5.1l.31.07a8.79,8.79,0,0,0,1,.2,2.35,2.35,0,0,0,.59,0,1,1,0,0,0,.5-.14.32.32,0,0,0,.1-.11.36.36,0,0,0,0-.16,3.52,3.52,0,0,0,0-.36l-.07-.46c-.1-.61-.2-1.27-.31-2L62,43.21l-.23-1.39C61.65,41,61.52,40.22,61.37,39.38Z"/><path class="cls-2" d="M38.77,2A36.34,36.34,0,1,0,74.86,42.55c-.8.06-1.92.14-3.31.22l-.76,0a32.33,32.33,0,0,1-64.08-.27l-1.15-.17-.83-.14c-.19,0-.29-.09-.3-.13s.09-.1.29-.15a4.37,4.37,0,0,1,.86-.13c.3,0,.65,0,1,0a33,33,0,0,1-.19-3.46A32.21,32.21,0,0,1,8.15,27.94c-.06-.08-.1-.15-.08-.17s.07,0,.14,0a32.33,32.33,0,0,1,61.11,0,8.66,8.66,0,0,1,2.47-.43,8.89,8.89,0,0,1-2.3.93,32.41,32.41,0,0,1,1.44,13.53h.61c1.42,0,2.58.12,3.39.22q.18-1.82.18-3.66A36.38,36.38,0,0,0,38.77,2Z"/><path class="cls-2" d="M70.93,41.76c-2.15-.06-4.81,0-7.76,0-.12-.85-.26-1.73-.41-2.63a9.46,9.46,0,0,0-.64-2.48,3.56,3.56,0,0,0-.81-1.13,2.85,2.85,0,0,0-1.26-.64,3.19,3.19,0,0,0-2.39.46,2.9,2.9,0,0,0-.79.81,2.72,2.72,0,0,0-.36.95,4.49,4.49,0,0,0-.07,1.24c-.46-.5-.94-1-1.46-1.54a16.59,16.59,0,0,0-1.8-1.57,9.06,9.06,0,0,0-1-.65,3.2,3.2,0,0,0-1.26-.38,2.13,2.13,0,0,0-1.35.37,1.76,1.76,0,0,0-.49.53,2.1,2.1,0,0,0-.23.61,3.63,3.63,0,0,0,0,1.4,7.09,7.09,0,0,0-.71-.61,4.51,4.51,0,0,0-3-1,2.76,2.76,0,0,0-.9.27,2.56,2.56,0,0,0-.78.59,1.7,1.7,0,0,0-.4,1.06,1.6,1.6,0,0,0,.09.58,2,2,0,0,0,.22.41,6.25,6.25,0,0,0-.77-.23,2.79,2.79,0,0,0-.94-.07,2.42,2.42,0,0,0-.55.16,1.52,1.52,0,0,0-.5.35,1.49,1.49,0,0,0-.37.58,1.45,1.45,0,0,0-.07.7,2.93,2.93,0,0,0,.13.53l.15.4a10.46,10.46,0,0,0,1.61,2.77c-.41,0-.91,0-1.48.1a17.48,17.48,0,0,0-3.07.63,11.31,11.31,0,0,0-1.79.67,7.24,7.24,0,0,0-.91.54,6.24,6.24,0,0,0-.84.7c-.51.5-.91,1-1.32,1.39a7.71,7.71,0,0,1-1.31,1,8.62,8.62,0,0,1-2.63,1,11.5,11.5,0,0,1-1.35.18l.11-.08a5.17,5.17,0,0,0,.89-.8c.44-.52.6-.92.47-1.06s-.54,0-1.09.28a14.82,14.82,0,0,1-2,.94,5,5,0,0,1-2.06.19H23.5a6.19,6.19,0,0,0,.83-.69,3.92,3.92,0,0,0,.35-.38l.12-.17a.76.76,0,0,0,.12-.19.44.44,0,0,0,0-.36c0-.09-.09-.11-.14-.1l-.14.06-.17,0-.13,0-.19.07-.44.19a14.62,14.62,0,0,1-2.39,1,5,5,0,0,1-2.34,0,20,20,0,0,0,1.88-1.56,22.64,22.64,0,0,0,2.25-2.39l.2-.26a6.59,6.59,0,0,0,.63-1c.05-.11.06-.18,0-.2s-.14,0-.31.15-.44.35-.76.64l-.6.52c-.56.5-1.26,1.09-2.1,1.75a22.64,22.64,0,0,1-1.94,1.39,6.28,6.28,0,0,1-2.36,1,3.18,3.18,0,0,1-2.44-.51,2.12,2.12,0,0,1-.7-1,1.6,1.6,0,0,1,0-1.16,2.72,2.72,0,0,1,.89-1l1.29-1,.5-.37c.53-.4,1-.79,1.54-1.19l.45-.35a23.79,23.79,0,0,0,3.84-3.78,12.07,12.07,0,0,0,1.84-3.16c.3-.81.35-1.29.26-1.32s-.42.6-1.08,1.6a5.19,5.19,0,0,0-.18-.87,4.94,4.94,0,0,0-.67-1.34,5.64,5.64,0,0,0-.77-.88,5.82,5.82,0,0,0-.45-.4,9.36,9.36,0,0,0-1.71-1.07l-.49-.23L18,30.76l-.06,0,0,0a.18.18,0,0,1-.07,0,.16.16,0,0,1-.05-.16l0-.08h0l0,0,.06-.07.06-.07.09-.08.19-.15a4.45,4.45,0,0,1,.43-.26,7.17,7.17,0,0,1,1.05-.39,9.47,9.47,0,0,1,2.38-.47,3.2,3.2,0,0,1,1.12.17,3.33,3.33,0,0,1,1,.62c.33.28.66.62,1.05,1a4.4,4.4,0,0,0,1.46.92,2.47,2.47,0,0,0,.47.11,2,2,0,0,0,.49,0,6.78,6.78,0,0,0,.84-.07,4,4,0,0,1,.65,0,1.05,1.05,0,0,1,.49.13,13.7,13.7,0,0,1,1.2.89,7,7,0,0,0,1.59.81c.55.2,1.09.36,1.63.51s1.08.31,1.63.45c1.11.28,2.25.54,3.42.73a18,18,0,0,0,7-.09l.42-.11.39-.11.78-.21,1.54-.42,2.67-.74c.5.18,1,.3,1.51.5a4.78,4.78,0,0,1,.45.23c.16.09.34.21.56.31a2.37,2.37,0,0,0,.78.23,2.72,2.72,0,0,0,.81,0,4.63,4.63,0,0,0,.75-.22,6.13,6.13,0,0,0,.7-.32,2.85,2.85,0,0,0,1.3-1.26A2.13,2.13,0,0,0,59,31.84a1.19,1.19,0,0,0-.06-.37l3.53-1c2.91-.87,5.25-1.6,6.86-2.15l.16-.05a8.89,8.89,0,0,0,2.3-.93,8.66,8.66,0,0,0-2.47.43l-.14,0c-1.65.38-4,1-7,1.71l-3.93,1c-.16-.13-.32-.24-.47-.34l-.68-.44c-.94-.58-1.93-1.14-3-1.66a11.44,11.44,0,0,0-1.67-.69,4,4,0,0,0-2-.12,4,4,0,0,0-1.67.87l-.61.52-.55.48A25.62,25.62,0,0,1,43.4,32c-1.8,1-3.22,1.51-3.89,1.83l-.15,0c-1.11-.18-2.21-.43-3.29-.71-.54-.13-1.07-.28-1.61-.42s-1.05-.3-1.52-.47a5.62,5.62,0,0,1-1.3-.64,11.4,11.4,0,0,0-1.37-1,2.45,2.45,0,0,0-1-.26,5.7,5.7,0,0,0-.88.06c-.26,0-.49.07-.69.08a1.76,1.76,0,0,1-.53-.08,3.23,3.23,0,0,1-1-.65c-.35-.29-.7-.64-1.1-1a4.3,4.3,0,0,0-1.4-.8,4.22,4.22,0,0,0-1.55-.2,9.69,9.69,0,0,0-2.67.6,4.88,4.88,0,0,0-2.27,1.36l-.11.15L17,30l-.06.11s0,.09-.05.13c-1.73-.41-3.28-.79-4.57-1.15s-2.35-.68-3-.93c-.51-.17-.83-.31-1-.35s-.12,0-.14,0,0,.09.08.17A3.62,3.62,0,0,0,9,28.6,17.47,17.47,0,0,0,12,30a65,65,0,0,0,6.43,2,8.65,8.65,0,0,1,1.42.8A6.08,6.08,0,0,1,21,33.8a4.25,4.25,0,0,1,.68,1.13A3.76,3.76,0,0,1,22,36.14a16.39,16.39,0,0,1-1.39,1.71,28.94,28.94,0,0,1-3.89,3.4L15.14,42.4c-2.45-.28-4.65-.47-6.41-.56-.81,0-1.51-.06-2.11-.05-.39,0-.74,0-1,0a4.37,4.37,0,0,0-.86.13c-.2,0-.29.1-.29.15s.11.09.3.13l.83.14,1.15.17,1.93.29,4.92.71-.71.53a6.84,6.84,0,0,0-.71.64,3.13,3.13,0,0,0-.6.91,3,3,0,0,0,0,2.16,3.52,3.52,0,0,0,1.19,1.64,3.86,3.86,0,0,0,1.76.73,4.82,4.82,0,0,0,1.74,0,6.39,6.39,0,0,0,2-.76,3,3,0,0,0,.41.34,3.75,3.75,0,0,0,1.36.51,4.46,4.46,0,0,0,1.77-.09,4.83,4.83,0,0,0,1-.37,2,2,0,0,0,.59.5,3.62,3.62,0,0,0,2.82.2,3.4,3.4,0,0,0,.34-.12l.23.08a6.26,6.26,0,0,0,2.15.23A7.72,7.72,0,0,0,32,49.75a6.77,6.77,0,0,0,1.61-1.12c.51-.45.94-1,1.38-1.39a6.33,6.33,0,0,1,.56-.49h0c.25.06.55.12.9.17L37,47c.17,0,.27.07.26.09s0,0,.08.12a1.74,1.74,0,0,0,.27.31,3.18,3.18,0,0,0,.7.47l.65.29.65.28a33.68,33.68,0,0,0,3.66,1.32,6.82,6.82,0,0,1,1,.36l.16.07q.08.22.18.48a4.48,4.48,0,0,0,1,1.54,2.71,2.71,0,0,0,1,.6,2.52,2.52,0,0,0,1.25.08A4.6,4.6,0,0,0,50,52a12.34,12.34,0,0,1,1.65-1.28,2.05,2.05,0,0,1,.8-.27,8,8,0,0,1,1,0,4,4,0,0,0,1.24-.14,2.15,2.15,0,0,0,.65-.31,2.07,2.07,0,0,0,.5-.47c.25-.32.39-.59.53-.73a.57.57,0,0,1,.18-.15.77.77,0,0,1,.24-.07c.22,0,.51,0,.85,0a1.89,1.89,0,0,0,1-.34,6.78,6.78,0,0,0,1-1l.06-.06a4.64,4.64,0,0,0,.46.3,4.78,4.78,0,0,0,1,.45A3.07,3.07,0,0,0,62,48a1.88,1.88,0,0,0,1-.17,1.19,1.19,0,0,0,.51-.44,1.35,1.35,0,0,0,.21-.65,3,3,0,0,0,0-.53l0-.46c0-.64-.1-1.31-.18-2,0-.18-.05-.38-.07-.56,2.82-.12,5.37-.24,7.44-.35l.76,0c1.39-.08,2.51-.16,3.31-.22,0-.19,0-.38.07-.56-.81-.1-2-.17-3.39-.22ZM43.84,32.85a22.94,22.94,0,0,0,4.63-2.75,6.81,6.81,0,0,1,2.32-1.53,2.62,2.62,0,0,1,1.28.11,9.61,9.61,0,0,1,1.45.61c1,.5,2,1,2.88,1.57l.1.07.57.35a2.2,2.2,0,0,1,.48.35.41.41,0,0,1,.1.14s0,0,0,.06l0,.1a.91.91,0,0,1-.08.41,1.7,1.7,0,0,1-.73.73,5.93,5.93,0,0,1-.56.29,3.09,3.09,0,0,1-.53.19,2.1,2.1,0,0,1-.48.06,1.41,1.41,0,0,1-.43-.1c-.15-.06-.32-.15-.51-.24a4.42,4.42,0,0,0-.6-.24L53.61,33c-.33-.09-.65-.15-.93-.21a7.43,7.43,0,0,1-.87-.21,5.48,5.48,0,0,1-.59-.26,4.72,4.72,0,0,1-.64-.41c-.62-.5-.87-.9-1-.85s0,.15.05.37a3.18,3.18,0,0,0,.53.87l.22.23-4.61,1.2a15.88,15.88,0,0,1-5.17.21A18.27,18.27,0,0,0,43.84,32.85ZM58.08,47.26a1.06,1.06,0,0,1-.26.1,1.14,1.14,0,0,1-.27,0c-.21,0-.48,0-.85,0a2.18,2.18,0,0,0-.63.12,1.87,1.87,0,0,0-.59.38c-.31.3-.48.59-.66.78a.88.88,0,0,1-.23.21.78.78,0,0,1-.28.11,3.61,3.61,0,0,1-.86.06,8,8,0,0,0-1.19,0,3.42,3.42,0,0,0-1.32.43,10.65,10.65,0,0,0-1.85,1.46,3.67,3.67,0,0,1-1.49.86,1.34,1.34,0,0,1-1.23-.29,3.66,3.66,0,0,1-.89-1.1c-.23-.4-.43-.82-.63-1.17a4.89,4.89,0,0,0-.61-.89c-.41-.46-.74-.58-.79-.51s.12.33.33.81a6.26,6.26,0,0,1,.26.65,4.62,4.62,0,0,0-.4-.27,31,31,0,0,0-3.52-1.7L39.46,47l-.61-.25a1.7,1.7,0,0,1-.41-.21l-.16-.14a1.82,1.82,0,0,0-.34-.31,1.42,1.42,0,0,0-.51-.2,2.43,2.43,0,0,0-.36,0q.42-.18.84-.33c1.05-.38,2-.67,2.85-.89l1.83-.46.43.43c.3.29.57.55.79.79a4.59,4.59,0,0,1,.85,1.25c.14.34.19.56.3.57s.23-.21.24-.66a3.28,3.28,0,0,0-.6-1.76,10.1,10.1,0,0,0-.72-1c-.26-.33-.52-.65-.77-1a12.77,12.77,0,0,1-1.35-2.52c0-.12-.09-.24-.14-.35a1.71,1.71,0,0,1-.07-.25c0-.06,0-.07,0-.07a.13.13,0,0,1,0-.07.24.24,0,0,1,.11-.08.49.49,0,0,1,.16-.06,1.42,1.42,0,0,1,.5,0,7.06,7.06,0,0,1,2.15.72l.53.3c.73.87,1.43,1.67,2.05,2.39.23.28.46.54.67.78l.09.11c.78.92,1.35,1.71,1.74,2.27s.59.88.68.84,0-.43-.2-1.09A11.53,11.53,0,0,0,49,43.62l-.31-.47-.31-.45c-.65-.92-1.43-1.93-2.28-3l-.76-1c-.13-.16-.27-.33-.4-.51s-.28-.35-.36-.47a.44.44,0,0,1-.09-.23.39.39,0,0,1,.09-.19,1.27,1.27,0,0,1,.76-.36h.24a2.48,2.48,0,0,1,.27,0,2.44,2.44,0,0,1,.53.14,4.2,4.2,0,0,1,1,.55,12.36,12.36,0,0,1,1.73,1.67c.27.3.55.61.83.89s.59.55.88.79c.58.47,1.12.86,1.6,1.23l.13.11a11.35,11.35,0,0,1,1.35,1.19,5.21,5.21,0,0,1,.52.63c.38.54.52.89.63.87s.12-.44-.15-1.12c0-.13-.11-.27-.18-.41a6.85,6.85,0,0,0-.91-1.25,10.55,10.55,0,0,0-.74-.77c-.46-.43-1-.88-1.48-1.36-.26-.24-.51-.49-.75-.76l-.15-.17A4.86,4.86,0,0,1,50,37.42a4.17,4.17,0,0,1-.07-.71A2.62,2.62,0,0,1,50,36a.67.67,0,0,1,.12-.24.56.56,0,0,1,.16-.15,1,1,0,0,1,.56-.1,3.57,3.57,0,0,1,1.53.84A18.26,18.26,0,0,1,54,37.82c.55.54,1.07,1.09,1.58,1.63s1,1,1.42,1.54c.29.33.55.67.79,1a8.57,8.57,0,0,1,.8,1.36c.08.17.16.35.22.51a6,6,0,0,1,.4,2.23c0,.16,0,.3,0,.41l-.07,0A8.11,8.11,0,0,1,58.08,47.26Zm4.06-3.37c.11.7.21,1.36.31,2l.07.46a3.52,3.52,0,0,1,0,.36.36.36,0,0,1,0,.16.32.32,0,0,1-.1.11,1,1,0,0,1-.5.14,2.35,2.35,0,0,1-.59,0,8.79,8.79,0,0,1-1-.2L60,46.8a2.5,2.5,0,0,0-.5-.1,5,5,0,0,0,.2-.48s0,0,0,0a5.08,5.08,0,0,0,0-2.6c0-.09,0-.18-.07-.27a7.77,7.77,0,0,0-.55-1.38s0,0,0,0A11.57,11.57,0,0,0,58,40.17l-.77-.93c0-.18,0-.37,0-.58a5.21,5.21,0,0,1,.22-1.3,1.66,1.66,0,0,1,.81-1,2,2,0,0,1,1.47-.19,1.46,1.46,0,0,1,.65.37,2.2,2.2,0,0,1,.47.71,9,9,0,0,1,.5,2.14c.15.84.28,1.65.42,2.44L62,43.21Z"/></svg>